<svg xmlns="http://www.w3.org/2000/svg" xmlns:xlink="http://www.w3.org/1999/xlink" width="3468" zoomAndPan="magnify" viewBox="0 0 2601 2760.749996" height="3681" preserveAspectRatio="xMidYMid meet" version="1.0"><defs><g/><clipPath id="013a255886"><path d="M 647.089844 191 L 1897.976562 191 L 1897.976562 1579.953125 L 647.089844 1579.953125 Z M 647.089844 191 " clip-rule="nonzero"/></clipPath><clipPath id="0b979eed77"><path d="M 1215.089844 792.496094 L 1329.941406 792.496094 L 1329.941406 977 L 1215.089844 977 Z M 1215.089844 792.496094 " clip-rule="nonzero"/></clipPath><clipPath id="a77d0fe4c9"><path d="M 1272.515625 792.496094 L 1329.941406 976.941406 L 1215.089844 976.941406 Z M 1272.515625 792.496094 " clip-rule="nonzero"/></clipPath><clipPath id="8d65d335c0"><path d="M 1224.695312 789.078125 L 1320.335938 789.078125 L 1320.335938 884.71875 L 1224.695312 884.71875 Z M 1224.695312 789.078125 " clip-rule="nonzero"/></clipPath><clipPath id="fc98f4dc52"><path d="M 1272.515625 789.078125 C 1246.105469 789.078125 1224.695312 810.488281 1224.695312 836.898438 C 1224.695312 863.308594 1246.105469 884.71875 1272.515625 884.71875 C 1298.925781 884.71875 1320.335938 863.308594 1320.335938 836.898438 C 1320.335938 810.488281 1298.925781 789.078125 1272.515625 789.078125 Z M 1272.515625 789.078125 " clip-rule="nonzero"/></clipPath></defs><g clip-path="url(#013a255886)"><path fill="#319407" d="M 1838.632812 1276.878906 L 1330.207031 1564.957031 C 1312.421875 1575.042969 1292.46875 1580.082031 1272.527344 1580.082031 C 1252.585938 1580.082031 1232.632812 1575.042969 1214.835938 1564.957031 L 706.421875 1276.878906 C 669.820312 1256.128906 647.089844 1217.121094 647.089844 1175.054688 L 647.089844 604.847656 C 647.089844 563.390625 669.332031 524.648438 705.136719 503.765625 L 1213.550781 207.203125 C 1249.925781 185.976562 1295.113281 185.992188 1331.476562 207.203125 L 1839.890625 503.765625 C 1875.710938 524.648438 1897.964844 563.378906 1897.964844 604.847656 L 1897.964844 1056.957031 L 1814.667969 992.066406 L 1814.667969 604.847656 C 1814.667969 592.898438 1808.265625 581.730469 1797.929688 575.710938 L 1289.519531 279.160156 C 1279.023438 273.046875 1266.003906 273.046875 1255.535156 279.160156 L 1220.019531 299.882812 L 1291.925781 425.058594 C 1479.679688 432.867188 1638.796875 553.492188 1703.09375 720.777344 L 1703.09375 720.789062 C 1713.347656 747.453125 1721.183594 775.304688 1726.34375 804.074219 L 1465.585938 804.074219 C 1434.902344 727.472656 1359.953125 673.191406 1272.527344 673.191406 C 1157.882812 673.191406 1064.609375 766.46875 1064.609375 881.113281 C 1064.609375 995.757812 1157.882812 1089.03125 1272.527344 1089.03125 C 1313.519531 1089.03125 1351.761719 1077.054688 1383.996094 1056.480469 L 1504.835938 1056.480469 C 1451.625 1126.796875 1367.296875 1172.316406 1272.527344 1172.316406 C 1233.597656 1172.316406 1196.429688 1164.640625 1162.460938 1150.71875 L 1115.339844 1229.160156 C 1163.226562 1251.195312 1216.460938 1263.5 1272.539062 1263.5 C 1419.222656 1263.5 1546.554688 1179.410156 1609.105469 1056.957031 L 1897.980469 1056.957031 L 1897.980469 1175.054688 C 1897.964844 1217.121094 1875.21875 1256.128906 1838.632812 1276.878906 Z M 1515.433594 720.761719 L 1612.320312 720.761719 C 1550.976562 594.882812 1421.722656 507.933594 1272.527344 507.933594 C 1263.078125 507.933594 1253.75 508.398438 1244.488281 509.085938 L 1232.949219 489.117188 L 1232.75 489.238281 L 1148.0625 341.84375 L 1147.917969 341.933594 L 1106.289062 269.777344 L 1089.324219 376.113281 L 747.113281 575.722656 C 736.789062 581.742188 730.386719 592.898438 730.386719 604.859375 L 730.386719 1175.054688 C 730.386719 1187.1875 736.9375 1198.421875 747.480469 1204.402344 L 782.125 1224.027344 L 860.671875 1092.644531 C 829.21875 1030.386719 811.460938 960.097656 811.460938 885.703125 C 811.460938 702.332031 919.078125 543.660156 1074.4375 469.429688 L 1116.082031 541.980469 C 1116.082031 541.980469 1116.066406 541.980469 1116.066406 541.996094 L 1157.246094 613.671875 C 1192.617188 598.363281 1231.601562 589.867188 1272.539062 589.867188 C 1373.886719 589.882812 1463.285156 641.964844 1515.433594 720.761719 Z M 1656.660156 1140.253906 C 1574.011719 1264.625 1432.71875 1346.796875 1272.527344 1346.796875 C 1171.035156 1346.796875 1077.152344 1313.757812 1000.90625 1257.980469 L 1019.738281 1226.621094 L 1019.699219 1226.59375 L 1090.6875 1108.417969 C 1024.050781 1055 981.308594 972.957031 981.308594 881.097656 C 981.308594 791.292969 1022.171875 710.851562 1086.28125 657.394531 L 1044.574219 584.789062 C 953.613281 653.808594 894.746094 762.988281 894.746094 885.71875 C 894.746094 962.359375 917.742188 1033.695312 957.121094 1093.320312 L 948.214844 1108.246094 L 948.335938 1108.324219 L 832.738281 1301.6875 L 832.460938 1301.515625 L 811.460938 1336.382812 L 909.089844 1295.972656 L 1255.894531 1492.484375 C 1266.148438 1498.292969 1278.90625 1498.292969 1289.148438 1492.484375 L 1797.546875 1204.402344 C 1808.105469 1198.421875 1814.65625 1187.175781 1814.65625 1175.054688 L 1814.65625 1140.253906 Z M 1656.660156 1140.253906 " fill-opacity="1" fill-rule="nonzero"/></g><g clip-path="url(#0b979eed77)"><g clip-path="url(#a77d0fe4c9)"><path fill="#ffffff" d="M 1215.089844 792.496094 L 1329.941406 792.496094 L 1329.941406 976.882812 L 1215.089844 976.882812 Z M 1215.089844 792.496094 " fill-opacity="1" fill-rule="nonzero"/></g></g><g clip-path="url(#8d65d335c0)"><g clip-path="url(#fc98f4dc52)"><path fill="#ffffff" d="M 1224.695312 789.078125 L 1320.335938 789.078125 L 1320.335938 884.71875 L 1224.695312 884.71875 Z M 1224.695312 789.078125 " fill-opacity="1" fill-rule="nonzero"/></g></g><g fill="#ffffff" fill-opacity="1"><g transform="translate(180.227724, 2233.179314)"><g><path d="M 303.328125 -273 L 303.328125 -424.65625 L 30.328125 -424.65625 L 30.328125 -485.328125 L 303.328125 -485.328125 C 343.773438 -485.328125 364 -465.101562 364 -424.65625 L 364 -273 C 364 -232.550781 343.773438 -212.328125 303.328125 -212.328125 L 91 -212.328125 L 91 0 L 30.328125 0 L 30.328125 -273 Z M 303.328125 -273 "/></g></g></g><g fill="#ffffff" fill-opacity="1"><g transform="translate(574.543919, 2233.179314)"><g><path d="M 91 0 C 50.550781 0 30.328125 -20.222656 30.328125 -60.671875 L 30.328125 -485.328125 L 91 -485.328125 L 91 -60.671875 L 515.65625 -60.671875 L 515.65625 -485.328125 L 576.328125 -485.328125 L 576.328125 -60.671875 C 576.328125 -20.222656 556.101562 0 515.65625 0 Z M 273 -121.328125 L 273 -485.328125 L 333.65625 -485.328125 L 333.65625 -121.328125 Z M 273 -121.328125 "/></g></g></g><g fill="#ffffff" fill-opacity="1"><g transform="translate(1181.184075, 2233.179314)"><g><path d="M 30.328125 -424.65625 C 30.328125 -465.101562 50.550781 -485.328125 91 -485.328125 L 303.328125 -485.328125 C 343.773438 -485.328125 364 -465.101562 364 -424.65625 L 364 0 L 303.328125 0 L 303.328125 -424.65625 L 91 -424.65625 L 91 0 L 30.328125 0 Z M 30.328125 -424.65625 "/></g></g></g><g fill="#ffffff" fill-opacity="1"><g transform="translate(1575.50027, 2233.179314)"><g><path d="M 364 -485.328125 L 364 -424.65625 L 30.328125 -424.65625 L 30.328125 -485.328125 Z M 30.328125 0 L 30.328125 -60.671875 L 364 -60.671875 L 364 0 Z M 30.328125 -121.328125 L 30.328125 -182 L 303.328125 -182 L 303.328125 -121.328125 Z M 30.328125 -121.328125 "/></g></g></g><g fill="#ffffff" fill-opacity="1"><g transform="translate(1969.816466, 2233.179314)"><g><path d="M 91 0 C 50.550781 0 30.328125 -20.222656 30.328125 -60.671875 L 30.328125 -485.328125 L 91 -485.328125 L 91 -60.671875 L 303.328125 -60.671875 L 303.328125 -485.328125 L 364 -485.328125 L 364 -60.671875 C 364 -20.222656 343.773438 0 303.328125 0 Z M 91 0 "/></g></g></g></svg>