<svg xmlns="http://www.w3.org/2000/svg" xmlns:xlink="http://www.w3.org/1999/xlink" width="629" zoomAndPan="magnify" viewBox="0 0 471.75 360.749986" height="481" preserveAspectRatio="xMidYMid meet" version="1.0"><defs><clipPath id="166cab24da"><path d="M 29.34375 182 L 435 182 L 435 279 L 29.34375 279 Z M 29.34375 182 " clip-rule="nonzero"/></clipPath><clipPath id="77825142da"><path d="M 158 226 L 211 226 L 211 339.332031 L 158 339.332031 Z M 158 226 " clip-rule="nonzero"/></clipPath><clipPath id="a0dc179aa7"><path d="M 325 20.800781 L 442.308594 20.800781 L 442.308594 152 L 325 152 Z M 325 20.800781 " clip-rule="nonzero"/></clipPath></defs><path fill="#ec088f" d="M 94.277344 172.175781 L 93.1875 171.738281 C 91.589844 175.371094 89.988281 179 88.390625 182.628906 L 93.625 160.632812 L 92.699219 159.738281 L 84.898438 182.628906 L 89.914062 150.832031 L 88.171875 149.960938 L 80.972656 180.453125 L 84.898438 148.871094 L 83.589844 148.21875 L 77.046875 179.582031 L 80.316406 148 L 78.574219 148 L 71.375 181.757812 C 72.320312 170.578125 73.265625 159.398438 74.210938 148.21875 L 72.683594 148.433594 L 66.792969 182.628906 C 67.59375 171.59375 68.394531 160.558594 69.191406 149.523438 L 67.882812 149.742188 L 61.992188 184.15625 L 64.507812 153.527344 L 63.085938 153.878906 L 55.886719 185.460938 L 58.976562 158.925781 L 57.414062 159.761719 C 55.742188 169.273438 54.070312 178.78125 52.394531 188.292969 C 52.6875 183.429688 52.976562 179 53.269531 174.136719 L 52.179688 174.355469 L 46.589844 194.332031 L 90.132812 188.511719 C 91.515625 183.066406 92.898438 177.621094 94.277344 172.175781 Z M 94.277344 172.175781 " fill-opacity="1" fill-rule="nonzero"/><path fill="#7d6c36" d="M 93.128906 260.292969 C 92.605469 261.636719 91.660156 263.367188 89.894531 264.210938 C 87.371094 265.433594 85.019531 263.964844 82.382812 263.386719 C 82.382812 263.386719 78.3125 262.515625 60.199219 272.53125 L 65.191406 278.898438 L 75.113281 272.972656 C 79.535156 275.117188 84.398438 276.195312 89.316406 276.128906 C 98.414062 275.988281 104.851562 271.882812 107.269531 270.15625 " fill-opacity="1" fill-rule="nonzero"/><path fill="#ec088f" d="M 394.535156 233.398438 L 394 234.03125 L 394.171875 233.289062 L 390.417969 232.167969 L 389.417969 232.941406 L 389.585938 231.917969 L 386.453125 230.976562 L 385.710938 231.847656 L 385.945312 230.816406 L 383.050781 229.945312 L 381.785156 231.417969 L 382.179688 229.691406 L 379.464844 228.871094 L 378.292969 230.328125 L 378.828125 228.679688 L 374.847656 227.472656 C 373.929688 228.246094 373.277344 228.804688 373.277344 228.804688 L 373.976562 227.207031 L 371.652344 226.503906 L 369.785156 228.367188 L 370.128906 226.039062 L 367.25 225.167969 L 365.425781 227.28125 L 366.0625 224.796875 L 363.566406 224.035156 L 361.496094 226.410156 L 362.109375 223.589844 L 359.832031 222.890625 L 358.007812 225.320312 L 358.527344 222.488281 L 355.878906 221.671875 L 353.863281 224.230469 L 354.015625 221.101562 L 351.515625 220.332031 L 349.71875 223.578125 L 350.15625 219.910156 L 347.625 219.128906 L 345.792969 222.707031 L 346.71875 218.847656 L 344.230469 218.074219 L 341.863281 221.617188 L 342.898438 217.660156 L 340.542969 216.925781 L 337.71875 220.746094 L 338.503906 216.292969 L 336.144531 215.554688 L 334.011719 219.65625 L 334.910156 215.167969 L 332.203125 214.320312 L 329.648438 218.785156 L 330.535156 213.796875 L 327.550781 212.859375 L 325.066406 217.042969 L 325.820312 212.3125 L 322.640625 211.308594 L 319.832031 216.171875 L 320.390625 210.597656 L 317.589844 209.710938 L 315.46875 214.648438 L 316.183594 209.261719 L 313.128906 208.292969 L 310.453125 213.558594 L 311.121094 207.652344 L 308.148438 206.703125 L 305.4375 212.46875 L 306.332031 206.121094 L 303.792969 205.304688 L 301.292969 210.726562 L 302.21875 204.804688 L 300.035156 204.101562 L 296.929688 210.726562 L 298.019531 203.449219 L 295.59375 202.667969 L 292.566406 209.203125 L 293.667969 202.046875 L 291.542969 201.355469 L 288.421875 209.203125 L 289.035156 200.542969 C 288.160156 200.261719 287.300781 199.980469 286.445312 199.703125 L 283.621094 207.460938 L 285.125 199.269531 L 282.53125 198.425781 L 278.605469 206.371094 L 280.71875 197.832031 L 278.925781 197.246094 L 275.113281 205.28125 L 276.699219 196.515625 L 274.566406 195.816406 L 270.75 204.410156 L 272.417969 195.109375 L 270.234375 194.394531 L 266.171875 203.320312 L 267.542969 193.503906 L 265.257812 192.746094 L 261.152344 202.234375 L 262.777344 191.925781 L 260.757812 191.257812 L 256.792969 200.925781 L 258.605469 190.542969 L 256.757812 189.929688 L 252.429688 200.054688 L 254.578125 189.203125 L 252.789062 188.609375 L 248.285156 199.183594 L 250.527344 187.855469 L 248.636719 187.226562 L 243.703125 198.09375 L 245.449219 186.167969 L 243.59375 185.554688 L 239.339844 196.789062 L 241.242188 184.777344 L 239.429688 184.175781 L 234.976562 195.480469 L 236.773438 183.300781 L 234.902344 182.683594 L 230.179688 194.609375 L 232.269531 181.820312 L 230.488281 181.242188 L 225.160156 194.609375 L 227.949219 180.417969 L 226.355469 179.902344 L 220.796875 193.085938 L 223.015625 178.832031 L 221.292969 178.28125 L 216 191.777344 L 212.074219 190.6875 L 214.339844 176.109375 L 212.976562 175.695312 L 208.144531 189.601562 L 210.566406 174.960938 L 208.902344 174.464844 L 203.128906 188.730469 L 205.714844 173.527344 L 203.914062 173.007812 L 197.675781 187.640625 L 200.242188 171.980469 L 198.808594 171.589844 L 193.53125 186.550781 L 195.710938 170.769531 C 195.222656 170.640625 194.738281 170.515625 194.253906 170.394531 L 189.167969 185.460938 L 184.585938 184.15625 L 180.660156 182.847656 L 182.480469 167.730469 L 181.097656 167.46875 L 176.953125 181.542969 L 178.292969 166.980469 L 177.148438 166.796875 L 173.027344 182.195312 L 173.027344 166.226562 C 172.460938 166.160156 171.902344 166.097656 171.34375 166.039062 L 167.574219 181.105469 L 168.1875 165.769531 C 167.71875 165.734375 167.25 165.710938 166.789062 165.683594 L 162.773438 181.105469 L 164.015625 165.589844 C 163.613281 165.589844 163.210938 165.589844 162.816406 165.589844 L 158.410156 181.757812 L 158.410156 165.742188 C 157.929688 165.777344 157.449219 165.820312 156.976562 165.867188 L 153.394531 182.195312 L 152.644531 166.484375 C 152.136719 166.582031 151.632812 166.683594 151.136719 166.796875 L 148.59375 183.066406 L 146.539062 168.09375 C 146.039062 168.265625 145.542969 168.445312 145.054688 168.636719 L 144.015625 185.460938 L 141.394531 170.277344 C 140.730469 170.621094 140.070312 170.984375 139.417969 171.367188 L 138.125 188.730469 L 135.238281 174.1875 C 134.582031 174.683594 133.945312 175.199219 133.324219 175.730469 L 133.324219 190.6875 L 130.707031 178.164062 C 129.792969 179.09375 128.917969 180.050781 128.089844 181.042969 L 128.089844 195.480469 L 126.011719 183.71875 C 125.121094 184.945312 124.289062 186.207031 123.507812 187.511719 L 123.507812 200.707031 L 121.601562 190.949219 C 120.679688 192.75 119.839844 194.601562 119.089844 196.5 L 118.492188 205.28125 L 117.558594 200.707031 C 113.355469 213.417969 112.34375 227.300781 112.324219 238.46875 L 420.113281 240.960938 C 411.34375 238.394531 402.816406 235.871094 394.535156 233.398438 Z M 394.535156 233.398438 " fill-opacity="1" fill-rule="nonzero"/><path fill="#7d6c36" d="M 235.414062 306.703125 C 235.414062 306.703125 240.6875 335.207031 272.277344 337.078125 L 275.09375 326.515625 C 275.09375 326.515625 263.585938 320.828125 259.371094 313.367188 C 257.027344 309.226562 256.328125 304.753906 256.171875 301.605469 C 256.109375 300.253906 255.738281 298.933594 255.089844 297.746094 C 254.441406 296.554688 253.53125 295.53125 252.429688 294.742188 C 245.535156 289.835938 231.53125 279.363281 228.9375 273.46875 C 225.46875 265.585938 196.851562 275.953125 196.851562 275.953125 C 207.320312 288.875 220.476562 299.367188 235.414062 306.703125 Z M 235.414062 306.703125 " fill-opacity="1" fill-rule="nonzero"/><g clip-path="url(#166cab24da)"><path fill="#ddd71d" d="M 433.53125 247.339844 L 236.535156 278.957031 L 174.882812 276.066406 L 118.054688 273.382812 C 115.429688 273.261719 112.847656 272.683594 110.421875 271.671875 L 84.710938 260.941406 C 83.488281 260.441406 82.328125 259.808594 81.25 259.050781 C 76.515625 255.683594 73.265625 250.621094 72.179688 244.921875 C 72.101562 244.484375 72.046875 244.070312 72.007812 243.640625 L 69.453125 217.09375 C 69.289062 215.417969 68.699219 213.808594 67.730469 212.429688 C 66.761719 211.050781 65.453125 209.945312 63.929688 209.222656 L 62.648438 208.621094 C 60.742188 207.714844 58.597656 207.417969 56.515625 207.769531 C 54.433594 208.125 52.511719 209.109375 51.007812 210.59375 L 48.925781 212.648438 C 46.816406 214.726562 44.175781 216.1875 41.289062 216.867188 C 40.582031 217.035156 39.859375 217.117188 39.132812 217.117188 C 36.953125 217.128906 34.839844 216.378906 33.152344 215 C 31.464844 213.621094 30.3125 211.699219 29.890625 209.566406 C 29.46875 207.429688 29.804688 205.214844 30.839844 203.300781 C 31.875 201.386719 33.546875 199.890625 35.570312 199.074219 L 71.683594 184.25 C 78.398438 181.492188 86.203125 183.160156 91 188.605469 C 92.941406 190.808594 94.285156 193.476562 94.65625 196.367188 L 94.058594 212.03125 C 96.132812 220.558594 106.667969 223.648438 113.039062 217.605469 L 130.078125 197.132812 C 136.210938 191.3125 143.695312 187.105469 151.859375 184.886719 C 160.027344 182.671875 168.613281 182.519531 176.855469 184.4375 L 433.640625 244.210938 C 435.34375 244.609375 435.261719 247.0625 433.53125 247.339844 Z M 433.53125 247.339844 " fill-opacity="1" fill-rule="nonzero"/></g><path fill="#ebe777" d="M 174.882812 276.066406 L 118.054688 273.382812 C 115.429688 273.261719 112.847656 272.683594 110.421875 271.671875 L 84.710938 260.945312 C 83.488281 260.441406 82.328125 259.808594 81.25 259.050781 C 79.007812 257.460938 77.078125 255.472656 75.558594 253.183594 C 84.566406 251.382812 98.527344 249.917969 107.339844 255.363281 C 121.207031 263.941406 174.882812 276.066406 174.882812 276.066406 Z M 174.882812 276.066406 " fill-opacity="1" fill-rule="nonzero"/><g clip-path="url(#77825142da)"><path fill="#ddd71d" d="M 158.394531 226.101562 C 164.109375 253.054688 174.117188 278.917969 188.03125 302.707031 C 185.851562 310.546875 183.667969 318.378906 181.488281 326.207031 L 167.527344 322.085938 L 165.308594 334.824219 L 178.761719 338.652344 C 181.273438 339.351562 183.945312 339.230469 186.382812 338.304688 C 188.820312 337.382812 190.898438 335.707031 192.3125 333.523438 L 207.652344 309.863281 C 208.878906 307.964844 209.578125 305.769531 209.671875 303.511719 L 210.527344 284.539062 C 210.671875 281.246094 210.816406 277.957031 210.960938 274.667969 " fill-opacity="1" fill-rule="nonzero"/></g><path fill="#ddd71d" d="M 123.558594 252.125 C 119.660156 256.742188 116.695312 262.074219 114.832031 267.820312 C 114.273438 269.554688 113.816406 271.324219 113.46875 273.117188 C 112.9375 275.890625 111.40625 278.378906 109.164062 280.105469 C 108.273438 280.789062 107.460938 281.566406 106.738281 282.425781 C 100.851562 289.480469 103.707031 299.230469 104.019531 300.214844 C 106.964844 300.230469 109.945312 300.199219 112.890625 300.214844 C 114.015625 294.640625 116.078125 289.296875 118.988281 284.410156 C 122.660156 278.261719 126.75 274.457031 130.363281 271.144531 C 134.515625 267.335938 139.070312 263.992188 143.949219 261.175781 " fill-opacity="1" fill-rule="nonzero"/><path fill="#424242" d="M 69.179688 193.75 C 69.117188 194.070312 68.984375 194.371094 68.792969 194.636719 C 68.601562 194.898438 68.355469 195.117188 68.074219 195.277344 C 67.789062 195.4375 67.472656 195.535156 67.148438 195.5625 C 66.824219 195.589844 66.496094 195.546875 66.191406 195.433594 C 65.691406 195.292969 65.25 194.996094 64.929688 194.585938 C 64.707031 194.285156 64.554688 193.933594 64.480469 193.566406 C 64.40625 193.195312 64.414062 192.816406 64.503906 192.449219 C 64.617188 192.035156 64.835938 191.660156 65.144531 191.363281 C 65.449219 191.066406 65.828125 190.855469 66.238281 190.75 C 66.652344 190.644531 67.082031 190.648438 67.492188 190.757812 C 67.808594 190.855469 68.105469 191.015625 68.359375 191.226562 C 68.613281 191.441406 68.824219 191.699219 68.972656 191.996094 C 69.253906 192.539062 69.324219 193.160156 69.179688 193.75 Z M 69.179688 193.75 " fill-opacity="1" fill-rule="nonzero"/><path fill="#1a467f" d="M 211.25 118.109375 C 215.320312 118.109375 218.617188 114.816406 218.617188 110.753906 C 218.617188 106.691406 215.320312 103.398438 211.25 103.398438 C 207.183594 103.398438 203.882812 106.691406 203.882812 110.753906 C 203.882812 114.816406 207.183594 118.109375 211.25 118.109375 Z M 211.25 118.109375 " fill-opacity="1" fill-rule="nonzero"/><path fill="#424242" d="M 60.199219 272.527344 L 56.960938 274.542969 C 56.886719 274.589844 56.828125 274.660156 56.792969 274.742188 C 56.761719 274.824219 56.757812 274.914062 56.785156 275 C 56.808594 275.085938 56.859375 275.160156 56.933594 275.210938 C 57.003906 275.265625 57.089844 275.292969 57.179688 275.289062 L 60.203125 275.289062 L 58.460938 278.328125 C 58.417969 278.394531 58.402344 278.476562 58.40625 278.554688 C 58.410156 278.632812 58.441406 278.710938 58.488281 278.773438 C 58.539062 278.835938 58.605469 278.886719 58.679688 278.910156 C 58.757812 278.933594 58.839844 278.9375 58.914062 278.917969 L 62.136719 278.058594 L 61.015625 280.484375 C 60.980469 280.5625 60.96875 280.652344 60.988281 280.734375 C 61.003906 280.820312 61.050781 280.894531 61.113281 280.953125 C 61.175781 281.011719 61.257812 281.046875 61.34375 281.054688 C 61.429688 281.066406 61.515625 281.046875 61.589844 281.003906 L 65.191406 278.890625 C 63.527344 276.769531 61.863281 274.648438 60.199219 272.527344 Z M 60.199219 272.527344 " fill-opacity="1" fill-rule="nonzero"/><path fill="#424242" d="M 104.011719 300.214844 L 103.539062 304.492188 C 103.53125 304.578125 103.550781 304.664062 103.597656 304.738281 C 103.640625 304.816406 103.710938 304.871094 103.789062 304.90625 C 103.871094 304.9375 103.960938 304.945312 104.046875 304.921875 C 104.128906 304.902344 104.207031 304.851562 104.261719 304.785156 L 106.390625 302.109375 L 107.835938 305.722656 C 107.867188 305.796875 107.917969 305.859375 107.984375 305.902344 C 108.050781 305.945312 108.128906 305.972656 108.207031 305.972656 C 108.289062 305.972656 108.367188 305.945312 108.433594 305.902344 C 108.5 305.859375 108.550781 305.796875 108.582031 305.722656 L 110.066406 302.320312 L 111.429688 305.027344 C 111.46875 305.105469 111.53125 305.167969 111.609375 305.207031 C 111.683594 305.246094 111.773438 305.257812 111.855469 305.246094 C 111.941406 305.230469 112.019531 305.191406 112.082031 305.128906 C 112.140625 305.066406 112.179688 304.988281 112.191406 304.902344 C 112.421875 303.339844 112.667969 301.746094 112.886719 300.203125 C 109.949219 300.191406 106.949219 300.242188 104.011719 300.214844 Z M 104.011719 300.214844 " fill-opacity="1" fill-rule="nonzero"/><path fill="#424242" d="M 167.511719 322.085938 L 161.160156 320.625 C 161.039062 320.59375 160.90625 320.601562 160.789062 320.648438 C 160.671875 320.699219 160.574219 320.785156 160.511719 320.890625 C 160.445312 321 160.417969 321.128906 160.433594 321.253906 C 160.449219 321.378906 160.503906 321.496094 160.59375 321.589844 L 163.957031 325.160156 L 158.523438 326.46875 C 158.410156 326.496094 158.308594 326.554688 158.230469 326.636719 C 158.15625 326.722656 158.101562 326.828125 158.085938 326.941406 C 158.066406 327.054688 158.082031 327.167969 158.128906 327.273438 C 158.175781 327.378906 158.253906 327.464844 158.351562 327.527344 L 162.875 330.332031 L 158.75 331.707031 C 158.632812 331.746094 158.53125 331.820312 158.460938 331.921875 C 158.386719 332.023438 158.351562 332.144531 158.351562 332.265625 C 158.355469 332.386719 158.394531 332.507812 158.46875 332.605469 C 158.542969 332.703125 158.648438 332.777344 158.765625 332.8125 C 160.945312 333.464844 163.148438 334.207031 165.296875 334.832031 C 165.675781 332.828125 166.046875 330.796875 166.40625 328.734375 C 166.796875 326.492188 167.164062 324.273438 167.511719 322.085938 Z M 167.511719 322.085938 " fill-opacity="1" fill-rule="nonzero"/><path fill="#424242" d="M 271.773438 337.039062 L 277.09375 338.636719 C 277.195312 338.671875 277.300781 338.671875 277.402344 338.640625 C 277.503906 338.605469 277.59375 338.542969 277.652344 338.457031 C 277.714844 338.371094 277.746094 338.265625 277.742188 338.160156 C 277.742188 338.054688 277.703125 337.953125 277.636719 337.867188 L 275.058594 334.628906 L 279.71875 333.917969 C 279.8125 333.902344 279.902344 333.855469 279.972656 333.792969 C 280.039062 333.726562 280.089844 333.644531 280.113281 333.550781 C 280.136719 333.460938 280.132812 333.363281 280.101562 333.273438 C 280.070312 333.183594 280.011719 333.101562 279.9375 333.042969 L 276.328125 330.371094 L 279.894531 329.5 C 279.996094 329.472656 280.089844 329.417969 280.15625 329.339844 C 280.222656 329.257812 280.261719 329.160156 280.269531 329.054688 C 280.277344 328.953125 280.25 328.847656 280.195312 328.761719 C 280.140625 328.671875 280.054688 328.605469 279.960938 328.566406 C 278.171875 327.871094 276.367188 327.089844 274.609375 326.414062 C 274.148438 328.070312 273.695312 329.753906 273.25 331.460938 C 272.765625 333.3125 272.21875 335.222656 271.773438 337.039062 Z M 271.773438 337.039062 " fill-opacity="1" fill-rule="nonzero"/><path fill="#348bfe" d="M 206.402344 144.730469 L 216.789062 179.621094 C 217.253906 181.183594 217.347656 182.835938 217.0625 184.441406 C 216.777344 186.046875 216.121094 187.5625 215.144531 188.871094 C 214.164062 190.179688 212.898438 191.242188 211.4375 191.972656 C 209.976562 192.703125 208.367188 193.085938 206.734375 193.085938 L 182.1875 193.085938 L 191.917969 225.597656 C 192.398438 227.199219 192.402344 228.90625 191.929688 230.511719 C 191.460938 232.117188 190.53125 233.554688 189.261719 234.644531 L 178.699219 243.703125 C 177.65625 244.59375 176.339844 245.097656 174.972656 245.128906 C 173.601562 245.160156 172.265625 244.714844 171.1875 243.871094 C 170.707031 243.488281 170.308594 243.011719 170.011719 242.472656 C 169.71875 241.9375 169.53125 241.34375 169.46875 240.734375 C 169.402344 240.125 169.460938 239.507812 169.636719 238.921875 C 169.816406 238.332031 170.105469 237.785156 170.496094 237.3125 L 179.570312 226.191406 L 163.644531 195.125 C 162.6875 193.253906 162.332031 191.128906 162.628906 189.050781 C 162.925781 186.96875 163.859375 185.03125 165.304688 183.5 L 165.375 183.425781 C 166.789062 181.929688 168.695312 180.984375 170.746094 180.761719 L 191.507812 178.511719 L 179.570312 150.832031 L 158.410156 183.5 C 149.910156 184.789062 141.835938 188.074219 134.851562 193.085938 L 152.878906 171.382812 L 171.128906 137.839844 C 171.589844 137 172.222656 136.261719 172.992188 135.6875 C 173.757812 135.109375 174.640625 134.703125 175.582031 134.496094 L 199.140625 129.136719 C 200.617188 128.800781 202.15625 128.855469 203.605469 129.289062 L 237.8125 139.503906 C 242.902344 125.421875 247.992188 111.335938 253.082031 97.25 L 258.753906 111.410156 C 254.691406 123.160156 250.625 134.910156 246.558594 146.660156 C 245.898438 148.578125 244.542969 150.183594 242.761719 151.160156 C 240.980469 152.140625 238.898438 152.421875 236.921875 151.953125 Z M 206.402344 144.730469 " fill-opacity="1" fill-rule="nonzero"/><path fill="#348bfe" d="M 211.347656 102.894531 L 211.234375 115.09375 C 211.210938 117.363281 210.3125 119.539062 208.726562 121.164062 C 207.136719 122.789062 204.984375 123.742188 202.710938 123.824219 C 202.238281 123.839844 201.769531 123.816406 201.300781 123.757812 L 196.546875 123.160156 L 196.363281 136.207031 L 185.355469 137.09375 L 181.988281 103.203125 C 181.808594 102.101562 181.933594 100.972656 182.34375 99.9375 C 183.386719 97.410156 186.242188 95.761719 189.609375 95.660156 L 190.699219 95.605469 L 203.019531 95 C 206.195312 94.84375 209.21875 96.550781 210.582031 99.421875 C 211.097656 100.503906 211.359375 101.695312 211.347656 102.894531 Z M 211.347656 102.894531 " fill-opacity="1" fill-rule="nonzero"/><path fill="#ebe777" d="M 211.347656 105.195312 L 211.234375 115.78125 C 211.230469 116.128906 211.199219 116.480469 211.140625 116.824219 C 210.976562 117.691406 210.660156 118.523438 210.214844 119.285156 C 209.402344 120.59375 206.132812 122.078125 201.820312 121.644531 C 200.851562 121.464844 195.886719 120.453125 193.113281 115.925781 C 192.167969 114.371094 191.59375 112.617188 191.433594 110.804688 L 191.191406 106.835938 C 190.917969 102.449219 194.816406 98.707031 199.882812 98.492188 L 203.019531 98.359375 C 206.195312 98.222656 209.222656 99.703125 210.582031 102.191406 C 211.09375 103.113281 211.355469 104.144531 211.347656 105.195312 Z M 211.347656 105.195312 " fill-opacity="1" fill-rule="nonzero"/><path fill="#424242" d="M 208.488281 110.707031 C 208.5 111.25 208.949219 111.675781 209.492188 111.664062 C 210.035156 111.652344 210.464844 111.207031 210.453125 110.664062 L 210.433594 109.792969 C 210.421875 109.253906 209.972656 108.824219 209.429688 108.835938 C 208.886719 108.847656 208.457031 109.296875 208.46875 109.835938 Z M 208.488281 110.707031 " fill-opacity="1" fill-rule="nonzero"/><path fill="#424242" d="M 199.757812 110.8125 C 199.769531 111.355469 200.21875 111.785156 200.761719 111.773438 C 201.300781 111.761719 201.730469 111.3125 201.71875 110.769531 L 201.699219 109.898438 C 201.6875 109.359375 201.238281 108.929688 200.699219 108.941406 C 200.15625 108.953125 199.726562 109.402344 199.738281 109.941406 Z M 199.757812 110.8125 " fill-opacity="1" fill-rule="nonzero"/><path fill="#1a467f" d="M 280.171875 99.746094 C 281.675781 99.710938 282.871094 98.464844 282.835938 96.960938 C 282.800781 95.460938 281.554688 94.265625 280.050781 94.300781 L 259.769531 94.746094 C 258.261719 94.777344 257.070312 96.023438 257.101562 97.527344 C 257.132812 99.03125 258.382812 100.222656 259.886719 100.191406 Z M 280.171875 99.746094 " fill-opacity="1" fill-rule="nonzero"/><path fill="#1a467f" d="M 281.945312 91.125 C 283.4375 90.914062 284.476562 89.535156 284.265625 88.046875 C 284.054688 86.558594 282.675781 85.523438 281.183594 85.734375 L 261.097656 88.570312 C 259.605469 88.78125 258.566406 90.15625 258.777344 91.648438 C 258.988281 93.136719 260.367188 94.171875 261.859375 93.960938 Z M 281.945312 91.125 " fill-opacity="1" fill-rule="nonzero"/><path fill="#1a467f" d="M 196.550781 123.121094 L 190.878906 122.160156 C 190.785156 122.152344 190.691406 122.171875 190.609375 122.21875 C 190.527344 122.265625 190.464844 122.339844 190.425781 122.425781 C 190.390625 122.515625 190.382812 122.609375 190.40625 122.703125 C 190.429688 122.792969 190.484375 122.875 190.558594 122.933594 L 196.488281 127.175781 C 196.511719 125.824219 196.53125 124.472656 196.550781 123.121094 Z M 196.550781 123.121094 " fill-opacity="1" fill-rule="nonzero"/><path fill="#348bfe" d="M 176.464844 118.109375 C 180.535156 118.109375 183.832031 114.816406 183.832031 110.753906 C 183.832031 106.691406 180.535156 103.398438 176.464844 103.398438 C 172.398438 103.398438 169.097656 106.691406 169.097656 110.753906 C 169.097656 114.816406 172.398438 118.109375 176.464844 118.109375 Z M 176.464844 118.109375 " fill-opacity="1" fill-rule="nonzero"/><path fill="#348bfe" d="M 262.546875 87.621094 C 263.070312 86.210938 262.351562 84.644531 260.9375 84.121094 C 259.527344 83.597656 257.957031 84.316406 257.433594 85.726562 L 250.371094 104.714844 C 249.847656 106.125 250.566406 107.691406 251.980469 108.214844 C 253.390625 108.738281 254.960938 108.019531 255.484375 106.609375 Z M 262.546875 87.621094 " fill-opacity="1" fill-rule="nonzero"/><path fill="#348bfe" d="M 265.363281 85.691406 L 264.648438 85.425781 C 263.238281 84.902344 261.667969 85.621094 261.144531 87.03125 L 252.128906 111.273438 C 251.601562 112.683594 252.324219 114.25 253.734375 114.773438 L 254.449219 115.039062 C 255.859375 115.5625 257.429688 114.84375 257.953125 113.433594 L 266.96875 89.191406 C 267.492188 87.78125 266.773438 86.214844 265.363281 85.691406 Z M 265.363281 85.691406 " fill-opacity="1" fill-rule="nonzero"/><path fill="#348bfe" d="M 280.492188 84.339844 C 281.949219 83.972656 282.835938 82.492188 282.464844 81.035156 C 282.097656 79.574219 280.613281 78.691406 279.152344 79.0625 L 259.484375 84.027344 C 258.027344 84.394531 257.140625 85.875 257.511719 87.335938 C 257.878906 88.792969 259.363281 89.675781 260.824219 89.304688 Z M 280.492188 84.339844 " fill-opacity="1" fill-rule="nonzero"/><path fill="#348bfe" d="M 209.558594 105.746094 C 208.863281 105.746094 208.199219 106.023438 207.707031 106.511719 C 207.214844 107 206.941406 107.667969 206.941406 108.359375 L 212.175781 108.359375 C 212.175781 107.667969 211.898438 107 211.410156 106.511719 C 210.917969 106.023438 210.253906 105.746094 209.558594 105.746094 Z M 209.558594 105.746094 " fill-opacity="1" fill-rule="nonzero"/><path fill="#348bfe" d="M 272.40625 70.675781 C 273.160156 69.375 272.710938 67.707031 271.40625 66.957031 C 270.101562 66.203125 268.433594 66.652344 267.683594 67.953125 L 257.539062 85.496094 C 256.785156 86.796875 257.234375 88.460938 258.535156 89.214844 C 259.839844 89.964844 261.507812 89.519531 262.261719 88.21875 Z M 272.40625 70.675781 " fill-opacity="1" fill-rule="nonzero"/><path fill="#1a467f" d="M 191.566406 178.492188 L 200.644531 177.988281 C 200.71875 177.984375 200.789062 177.953125 200.84375 177.902344 C 200.898438 177.847656 200.929688 177.777344 200.933594 177.703125 C 200.9375 177.628906 200.914062 177.554688 200.867188 177.496094 C 200.820312 177.4375 200.753906 177.398438 200.679688 177.386719 L 190.257812 175.632812 Z M 191.566406 178.492188 " fill-opacity="1" fill-rule="nonzero"/><path fill="#1a467f" d="M 206.109375 103.609375 L 208.144531 113.585938 C 208.179688 113.746094 208.175781 113.910156 208.136719 114.066406 C 208.097656 114.222656 208.023438 114.371094 207.921875 114.496094 C 207.816406 114.621094 207.6875 114.722656 207.542969 114.789062 C 207.394531 114.859375 207.234375 114.894531 207.074219 114.894531 L 205.746094 114.894531 C 205.59375 114.894531 205.445312 114.863281 205.304688 114.804688 C 205.167969 114.742188 205.042969 114.652344 204.941406 114.542969 C 204.835938 114.429688 204.757812 114.300781 204.710938 114.15625 C 204.660156 114.011719 204.644531 113.863281 204.65625 113.710938 L 205.480469 103.644531 C 205.492188 103.570312 205.527344 103.503906 205.582031 103.453125 C 205.632812 103.402344 205.707031 103.371094 205.777344 103.367188 C 205.855469 103.363281 205.925781 103.386719 205.988281 103.429688 C 206.046875 103.472656 206.089844 103.535156 206.109375 103.609375 Z M 206.109375 103.609375 " fill-opacity="1" fill-rule="nonzero"/><path fill="#ebe777" d="M 176.296875 114.457031 C 178.347656 114.457031 180.007812 112.800781 180.007812 110.753906 C 180.007812 108.710938 178.347656 107.050781 176.296875 107.050781 C 174.25 107.050781 172.589844 108.710938 172.589844 110.753906 C 172.589844 112.800781 174.25 114.457031 176.296875 114.457031 Z M 176.296875 114.457031 " fill-opacity="1" fill-rule="nonzero"/><path fill="#348bfe" d="M 200.613281 105.746094 C 199.917969 105.746094 199.253906 106.023438 198.761719 106.511719 C 198.273438 107 197.996094 107.667969 197.996094 108.359375 L 203.230469 108.359375 C 203.230469 107.667969 202.957031 107 202.464844 106.511719 C 201.972656 106.023438 201.308594 105.746094 200.613281 105.746094 Z M 200.613281 105.746094 " fill-opacity="1" fill-rule="nonzero"/><g clip-path="url(#a0dc179aa7)"><path fill="#ddd71d" d="M 442.207031 20.800781 L 363.679688 64.363281 L 359.753906 46.066406 L 325.066406 89.964844 L 349.367188 123.21875 L 379.101562 151.734375 L 415.160156 99.429688 L 404.253906 100.082031 Z M 442.207031 20.800781 " fill-opacity="1" fill-rule="nonzero"/></g><path fill="#000000" d="M 353.089844 82.222656 C 330.402344 80.171875 310.363281 96.863281 308.308594 119.507812 C 308.285156 119.753906 308.269531 120 308.253906 120.25 C 309.273438 119.921875 310.359375 119.824219 311.421875 119.96875 C 312.488281 120.113281 313.507812 120.492188 314.40625 121.082031 C 315.300781 121.671875 316.058594 122.453125 316.613281 123.371094 C 317.171875 124.289062 317.515625 125.316406 317.621094 126.386719 C 317.726562 127.453125 317.589844 128.53125 317.222656 129.539062 C 316.859375 130.546875 316.269531 131.460938 315.503906 132.214844 C 314.738281 132.964844 313.816406 133.539062 312.800781 133.886719 C 311.785156 134.238281 310.703125 134.355469 309.636719 134.230469 C 311.878906 142.289062 316.527344 149.476562 322.960938 154.832031 C 329.394531 160.1875 337.308594 163.460938 345.652344 164.21875 C 368.339844 166.265625 388.375 149.574219 390.429688 126.929688 C 392.480469 104.289062 375.761719 84.269531 353.089844 82.222656 Z M 353.089844 82.222656 " fill-opacity="1" fill-rule="nonzero"/><path fill="#ffffff" d="M 356.480469 131.882812 C 360.457031 131.882812 363.679688 128.664062 363.679688 124.695312 C 363.679688 120.726562 360.457031 117.507812 356.480469 117.507812 C 352.503906 117.507812 349.28125 120.726562 349.28125 124.695312 C 349.28125 128.664062 352.503906 131.882812 356.480469 131.882812 Z M 356.480469 131.882812 " fill-opacity="1" fill-rule="nonzero"/><path fill="#ffffff" d="M 363.460938 123.386719 C 371.289062 123.386719 377.640625 117.050781 377.640625 109.230469 C 377.640625 101.410156 371.289062 95.074219 363.460938 95.074219 C 355.628906 95.074219 349.28125 101.410156 349.28125 109.230469 C 349.28125 117.050781 355.628906 123.386719 363.460938 123.386719 Z M 363.460938 123.386719 " fill-opacity="1" fill-rule="nonzero"/></svg>