<svg xmlns="http://www.w3.org/2000/svg" xmlns:xlink="http://www.w3.org/1999/xlink" width="140" zoomAndPan="magnify" viewBox="0 0 104.88 37.5" height="50" preserveAspectRatio="xMidYMid meet" version="1.0"><defs><g/><clipPath id="2fd6b34d71"><path d="M 14.667969 15.664062 L 17.132812 15.664062 L 17.132812 19.628906 L 14.667969 19.628906 Z M 14.667969 15.664062 " clip-rule="nonzero"/></clipPath><clipPath id="6b2fff6493"><path d="M 15.902344 15.664062 L 17.132812 19.621094 L 14.667969 19.621094 Z M 15.902344 15.664062 " clip-rule="nonzero"/></clipPath><clipPath id="fab867ddc4"><path d="M 2.480469 2.957031 L 29.125 2.957031 L 29.125 32.25 L 2.480469 32.25 Z M 2.480469 2.957031 " clip-rule="nonzero"/></clipPath><clipPath id="69ada452bb"><path d="M 14.875 15.589844 L 16.925781 15.589844 L 16.925781 17.640625 L 14.875 17.640625 Z M 14.875 15.589844 " clip-rule="nonzero"/></clipPath><clipPath id="7bb50170bb"><path d="M 15.902344 15.589844 C 15.335938 15.589844 14.875 16.050781 14.875 16.617188 C 14.875 17.183594 15.335938 17.640625 15.902344 17.640625 C 16.46875 17.640625 16.925781 17.183594 16.925781 16.617188 C 16.925781 16.050781 16.46875 15.589844 15.902344 15.589844 Z M 15.902344 15.589844 " clip-rule="nonzero"/></clipPath></defs><g fill="#000000" fill-opacity="1"><g transform="translate(35.214202, 24.497908)"><g><path d="M 9.328125 -8.390625 L 9.328125 -13.0625 L 0.9375 -13.0625 L 0.9375 -14.921875 L 9.328125 -14.921875 C 10.566406 -14.921875 11.1875 -14.300781 11.1875 -13.0625 L 11.1875 -8.390625 C 11.1875 -7.148438 10.566406 -6.53125 9.328125 -6.53125 L 2.796875 -6.53125 L 2.796875 0 L 0.9375 0 L 0.9375 -8.390625 Z M 9.328125 -8.390625 "/></g></g></g><g fill="#000000" fill-opacity="1"><g transform="translate(47.341046, 24.497908)"><g><path d="M 2.796875 0 C 1.554688 0 0.9375 -0.617188 0.9375 -1.859375 L 0.9375 -14.921875 L 2.796875 -14.921875 L 2.796875 -1.859375 L 15.859375 -1.859375 L 15.859375 -14.921875 L 17.71875 -14.921875 L 17.71875 -1.859375 C 17.71875 -0.617188 17.097656 0 15.859375 0 Z M 8.390625 -3.734375 L 8.390625 -14.921875 L 10.265625 -14.921875 L 10.265625 -3.734375 Z M 8.390625 -3.734375 "/></g></g></g><g fill="#000000" fill-opacity="1"><g transform="translate(65.997723, 24.497908)"><g><path d="M 0.9375 -13.0625 C 0.9375 -14.300781 1.554688 -14.921875 2.796875 -14.921875 L 9.328125 -14.921875 C 10.566406 -14.921875 11.1875 -14.300781 11.1875 -13.0625 L 11.1875 0 L 9.328125 0 L 9.328125 -13.0625 L 2.796875 -13.0625 L 2.796875 0 L 0.9375 0 Z M 0.9375 -13.0625 "/></g></g></g><g fill="#000000" fill-opacity="1"><g transform="translate(78.124566, 24.497908)"><g><path d="M 11.1875 -14.921875 L 11.1875 -13.0625 L 0.9375 -13.0625 L 0.9375 -14.921875 Z M 0.9375 0 L 0.9375 -1.859375 L 11.1875 -1.859375 L 11.1875 0 Z M 0.9375 -3.734375 L 0.9375 -5.59375 L 9.328125 -5.59375 L 9.328125 -3.734375 Z M 0.9375 -3.734375 "/></g></g></g><g fill="#000000" fill-opacity="1"><g transform="translate(90.25141, 24.497908)"><g><path d="M 2.796875 0 C 1.554688 0 0.9375 -0.617188 0.9375 -1.859375 L 0.9375 -14.921875 L 2.796875 -14.921875 L 2.796875 -1.859375 L 9.328125 -1.859375 L 9.328125 -14.921875 L 11.1875 -14.921875 L 11.1875 -1.859375 C 11.1875 -0.617188 10.566406 0 9.328125 0 Z M 2.796875 0 "/></g></g></g><g clip-path="url(#2fd6b34d71)"><g clip-path="url(#6b2fff6493)"><path fill="#000000" d="M 14.667969 15.664062 L 17.132812 15.664062 L 17.132812 19.621094 L 14.667969 19.621094 Z M 14.667969 15.664062 " fill-opacity="1" fill-rule="nonzero"/></g></g><g clip-path="url(#fab867ddc4)"><path fill="#319407" d="M 28.039062 26.054688 L 17.132812 32.230469 C 16.753906 32.449219 16.324219 32.554688 15.894531 32.554688 C 15.46875 32.554688 15.039062 32.449219 14.660156 32.230469 L 3.753906 26.054688 C 2.96875 25.609375 2.480469 24.769531 2.480469 23.867188 L 2.480469 11.636719 C 2.480469 10.75 2.957031 9.917969 3.726562 9.46875 L 14.632812 3.109375 C 15.410156 2.652344 16.378906 2.652344 17.160156 3.109375 L 28.066406 9.46875 C 28.835938 9.917969 29.3125 10.75 29.3125 11.636719 L 29.3125 21.335938 L 27.523438 19.945312 L 27.523438 11.636719 C 27.523438 11.382812 27.386719 11.140625 27.164062 11.011719 L 16.261719 4.652344 C 16.035156 4.523438 15.757812 4.523438 15.53125 4.652344 L 14.769531 5.097656 L 16.3125 7.78125 C 20.339844 7.949219 23.753906 10.535156 25.132812 14.125 C 25.351562 14.695312 25.519531 15.292969 25.628906 15.910156 L 20.039062 15.910156 C 19.378906 14.269531 17.773438 13.105469 15.894531 13.105469 C 13.4375 13.105469 11.4375 15.105469 11.4375 17.5625 C 11.4375 20.023438 13.4375 22.023438 15.894531 22.023438 C 16.777344 22.023438 17.597656 21.765625 18.289062 21.324219 L 20.878906 21.324219 C 19.738281 22.832031 17.929688 23.808594 15.894531 23.808594 C 15.0625 23.808594 14.265625 23.644531 13.535156 23.347656 L 12.523438 25.03125 C 13.550781 25.503906 14.695312 25.765625 15.898438 25.765625 C 19.042969 25.765625 21.773438 23.960938 23.117188 21.335938 L 29.3125 21.335938 L 29.3125 23.867188 C 29.3125 24.769531 28.824219 25.609375 28.039062 26.054688 Z M 21.105469 14.125 L 23.183594 14.125 C 21.867188 11.425781 19.097656 9.558594 15.894531 9.558594 C 15.695312 9.558594 15.492188 9.570312 15.292969 9.585938 L 15.046875 9.15625 L 15.042969 9.160156 L 13.226562 5.996094 L 13.222656 6 L 12.332031 4.453125 L 11.964844 6.730469 L 4.625 11.011719 C 4.40625 11.144531 4.269531 11.382812 4.269531 11.636719 L 4.269531 23.867188 C 4.269531 24.128906 4.410156 24.371094 4.632812 24.5 L 5.378906 24.917969 L 7.0625 22.101562 C 6.386719 20.765625 6.007812 19.257812 6.007812 17.664062 C 6.007812 13.730469 8.316406 10.324219 11.648438 8.734375 L 12.539062 10.289062 L 13.421875 11.828125 C 14.183594 11.5 15.019531 11.316406 15.898438 11.316406 C 18.070312 11.316406 19.988281 12.433594 21.105469 14.125 Z M 24.136719 23.121094 C 22.363281 25.789062 19.332031 27.550781 15.894531 27.550781 C 13.71875 27.550781 11.707031 26.84375 10.070312 25.648438 L 10.472656 24.976562 L 10.472656 24.972656 L 11.996094 22.441406 C 10.566406 21.292969 9.648438 19.535156 9.648438 17.5625 C 9.648438 15.636719 10.527344 13.910156 11.902344 12.765625 L 11.007812 11.207031 C 9.054688 12.6875 7.792969 15.03125 7.792969 17.664062 C 7.792969 19.308594 8.285156 20.835938 9.132812 22.117188 L 8.941406 22.4375 L 6.464844 26.585938 L 6.457031 26.582031 L 6.007812 27.328125 L 8.101562 26.460938 L 15.539062 30.675781 C 15.757812 30.800781 16.03125 30.800781 16.253906 30.675781 L 27.15625 24.5 C 27.382812 24.371094 27.523438 24.128906 27.523438 23.867188 L 27.523438 23.121094 Z M 24.136719 23.121094 " fill-opacity="1" fill-rule="nonzero"/></g><g clip-path="url(#69ada452bb)"><g clip-path="url(#7bb50170bb)"><path fill="#000000" d="M 14.875 15.589844 L 16.925781 15.589844 L 16.925781 17.640625 L 14.875 17.640625 Z M 14.875 15.589844 " fill-opacity="1" fill-rule="nonzero"/></g></g></svg>