<svg xmlns="http://www.w3.org/2000/svg" xmlns:xlink="http://www.w3.org/1999/xlink" width="40" zoomAndPan="magnify" viewBox="0 0 30 30.000001" height="40" preserveAspectRatio="xMidYMid meet" version="1.0"><defs><clipPath id="5e2c6a1390"><path d="M 4.667969 23 L 24.992188 23 L 24.992188 24.414062 L 4.667969 24.414062 Z M 4.667969 23 " clip-rule="nonzero"/></clipPath><clipPath id="76ba50caf5"><path d="M 6 16 L 10 16 L 10 24.414062 L 6 24.414062 Z M 6 16 " clip-rule="nonzero"/></clipPath><clipPath id="afe0937c1c"><path d="M 11 13 L 15 13 L 15 24.414062 L 11 24.414062 Z M 11 13 " clip-rule="nonzero"/></clipPath><clipPath id="a68bcdd285"><path d="M 15 17 L 20 17 L 20 24.414062 L 15 24.414062 Z M 15 17 " clip-rule="nonzero"/></clipPath><clipPath id="96b91de5e0"><path d="M 20 11 L 24.992188 11 L 24.992188 24.414062 L 20 24.414062 Z M 20 11 " clip-rule="nonzero"/></clipPath><clipPath id="b68d5698cb"><path d="M 21 4.816406 L 24 4.816406 L 24 8 L 21 8 Z M 21 4.816406 " clip-rule="nonzero"/></clipPath></defs><g clip-path="url(#5e2c6a1390)"><path fill="#ffffff" d="M 25.007812 24.210938 L 4.988281 24.210938 C 4.902344 24.210938 4.832031 24.183594 4.769531 24.121094 C 4.707031 24.058594 4.675781 23.984375 4.675781 23.898438 C 4.675781 23.8125 4.707031 23.738281 4.769531 23.679688 C 4.832031 23.617188 4.902344 23.585938 4.988281 23.585938 L 25.007812 23.585938 C 25.09375 23.585938 25.167969 23.617188 25.230469 23.679688 C 25.289062 23.738281 25.320312 23.8125 25.320312 23.898438 C 25.320312 23.984375 25.289062 24.058594 25.230469 24.121094 C 25.167969 24.183594 25.09375 24.210938 25.007812 24.210938 Z M 25.007812 24.210938 " fill-opacity="1" fill-rule="nonzero"/></g><g clip-path="url(#76ba50caf5)"><path fill="#ffffff" d="M 9.179688 24.210938 L 6.503906 24.210938 C 6.417969 24.210938 6.34375 24.183594 6.28125 24.121094 C 6.222656 24.058594 6.191406 23.984375 6.191406 23.898438 L 6.191406 16.765625 C 6.191406 16.679688 6.222656 16.605469 6.28125 16.542969 C 6.34375 16.484375 6.417969 16.453125 6.503906 16.453125 L 9.179688 16.453125 C 9.269531 16.453125 9.339844 16.484375 9.402344 16.542969 C 9.464844 16.605469 9.496094 16.679688 9.496094 16.765625 L 9.496094 23.898438 C 9.496094 23.984375 9.464844 24.058594 9.402344 24.121094 C 9.339844 24.183594 9.269531 24.210938 9.179688 24.210938 Z M 6.816406 23.585938 L 8.867188 23.585938 L 8.867188 17.078125 L 6.816406 17.078125 Z M 6.816406 23.585938 " fill-opacity="1" fill-rule="nonzero"/></g><g clip-path="url(#afe0937c1c)"><path fill="#ffffff" d="M 14.039062 24.210938 L 11.363281 24.210938 C 11.277344 24.210938 11.203125 24.183594 11.144531 24.121094 C 11.082031 24.058594 11.050781 23.984375 11.050781 23.898438 L 11.050781 13.695312 C 11.050781 13.605469 11.082031 13.535156 11.144531 13.472656 C 11.203125 13.410156 11.277344 13.382812 11.363281 13.382812 L 14.039062 13.382812 C 14.125 13.382812 14.199219 13.410156 14.261719 13.472656 C 14.320312 13.535156 14.351562 13.605469 14.351562 13.695312 L 14.351562 23.898438 C 14.351562 23.984375 14.320312 24.058594 14.261719 24.121094 C 14.199219 24.183594 14.125 24.210938 14.039062 24.210938 Z M 11.675781 23.585938 L 13.726562 23.585938 L 13.726562 14.007812 L 11.675781 14.007812 Z M 11.675781 23.585938 " fill-opacity="1" fill-rule="nonzero"/></g><g clip-path="url(#a68bcdd285)"><path fill="#ffffff" d="M 18.898438 24.210938 L 16.226562 24.210938 C 16.140625 24.210938 16.066406 24.183594 16.003906 24.121094 C 15.941406 24.058594 15.914062 23.984375 15.914062 23.898438 L 15.914062 17.804688 C 15.914062 17.71875 15.941406 17.644531 16.003906 17.582031 C 16.066406 17.519531 16.140625 17.492188 16.226562 17.492188 L 18.898438 17.492188 C 18.984375 17.492188 19.058594 17.519531 19.121094 17.582031 C 19.183594 17.644531 19.210938 17.71875 19.210938 17.804688 L 19.210938 23.898438 C 19.210938 23.984375 19.183594 24.058594 19.121094 24.121094 C 19.058594 24.183594 18.984375 24.210938 18.898438 24.210938 Z M 16.539062 23.585938 L 18.585938 23.585938 L 18.585938 18.117188 L 16.539062 18.117188 Z M 16.539062 23.585938 " fill-opacity="1" fill-rule="nonzero"/></g><g clip-path="url(#96b91de5e0)"><path fill="#ffffff" d="M 23.757812 24.210938 L 21.085938 24.210938 C 21 24.210938 20.925781 24.183594 20.863281 24.121094 C 20.804688 24.058594 20.773438 23.984375 20.773438 23.898438 L 20.773438 11.636719 C 20.773438 11.550781 20.804688 11.476562 20.863281 11.414062 C 20.925781 11.351562 21 11.324219 21.085938 11.324219 L 23.757812 11.324219 C 23.84375 11.324219 23.917969 11.351562 23.976562 11.414062 C 24.039062 11.476562 24.070312 11.550781 24.070312 11.636719 L 24.070312 23.898438 C 24.070312 23.984375 24.039062 24.058594 23.976562 24.121094 C 23.917969 24.183594 23.84375 24.210938 23.757812 24.210938 Z M 21.394531 23.585938 L 23.445312 23.585938 L 23.445312 11.949219 L 21.398438 11.949219 Z M 21.394531 23.585938 " fill-opacity="1" fill-rule="nonzero"/></g><g clip-path="url(#b68d5698cb)"><path fill="#ffffff" d="M 22.421875 7.621094 C 22.242188 7.621094 22.070312 7.585938 21.90625 7.519531 C 21.742188 7.453125 21.597656 7.355469 21.46875 7.230469 C 21.34375 7.105469 21.246094 6.960938 21.175781 6.792969 C 21.109375 6.628906 21.074219 6.457031 21.074219 6.28125 C 21.074219 6.101562 21.105469 5.929688 21.175781 5.765625 C 21.242188 5.601562 21.339844 5.457031 21.464844 5.328125 C 21.589844 5.203125 21.738281 5.105469 21.902344 5.039062 C 22.066406 4.96875 22.238281 4.9375 22.414062 4.9375 C 22.59375 4.9375 22.765625 4.96875 22.929688 5.039062 C 23.09375 5.105469 23.238281 5.203125 23.367188 5.328125 C 23.492188 5.457031 23.589844 5.601562 23.65625 5.765625 C 23.722656 5.929688 23.757812 6.101562 23.757812 6.28125 C 23.757812 6.457031 23.722656 6.628906 23.65625 6.792969 C 23.589844 6.957031 23.492188 7.101562 23.367188 7.226562 C 23.242188 7.351562 23.097656 7.449219 22.933594 7.515625 C 22.769531 7.585938 22.597656 7.617188 22.421875 7.621094 Z M 22.421875 5.5625 C 22.222656 5.5625 22.054688 5.632812 21.914062 5.769531 C 21.769531 5.910156 21.699219 6.078125 21.699219 6.277344 C 21.699219 6.476562 21.765625 6.644531 21.90625 6.785156 C 22.046875 6.925781 22.214844 6.996094 22.414062 6.996094 C 22.613281 6.996094 22.78125 6.929688 22.921875 6.789062 C 23.0625 6.648438 23.132812 6.480469 23.132812 6.28125 C 23.132812 6.085938 23.0625 5.917969 22.925781 5.777344 C 22.785156 5.636719 22.617188 5.566406 22.421875 5.5625 Z M 22.421875 5.5625 " fill-opacity="1" fill-rule="nonzero"/></g><path fill="#ffffff" d="M 17.5625 14.261719 C 17.386719 14.261719 17.214844 14.230469 17.050781 14.160156 C 16.886719 14.09375 16.738281 13.996094 16.613281 13.871094 C 16.488281 13.746094 16.390625 13.601562 16.320312 13.4375 C 16.253906 13.273438 16.21875 13.101562 16.21875 12.921875 C 16.21875 12.746094 16.253906 12.574219 16.320312 12.410156 C 16.386719 12.246094 16.484375 12.097656 16.609375 11.972656 C 16.738281 11.847656 16.882812 11.75 17.046875 11.683594 C 17.210938 11.613281 17.382812 11.578125 17.558594 11.578125 C 17.738281 11.578125 17.910156 11.613281 18.074219 11.679688 C 18.238281 11.75 18.382812 11.847656 18.507812 11.972656 C 18.636719 12.097656 18.734375 12.242188 18.800781 12.40625 C 18.867188 12.570312 18.902344 12.742188 18.902344 12.921875 C 18.902344 13.097656 18.867188 13.269531 18.800781 13.433594 C 18.734375 13.597656 18.636719 13.742188 18.511719 13.867188 C 18.386719 13.996094 18.242188 14.089844 18.078125 14.160156 C 17.914062 14.226562 17.742188 14.261719 17.5625 14.261719 Z M 17.5625 12.207031 C 17.367188 12.207031 17.195312 12.277344 17.054688 12.417969 C 16.914062 12.554688 16.84375 12.726562 16.84375 12.921875 C 16.84375 13.121094 16.914062 13.289062 17.054688 13.429688 C 17.195312 13.570312 17.363281 13.640625 17.5625 13.640625 C 17.761719 13.640625 17.929688 13.570312 18.070312 13.429688 C 18.207031 13.289062 18.277344 13.121094 18.277344 12.921875 C 18.277344 12.726562 18.207031 12.558594 18.066406 12.417969 C 17.925781 12.28125 17.761719 12.210938 17.5625 12.210938 Z M 17.5625 12.207031 " fill-opacity="1" fill-rule="nonzero"/><path fill="#ffffff" d="M 12.703125 10.46875 C 12.523438 10.46875 12.355469 10.4375 12.1875 10.367188 C 12.023438 10.300781 11.878906 10.203125 11.753906 10.078125 C 11.625 9.953125 11.53125 9.804688 11.460938 9.640625 C 11.394531 9.476562 11.359375 9.304688 11.359375 9.128906 C 11.359375 8.949219 11.390625 8.777344 11.460938 8.613281 C 11.527344 8.449219 11.625 8.304688 11.75 8.179688 C 11.878906 8.050781 12.023438 7.957031 12.1875 7.886719 C 12.351562 7.820312 12.523438 7.785156 12.703125 7.785156 C 12.878906 7.785156 13.050781 7.820312 13.214844 7.886719 C 13.378906 7.957031 13.523438 8.054688 13.652344 8.179688 C 13.777344 8.304688 13.875 8.453125 13.941406 8.617188 C 14.007812 8.78125 14.042969 8.953125 14.042969 9.128906 C 14.042969 9.308594 14.007812 9.476562 13.9375 9.640625 C 13.871094 9.804688 13.773438 9.949219 13.648438 10.074219 C 13.523438 10.203125 13.378906 10.296875 13.214844 10.367188 C 13.050781 10.433594 12.878906 10.46875 12.703125 10.46875 Z M 12.703125 8.414062 C 12.503906 8.414062 12.335938 8.480469 12.195312 8.621094 C 12.054688 8.761719 11.984375 8.929688 11.984375 9.128906 C 11.984375 9.324219 12.054688 9.496094 12.191406 9.636719 C 12.332031 9.777344 12.5 9.847656 12.699219 9.847656 C 12.898438 9.847656 13.066406 9.777344 13.207031 9.636719 C 13.347656 9.496094 13.417969 9.328125 13.417969 9.128906 C 13.414062 8.933594 13.347656 8.765625 13.207031 8.625 C 13.066406 8.484375 12.898438 8.414062 12.703125 8.414062 Z M 12.703125 8.414062 " fill-opacity="1" fill-rule="nonzero"/><path fill="#ffffff" d="M 7.84375 13.921875 C 7.664062 13.921875 7.492188 13.886719 7.328125 13.820312 C 7.164062 13.75 7.019531 13.65625 6.894531 13.527344 C 6.769531 13.402344 6.671875 13.257812 6.601562 13.09375 C 6.535156 12.929688 6.5 12.757812 6.5 12.578125 C 6.5 12.402344 6.535156 12.230469 6.605469 12.066406 C 6.671875 11.902344 6.769531 11.757812 6.894531 11.628906 C 7.019531 11.503906 7.167969 11.40625 7.332031 11.339844 C 7.496094 11.273438 7.667969 11.238281 7.84375 11.238281 C 8.023438 11.238281 8.195312 11.273438 8.359375 11.339844 C 8.523438 11.410156 8.667969 11.507812 8.792969 11.632812 C 8.917969 11.757812 9.015625 11.90625 9.082031 12.070312 C 9.152344 12.234375 9.183594 12.40625 9.183594 12.582031 C 9.183594 12.761719 9.148438 12.933594 9.082031 13.097656 C 9.011719 13.261719 8.917969 13.40625 8.789062 13.53125 C 8.664062 13.65625 8.519531 13.753906 8.355469 13.820312 C 8.191406 13.886719 8.019531 13.921875 7.84375 13.921875 Z M 7.84375 11.867188 C 7.644531 11.867188 7.476562 11.9375 7.335938 12.078125 C 7.195312 12.214844 7.125 12.386719 7.125 12.582031 C 7.125 12.78125 7.195312 12.949219 7.335938 13.089844 C 7.476562 13.230469 7.644531 13.300781 7.84375 13.300781 C 8.039062 13.300781 8.210938 13.230469 8.347656 13.089844 C 8.488281 12.949219 8.558594 12.78125 8.558594 12.582031 C 8.558594 12.386719 8.488281 12.21875 8.347656 12.078125 C 8.207031 11.9375 8.039062 11.867188 7.84375 11.867188 Z M 7.84375 11.867188 " fill-opacity="1" fill-rule="nonzero"/><path fill="#ffffff" d="M 18.085938 12.355469 C 18.015625 12.355469 17.949219 12.332031 17.890625 12.289062 C 17.824219 12.234375 17.785156 12.167969 17.773438 12.078125 C 17.761719 11.992188 17.785156 11.917969 17.839844 11.847656 L 21.636719 6.960938 C 21.6875 6.894531 21.757812 6.855469 21.84375 6.84375 C 21.929688 6.832031 22.007812 6.855469 22.074219 6.90625 C 22.144531 6.960938 22.183594 7.027344 22.195312 7.113281 C 22.207031 7.203125 22.183594 7.277344 22.128906 7.347656 L 18.332031 12.234375 C 18.269531 12.3125 18.1875 12.355469 18.085938 12.355469 Z M 18.085938 12.355469 " fill-opacity="1" fill-rule="nonzero"/><path fill="#ffffff" d="M 16.667969 12.730469 C 16.597656 12.730469 16.53125 12.707031 16.476562 12.660156 L 13.246094 10.085938 C 13.175781 10.03125 13.136719 9.960938 13.125 9.875 C 13.113281 9.785156 13.136719 9.707031 13.191406 9.636719 C 13.246094 9.570312 13.316406 9.53125 13.40625 9.523438 C 13.492188 9.515625 13.570312 9.539062 13.640625 9.597656 L 16.875 12.171875 C 16.992188 12.265625 17.023438 12.382812 16.976562 12.523438 C 16.925781 12.660156 16.828125 12.730469 16.679688 12.730469 Z M 16.667969 12.730469 " fill-opacity="1" fill-rule="nonzero"/><path fill="#ffffff" d="M 8.871094 12.519531 C 8.726562 12.519531 8.628906 12.453125 8.578125 12.316406 C 8.523438 12.179688 8.554688 12.066406 8.664062 11.96875 L 11.582031 9.371094 C 11.648438 9.3125 11.722656 9.289062 11.808594 9.292969 C 11.898438 9.296875 11.96875 9.332031 12.027344 9.398438 C 12.082031 9.460938 12.109375 9.539062 12.105469 9.625 C 12.097656 9.710938 12.0625 9.78125 12 9.839844 L 9.078125 12.4375 C 9.019531 12.492188 8.949219 12.515625 8.871094 12.519531 Z M 8.871094 12.519531 " fill-opacity="1" fill-rule="nonzero"/></svg>