<svg xmlns="http://www.w3.org/2000/svg" xmlns:xlink="http://www.w3.org/1999/xlink" width="40" zoomAndPan="magnify" viewBox="0 0 30 30.000001" height="40" preserveAspectRatio="xMidYMid meet" version="1.0"><defs><clipPath id="3a3d817dd9"><path d="M 5.257812 2.902344 L 24.855469 2.902344 L 24.855469 26.128906 L 5.257812 26.128906 Z M 5.257812 2.902344 " clip-rule="nonzero"/></clipPath></defs><g clip-path="url(#3a3d817dd9)"><path fill="#ffffff" d="M 24.730469 12.644531 C 24.730469 7.277344 20.363281 2.90625 14.996094 2.90625 C 9.628906 2.90625 5.257812 7.277344 5.257812 12.644531 C 5.257812 17.371094 8.648438 21.320312 13.125 22.191406 L 13.125 23.875 L 11.25 23.875 C 11.039062 23.875 10.871094 24.039062 10.871094 24.25 L 10.871094 25.375 L 10.496094 25.375 C 10.289062 25.375 10.121094 25.539062 10.121094 25.75 C 10.121094 25.957031 10.289062 26.125 10.496094 26.125 L 19.484375 26.125 C 19.695312 26.125 19.863281 25.957031 19.863281 25.75 C 19.863281 25.539062 19.695312 25.375 19.484375 25.375 L 19.109375 25.375 L 19.109375 24.25 C 19.109375 24.039062 18.941406 23.875 18.734375 23.875 L 16.867188 23.875 L 16.867188 22.191406 C 21.34375 21.320312 24.730469 17.371094 24.730469 12.644531 Z M 6.007812 12.644531 C 6.007812 7.6875 10.042969 3.652344 14.996094 3.652344 C 19.949219 3.652344 23.980469 7.6875 23.980469 12.644531 C 23.980469 17.597656 19.949219 21.625 14.996094 21.625 C 10.042969 21.625 6.007812 17.597656 6.007812 12.644531 Z M 18.367188 25.375 L 11.625 25.375 L 11.625 24.625 L 18.367188 24.625 Z M 16.121094 23.875 L 13.871094 23.875 L 13.871094 22.308594 C 14.238281 22.351562 14.613281 22.375 14.996094 22.375 C 15.375 22.375 15.746094 22.351562 16.121094 22.308594 Z M 18.476562 18.5625 C 18.542969 18.609375 18.617188 18.632812 18.695312 18.632812 C 18.773438 18.632812 18.855469 18.609375 18.917969 18.558594 C 19.050781 18.460938 19.105469 18.292969 19.054688 18.140625 L 17.726562 14.109375 L 21.203125 11.617188 C 21.335938 11.523438 21.394531 11.351562 21.34375 11.199219 C 21.292969 11.046875 21.148438 10.9375 20.984375 10.9375 L 16.679688 10.9375 L 15.351562 6.902344 C 15.300781 6.75 15.15625 6.648438 14.996094 6.648438 C 14.832031 6.648438 14.6875 6.75 14.636719 6.902344 L 13.308594 10.9375 L 9 10.9375 C 8.839844 10.9375 8.695312 11.046875 8.644531 11.199219 C 8.59375 11.351562 8.648438 11.523438 8.785156 11.617188 L 12.261719 14.109375 L 10.933594 18.140625 C 10.882812 18.292969 10.9375 18.464844 11.066406 18.558594 C 11.199219 18.65625 11.375 18.65625 11.507812 18.5625 L 14.996094 16.066406 Z M 12.003906 17.285156 L 13.058594 14.085938 C 13.109375 13.933594 13.054688 13.761719 12.921875 13.664062 L 10.167969 11.691406 L 13.578125 11.691406 C 13.742188 11.691406 13.886719 11.589844 13.9375 11.4375 L 14.996094 8.222656 L 16.054688 11.4375 C 16.105469 11.589844 16.25 11.691406 16.410156 11.691406 L 19.824219 11.691406 L 17.070312 13.664062 C 16.9375 13.761719 16.878906 13.929688 16.933594 14.085938 L 17.984375 17.285156 L 15.214844 15.304688 C 15.148438 15.257812 15.074219 15.234375 14.996094 15.234375 C 14.917969 15.234375 14.84375 15.257812 14.777344 15.304688 Z M 12.003906 17.285156 " fill-opacity="1" fill-rule="nonzero"/></g></svg>