<svg xmlns="http://www.w3.org/2000/svg" xmlns:xlink="http://www.w3.org/1999/xlink" width="40" zoomAndPan="magnify" viewBox="0 0 30 30.000001" height="40" preserveAspectRatio="xMidYMid meet" version="1.0"><defs><clipPath id="ed94d7d905"><path d="M 5 2.902344 L 26.613281 2.902344 L 26.613281 24 L 5 24 Z M 5 2.902344 " clip-rule="nonzero"/></clipPath><clipPath id="372f3faa69"><path d="M 3.386719 14 L 7 14 L 7 18 L 3.386719 18 Z M 3.386719 14 " clip-rule="nonzero"/></clipPath><clipPath id="2a8d77f32b"><path d="M 3.386719 17 L 8 17 L 8 22 L 3.386719 22 Z M 3.386719 17 " clip-rule="nonzero"/></clipPath><clipPath id="e8fa5e69c8"><path d="M 12 23 L 15 23 L 15 26.128906 L 12 26.128906 Z M 12 23 " clip-rule="nonzero"/></clipPath></defs><g clip-path="url(#ed94d7d905)"><path fill="#ffffff" d="M 26.082031 2.917969 C 24.707031 2.917969 23.105469 3.214844 21.433594 3.773438 C 21.433594 3.773438 21.429688 3.773438 21.429688 3.773438 C 21.429688 3.773438 21.429688 3.777344 21.429688 3.777344 C 21.292969 3.820312 21.15625 3.867188 21.019531 3.914062 C 21.007812 3.917969 20.992188 3.925781 20.980469 3.933594 C 20.640625 4.054688 20.3125 4.183594 19.984375 4.324219 C 19.980469 4.324219 19.980469 4.324219 19.976562 4.324219 C 17.949219 5.179688 16.148438 6.316406 14.9375 7.53125 L 12.570312 9.894531 L 10.597656 9.894531 C 9.648438 9.894531 8.753906 10.265625 8.082031 10.9375 L 5.710938 13.308594 C 5.585938 13.4375 5.546875 13.628906 5.617188 13.796875 C 5.6875 13.960938 5.851562 14.066406 6.027344 14.066406 C 6.03125 14.066406 6.035156 14.066406 6.039062 14.066406 L 9.8125 13.976562 C 9.632812 14.964844 9.742188 15.992188 10.164062 16.917969 C 8.878906 18.238281 7.890625 19.976562 8.695312 20.78125 C 8.898438 20.984375 9.160156 21.074219 9.457031 21.074219 C 10.347656 21.074219 11.574219 20.273438 12.5625 19.308594 C 13.203125 19.601562 13.890625 19.753906 14.582031 19.753906 C 14.890625 19.753906 15.199219 19.71875 15.503906 19.664062 L 15.414062 23.441406 C 15.40625 23.621094 15.515625 23.789062 15.679688 23.859375 C 15.738281 23.882812 15.796875 23.894531 15.855469 23.894531 C 15.972656 23.894531 16.085938 23.851562 16.171875 23.765625 L 18.539062 21.394531 C 19.210938 20.722656 19.582031 19.832031 19.582031 18.882812 L 19.582031 16.90625 L 21.929688 14.554688 C 23.152344 13.335938 24.292969 11.523438 25.144531 9.484375 C 25.144531 9.480469 25.148438 9.480469 25.148438 9.480469 C 25.289062 9.140625 25.425781 8.796875 25.550781 8.441406 C 25.597656 8.3125 25.640625 8.183594 25.683594 8.050781 C 25.683594 8.046875 25.6875 8.046875 25.6875 8.042969 C 25.691406 8.035156 25.691406 8.03125 25.691406 8.023438 C 26.25 6.34375 26.542969 4.738281 26.539062 3.359375 C 26.535156 3.113281 26.324219 2.917969 26.082031 2.917969 Z M 10.058594 13.082031 L 7.125 13.152344 L 8.710938 11.566406 C 9.214844 11.0625 9.882812 10.785156 10.597656 10.785156 L 11.679688 10.785156 L 11.265625 11.199219 C 10.722656 11.746094 10.316406 12.390625 10.058594 13.082031 Z M 11.738281 15.621094 C 11.445312 15.804688 11.152344 16.023438 10.859375 16.273438 C 10.582031 15.523438 10.542969 14.710938 10.726562 13.933594 C 10.988281 14.570312 11.394531 15.175781 11.738281 15.621094 Z M 12.027344 18.59375 C 10.628906 19.992188 9.472656 20.300781 9.324219 20.152344 C 9.175781 20.007812 9.484375 18.847656 10.886719 17.449219 C 11.503906 16.832031 12.164062 16.339844 12.75 16.066406 C 13.09375 15.90625 13.328125 15.863281 13.460938 15.863281 C 13.53125 15.863281 13.574219 15.875 13.589844 15.890625 C 13.628906 15.929688 13.65625 16.199219 13.410156 16.730469 C 13.136719 17.3125 12.644531 17.976562 12.027344 18.59375 Z M 13.207031 18.621094 C 13.453125 18.328125 13.671875 18.03125 13.859375 17.738281 C 14.3125 18.085938 14.917969 18.488281 15.5625 18.75 C 14.78125 18.933594 13.960938 18.894531 13.207031 18.621094 Z M 18.691406 18.878906 C 18.691406 19.59375 18.414062 20.261719 17.910156 20.765625 L 16.328125 22.351562 L 16.398438 19.414062 C 17.085938 19.15625 17.734375 18.753906 18.28125 18.207031 L 18.691406 17.796875 Z M 21.300781 13.925781 L 17.652344 17.582031 C 17.492188 17.742188 17.320312 17.886719 17.140625 18.019531 C 17.140625 18.019531 17.136719 18.019531 17.136719 18.019531 C 16.605469 18.324219 15.480469 17.890625 14.285156 16.941406 C 14.667969 16.011719 14.46875 15.511719 14.214844 15.261719 C 13.964844 15.007812 13.464844 14.808594 12.535156 15.195312 C 11.640625 14.066406 11.191406 12.984375 11.402344 12.417969 C 11.546875 12.210938 11.710938 12.011719 11.894531 11.828125 L 13.066406 10.65625 C 13.070312 10.65625 13.070312 10.65625 13.070312 10.65625 L 15.5625 8.160156 C 16.585938 7.136719 18.066406 6.167969 19.753906 5.394531 C 19.929688 6.265625 20.496094 7.234375 21.367188 8.101562 C 22.234375 8.96875 23.203125 9.535156 24.074219 9.710938 C 23.300781 11.410156 22.332031 12.898438 21.300781 13.925781 Z M 24.433594 8.875 C 23.710938 8.792969 22.789062 8.269531 21.996094 7.472656 C 21.199219 6.679688 20.675781 5.757812 20.589844 5.035156 C 20.804688 4.949219 21.023438 4.863281 21.242188 4.785156 C 21.242188 4.789062 21.246094 4.796875 21.246094 4.800781 C 21.222656 5.25 21.59375 6.128906 22.464844 7 C 23.34375 7.875 24.226562 8.246094 24.675781 8.21875 C 24.679688 8.21875 24.679688 8.222656 24.683594 8.222656 C 24.605469 8.441406 24.519531 8.660156 24.433594 8.875 Z M 24.96875 7.351562 C 24.855469 7.335938 24.738281 7.328125 24.625 7.332031 C 24.476562 7.351562 23.835938 7.113281 23.09375 6.367188 C 22.355469 5.632812 22.132812 4.992188 22.132812 4.847656 C 22.140625 4.730469 22.128906 4.613281 22.117188 4.496094 C 23.363281 4.109375 24.578125 3.867188 25.640625 3.816406 C 25.589844 4.878906 25.351562 6.097656 24.96875 7.351562 Z M 24.96875 7.351562 " fill-opacity="1" fill-rule="nonzero"/></g><path fill="#ffffff" d="M 17.980469 8.53125 C 17.175781 8.53125 16.417969 8.847656 15.847656 9.414062 C 15.277344 9.984375 14.964844 10.742188 14.964844 11.546875 C 14.964844 12.351562 15.277344 13.109375 15.847656 13.679688 C 16.417969 14.246094 17.175781 14.5625 17.980469 14.5625 C 18.785156 14.5625 19.542969 14.246094 20.113281 13.679688 C 20.679688 13.109375 20.996094 12.351562 20.996094 11.546875 C 20.996094 10.742188 20.679688 9.984375 20.113281 9.414062 C 19.542969 8.847656 18.785156 8.53125 17.980469 8.53125 Z M 19.484375 13.050781 C 19.082031 13.453125 18.546875 13.671875 17.980469 13.671875 C 17.410156 13.671875 16.878906 13.453125 16.476562 13.050781 C 16.074219 12.648438 15.855469 12.113281 15.855469 11.546875 C 15.855469 10.980469 16.074219 10.445312 16.476562 10.042969 C 16.878906 9.640625 17.410156 9.421875 17.980469 9.421875 C 18.546875 9.421875 19.082031 9.640625 19.484375 10.042969 C 19.886719 10.445312 20.105469 10.980469 20.105469 11.546875 C 20.105469 12.113281 19.886719 12.648438 19.484375 13.050781 Z M 19.484375 13.050781 " fill-opacity="1" fill-rule="nonzero"/><g clip-path="url(#372f3faa69)"><path fill="#ffffff" d="M 4.1875 17.105469 L 6.042969 15.246094 C 6.21875 15.074219 6.21875 14.792969 6.042969 14.617188 C 5.871094 14.445312 5.589844 14.445312 5.414062 14.617188 L 3.558594 16.476562 C 3.382812 16.648438 3.382812 16.929688 3.558594 17.105469 C 3.644531 17.191406 3.757812 17.234375 3.871094 17.234375 C 3.984375 17.234375 4.101562 17.191406 4.1875 17.105469 Z M 4.1875 17.105469 " fill-opacity="1" fill-rule="nonzero"/></g><path fill="#ffffff" d="M 8.324219 21.140625 C 8.148438 20.96875 7.867188 20.96875 7.695312 21.140625 L 4.820312 24.015625 C 4.648438 24.191406 4.648438 24.46875 4.820312 24.644531 C 4.90625 24.730469 5.019531 24.773438 5.136719 24.773438 C 5.25 24.773438 5.363281 24.730469 5.449219 24.644531 L 8.324219 21.769531 C 8.496094 21.597656 8.496094 21.316406 8.324219 21.140625 Z M 8.324219 21.140625 " fill-opacity="1" fill-rule="nonzero"/><g clip-path="url(#2a8d77f32b)"><path fill="#ffffff" d="M 7.023438 17.851562 C 6.851562 17.679688 6.570312 17.679688 6.394531 17.851562 L 3.960938 20.285156 C 3.789062 20.457031 3.789062 20.738281 3.960938 20.914062 C 4.050781 21 4.164062 21.042969 4.277344 21.042969 C 4.390625 21.042969 4.503906 21 4.589844 20.914062 L 7.023438 18.480469 C 7.195312 18.308594 7.195312 18.027344 7.023438 17.851562 Z M 7.023438 17.851562 " fill-opacity="1" fill-rule="nonzero"/></g><g clip-path="url(#e8fa5e69c8)"><path fill="#ffffff" d="M 14.21875 23.421875 L 12.359375 25.277344 C 12.1875 25.453125 12.1875 25.734375 12.359375 25.90625 C 12.449219 25.992188 12.5625 26.039062 12.675781 26.039062 C 12.789062 26.039062 12.902344 25.992188 12.988281 25.90625 L 14.847656 24.050781 C 15.019531 23.875 15.019531 23.59375 14.847656 23.421875 C 14.671875 23.25 14.390625 23.25 14.21875 23.421875 Z M 14.21875 23.421875 " fill-opacity="1" fill-rule="nonzero"/></g><path fill="#ffffff" d="M 10.984375 22.441406 L 8.550781 24.875 C 8.378906 25.046875 8.378906 25.328125 8.550781 25.503906 C 8.640625 25.589844 8.753906 25.632812 8.867188 25.632812 C 8.980469 25.632812 9.09375 25.589844 9.179688 25.503906 L 11.613281 23.070312 C 11.785156 22.894531 11.785156 22.617188 11.613281 22.441406 C 11.4375 22.269531 11.160156 22.269531 10.984375 22.441406 Z M 10.984375 22.441406 " fill-opacity="1" fill-rule="nonzero"/></svg>