<svg xmlns="http://www.w3.org/2000/svg" xmlns:xlink="http://www.w3.org/1999/xlink" width="40" zoomAndPan="magnify" viewBox="0 0 30 30.000001" height="40" preserveAspectRatio="xMidYMid meet" version="1.0"><defs><clipPath id="81f32c4a6a"><path d="M 4.109375 3.632812 L 25.882812 3.632812 L 25.882812 25.410156 L 4.109375 25.410156 Z M 4.109375 3.632812 " clip-rule="nonzero"/></clipPath></defs><g clip-path="url(#81f32c4a6a)"><path fill="#ffffff" d="M 11.347656 13.914062 C 13.492188 14.550781 15.101562 16.429688 15.34375 18.71875 C 15.355469 18.816406 15.324219 18.914062 15.257812 18.988281 C 15.191406 19.0625 15.097656 19.105469 14.996094 19.105469 L 4.46875 19.105469 C 4.371094 19.105469 4.273438 19.0625 4.207031 18.988281 C 4.140625 18.914062 4.109375 18.816406 4.121094 18.71875 C 4.367188 16.429688 5.976562 14.550781 8.121094 13.914062 C 7.269531 13.375 6.707031 12.429688 6.707031 11.351562 C 6.707031 9.6875 8.066406 8.324219 9.734375 8.324219 C 11.402344 8.324219 12.761719 9.6875 12.761719 11.351562 C 12.761719 12.429688 12.195312 13.375 11.347656 13.914062 Z M 9.734375 14.382812 C 7.316406 14.382812 5.308594 16.113281 4.875 18.402344 C 4.875 18.402344 14.589844 18.402344 14.589844 18.402344 C 14.160156 16.113281 12.148438 14.382812 9.734375 14.382812 Z M 9.734375 13.679688 C 11.015625 13.679688 12.058594 12.632812 12.058594 11.351562 C 12.058594 10.074219 11.015625 9.027344 9.734375 9.027344 C 8.453125 9.027344 7.40625 10.074219 7.40625 11.351562 C 7.40625 12.632812 8.453125 13.679688 9.734375 13.679688 Z M 21.875 20.203125 C 24.019531 20.839844 25.628906 22.71875 25.871094 25.007812 C 25.882812 25.105469 25.851562 25.203125 25.785156 25.277344 C 25.71875 25.351562 25.625 25.394531 25.523438 25.394531 L 14.996094 25.394531 C 14.898438 25.394531 14.800781 25.351562 14.734375 25.277344 C 14.667969 25.203125 14.636719 25.105469 14.648438 25.007812 C 14.894531 22.71875 16.503906 20.839844 18.648438 20.203125 C 17.796875 19.664062 17.234375 18.71875 17.234375 17.640625 C 17.234375 15.976562 18.59375 14.613281 20.261719 14.613281 C 20.648438 14.613281 21.023438 14.6875 21.363281 14.824219 L 21.363281 11.289062 C 21.363281 11.097656 21.519531 10.941406 21.714844 10.941406 L 22.378906 10.941406 C 21.894531 10.371094 20.871094 9.164062 20.496094 8.722656 L 18.613281 10.941406 L 19.277344 10.941406 C 19.46875 10.941406 19.628906 11.097656 19.628906 11.289062 L 19.628906 13.996094 C 19.628906 14.191406 19.46875 14.347656 19.277344 14.347656 C 19.082031 14.347656 18.925781 14.191406 18.925781 13.996094 L 18.925781 11.640625 L 18.214844 11.640625 C 18.007812 11.640625 17.832031 11.527344 17.746094 11.339844 C 17.660156 11.15625 17.6875 10.945312 17.820312 10.789062 C 17.820312 10.789062 20.101562 8.105469 20.101562 8.105469 C 20.203125 7.984375 20.335938 7.921875 20.496094 7.921875 C 20.652344 7.921875 20.785156 7.984375 20.886719 8.101562 C 20.890625 8.101562 20.890625 8.101562 20.890625 8.101562 L 23.171875 10.789062 C 23.304688 10.945312 23.332031 11.15625 23.246094 11.339844 C 23.160156 11.53125 22.984375 11.640625 22.777344 11.640625 L 22.066406 11.640625 L 22.066406 15.214844 C 22.808594 15.765625 23.289062 16.648438 23.289062 17.640625 C 23.289062 18.71875 22.722656 19.664062 21.875 20.203125 Z M 20.261719 20.667969 C 17.84375 20.667969 15.835938 22.402344 15.402344 24.691406 C 15.402344 24.691406 25.117188 24.691406 25.117188 24.691406 C 24.6875 22.402344 22.675781 20.667969 20.261719 20.667969 Z M 21.515625 15.683594 C 21.152344 15.453125 20.722656 15.316406 20.261719 15.316406 C 18.980469 15.316406 17.933594 16.359375 17.933594 17.640625 C 17.933594 18.921875 18.980469 19.96875 20.261719 19.96875 C 21.542969 19.96875 22.585938 18.921875 22.585938 17.640625 C 22.585938 16.828125 22.167969 16.113281 21.53125 15.695312 C 21.527344 15.691406 21.519531 15.6875 21.515625 15.683594 Z M 17.933594 7.414062 C 17.375 6.757812 15.8125 4.917969 15.386719 4.417969 L 12.84375 7.414062 L 13.859375 7.414062 C 14.054688 7.414062 14.210938 7.574219 14.210938 7.765625 L 14.210938 12.25 C 14.210938 12.441406 14.054688 12.601562 13.859375 12.601562 C 13.667969 12.601562 13.511719 12.441406 13.511719 12.25 L 13.511719 8.117188 L 12.53125 8.117188 C 12.308594 8.117188 12.117188 7.996094 12.023438 7.792969 C 11.933594 7.589844 11.960938 7.367188 12.109375 7.195312 C 12.109375 7.195312 14.960938 3.835938 14.960938 3.835938 C 15.070312 3.707031 15.214844 3.636719 15.386719 3.636719 C 15.554688 3.636719 15.699219 3.703125 15.8125 3.832031 C 15.8125 3.832031 15.8125 3.832031 15.8125 3.835938 L 18.667969 7.199219 C 18.8125 7.367188 18.839844 7.589844 18.75 7.792969 C 18.65625 7.996094 18.464844 8.117188 18.242188 8.117188 C 18.242188 8.117188 17.265625 8.117188 17.265625 8.117188 L 17.265625 15.191406 C 17.265625 15.386719 17.105469 15.542969 16.914062 15.542969 C 16.71875 15.542969 16.5625 15.386719 16.5625 15.191406 L 16.5625 7.765625 C 16.5625 7.574219 16.71875 7.414062 16.914062 7.414062 Z M 9.382812 20.070312 C 9.382812 19.878906 9.539062 19.71875 9.734375 19.71875 C 9.925781 19.71875 10.082031 19.878906 10.082031 20.070312 L 10.082031 22.230469 L 13.933594 22.230469 C 14.128906 22.230469 14.285156 22.386719 14.285156 22.582031 C 14.285156 22.773438 14.128906 22.933594 13.933594 22.933594 L 9.734375 22.933594 C 9.539062 22.933594 9.382812 22.773438 9.382812 22.582031 Z M 9.382812 20.070312 " fill-opacity="1" fill-rule="evenodd"/></g></svg>