<svg xmlns="http://www.w3.org/2000/svg" xmlns:xlink="http://www.w3.org/1999/xlink" width="40" zoomAndPan="magnify" viewBox="0 0 30 30.000001" height="40" preserveAspectRatio="xMidYMid meet" version="1.0"><defs><clipPath id="0570cb690e"><path d="M 6.839844 4.023438 L 22.804688 4.023438 L 22.804688 25 L 6.839844 25 Z M 6.839844 4.023438 " clip-rule="nonzero"/></clipPath></defs><g clip-path="url(#0570cb690e)"><path fill="#ffffff" d="M 22.304688 25 L 17.128906 25 C 16.789062 25 16.492188 24.804688 16.351562 24.496094 C 16.214844 24.191406 16.261719 23.84375 16.476562 23.59375 C 16.78125 23.238281 16.945312 22.808594 16.945312 22.34375 C 16.945312 21.792969 16.710938 21.273438 16.308594 20.898438 C 15.902344 20.527344 15.375 20.347656 14.832031 20.394531 C 13.851562 20.480469 13.089844 21.289062 13.058594 22.273438 C 13.042969 22.761719 13.207031 23.214844 13.527344 23.585938 C 13.742188 23.84375 13.789062 24.191406 13.652344 24.503906 C 13.511719 24.804688 13.214844 25 12.875 25 L 7.699219 25 C 7.226562 25 6.847656 24.621094 6.847656 24.144531 L 6.847656 18.957031 C 6.847656 18.625 7.03125 18.328125 7.34375 18.179688 C 7.644531 18.042969 7.996094 18.085938 8.246094 18.296875 C 8.59375 18.585938 9.035156 18.746094 9.488281 18.746094 C 10.03125 18.746094 10.535156 18.53125 10.902344 18.132812 C 11.273438 17.738281 11.460938 17.21875 11.421875 16.675781 C 11.359375 15.703125 10.550781 14.910156 9.582031 14.863281 C 9.089844 14.839844 8.617188 14.996094 8.246094 15.308594 C 7.988281 15.523438 7.636719 15.5625 7.328125 15.421875 C 7.023438 15.285156 6.839844 14.988281 6.839844 14.65625 L 6.839844 9.542969 C 6.839844 9.070312 7.21875 8.6875 7.691406 8.6875 L 12.875 8.6875 C 12.890625 8.6875 12.921875 8.6875 12.945312 8.640625 C 12.960938 8.613281 12.953125 8.582031 12.929688 8.558594 C 12.507812 8.066406 12.269531 7.4375 12.269531 6.785156 C 12.269531 6.039062 12.578125 5.316406 13.121094 4.804688 C 13.671875 4.285156 14.394531 4.027344 15.15625 4.074219 C 16.554688 4.160156 17.667969 5.324219 17.695312 6.722656 C 17.710938 7.398438 17.480469 8.042969 17.042969 8.558594 C 17.015625 8.597656 17.019531 8.628906 17.027344 8.648438 C 17.042969 8.6875 17.082031 8.6875 17.089844 8.6875 L 22.28125 8.6875 C 22.753906 8.6875 23.132812 9.070312 23.132812 9.542969 L 23.132812 14.65625 C 23.132812 14.988281 22.949219 15.285156 22.644531 15.421875 C 22.34375 15.5625 21.992188 15.523438 21.726562 15.308594 C 21.355469 14.996094 20.882812 14.839844 20.390625 14.863281 C 19.421875 14.910156 18.613281 15.703125 18.550781 16.675781 C 18.519531 17.21875 18.699219 17.738281 19.070312 18.132812 C 19.445312 18.53125 19.949219 18.746094 20.484375 18.746094 C 20.9375 18.746094 21.378906 18.585938 21.726562 18.296875 C 21.984375 18.085938 22.335938 18.042969 22.628906 18.179688 C 22.933594 18.320312 23.125 18.625 23.125 18.957031 L 23.125 24.144531 C 23.15625 24.621094 22.777344 25 22.304688 25 Z M 15.007812 19.617188 C 15.683594 19.617188 16.332031 19.867188 16.835938 20.332031 C 17.402344 20.851562 17.71875 21.582031 17.71875 22.351562 C 17.71875 23.003906 17.496094 23.609375 17.066406 24.105469 C 17.058594 24.113281 17.042969 24.136719 17.058594 24.175781 C 17.066406 24.199219 17.089844 24.222656 17.136719 24.222656 L 22.3125 24.222656 C 22.359375 24.222656 22.390625 24.191406 22.390625 24.144531 L 22.390625 18.957031 C 22.390625 18.925781 22.375 18.902344 22.34375 18.886719 C 22.304688 18.863281 22.273438 18.886719 22.265625 18.894531 C 21.773438 19.300781 21.160156 19.523438 20.523438 19.523438 C 19.777344 19.523438 19.054688 19.214844 18.542969 18.664062 C 18.023438 18.109375 17.765625 17.386719 17.8125 16.628906 C 17.898438 15.269531 19.035156 14.15625 20.390625 14.085938 C 21.066406 14.054688 21.734375 14.273438 22.257812 14.707031 C 22.28125 14.730469 22.3125 14.730469 22.34375 14.722656 C 22.390625 14.699219 22.390625 14.671875 22.390625 14.65625 L 22.390625 9.542969 C 22.390625 9.496094 22.359375 9.464844 22.3125 9.464844 L 17.113281 9.464844 C 16.78125 9.464844 16.484375 9.28125 16.34375 8.96875 C 16.207031 8.65625 16.253906 8.308594 16.476562 8.042969 C 16.789062 7.679688 16.960938 7.214844 16.945312 6.730469 C 16.921875 5.730469 16.121094 4.898438 15.125 4.835938 C 14.582031 4.804688 14.070312 4.984375 13.671875 5.355469 C 13.277344 5.730469 13.058594 6.234375 13.058594 6.769531 C 13.058594 7.238281 13.222656 7.6875 13.527344 8.035156 C 13.75 8.292969 13.796875 8.648438 13.65625 8.953125 C 13.519531 9.257812 13.222656 9.449219 12.882812 9.449219 L 7.699219 9.449219 C 7.652344 9.449219 7.621094 9.480469 7.621094 9.527344 L 7.621094 14.640625 C 7.621094 14.65625 7.621094 14.6875 7.667969 14.707031 C 7.699219 14.722656 7.730469 14.714844 7.753906 14.691406 C 8.273438 14.257812 8.941406 14.039062 9.617188 14.070312 C 10.976562 14.132812 12.113281 15.253906 12.199219 16.613281 C 12.246094 17.375 11.988281 18.09375 11.46875 18.648438 C 10.957031 19.191406 10.234375 19.507812 9.488281 19.507812 C 8.851562 19.507812 8.238281 19.285156 7.746094 18.878906 C 7.738281 18.871094 7.707031 18.847656 7.667969 18.871094 C 7.636719 18.886719 7.621094 18.910156 7.621094 18.941406 L 7.621094 24.128906 C 7.621094 24.175781 7.652344 24.207031 7.699219 24.207031 L 12.875 24.207031 C 12.890625 24.207031 12.921875 24.207031 12.945312 24.160156 C 12.960938 24.128906 12.953125 24.101562 12.929688 24.078125 C 12.492188 23.5625 12.261719 22.910156 12.285156 22.234375 C 12.328125 20.851562 13.394531 19.726562 14.761719 19.601562 C 14.847656 19.617188 14.925781 19.617188 15.007812 19.617188 Z M 15.007812 19.617188 " fill-opacity="1" fill-rule="nonzero"/></g></svg>