<svg xmlns="http://www.w3.org/2000/svg" xmlns:xlink="http://www.w3.org/1999/xlink" width="100" zoomAndPan="magnify" viewBox="0 0 75 74.999997" height="100" preserveAspectRatio="xMidYMid meet" version="1.0"><defs><clipPath id="736b3a9bea"><path d="M 4.332031 29 L 70.332031 29 L 70.332031 70.332031 L 4.332031 70.332031 Z M 4.332031 29 " clip-rule="nonzero"/></clipPath><clipPath id="3745944f0d"><path d="M 4.332031 4.332031 L 70.332031 4.332031 L 70.332031 54 L 4.332031 54 Z M 4.332031 4.332031 " clip-rule="nonzero"/></clipPath></defs><g clip-path="url(#736b3a9bea)"><path fill="#f9d42f" d="M 4.332031 29.082031 L 70.332031 29.082031 L 70.332031 70.332031 L 4.332031 70.332031 Z M 4.332031 29.082031 " fill-opacity="1" fill-rule="nonzero"/></g><path fill="#fb9401" d="M 66.886719 59.714844 C 66.753906 59.710938 66.625 59.6875 66.503906 59.636719 C 66.378906 59.585938 66.269531 59.511719 66.175781 59.417969 C 66.082031 59.324219 66.011719 59.214844 65.960938 59.09375 C 65.90625 58.96875 65.882812 58.839844 65.882812 58.707031 L 65.882812 54.835938 C 65.882812 54.703125 65.90625 54.574219 65.957031 54.449219 C 66.011719 54.328125 66.082031 54.21875 66.175781 54.125 C 66.269531 54.03125 66.378906 53.957031 66.503906 53.90625 C 66.625 53.855469 66.753906 53.832031 66.886719 53.832031 C 67.019531 53.832031 67.148438 53.855469 67.269531 53.90625 C 67.394531 53.957031 67.503906 54.03125 67.597656 54.125 C 67.691406 54.21875 67.765625 54.328125 67.816406 54.449219 C 67.867188 54.574219 67.890625 54.703125 67.890625 54.835938 L 67.890625 58.707031 C 67.890625 58.839844 67.867188 58.96875 67.816406 59.09375 C 67.761719 59.214844 67.691406 59.324219 67.597656 59.417969 C 67.503906 59.511719 67.394531 59.585938 67.269531 59.636719 C 67.148438 59.6875 67.019531 59.710938 66.886719 59.714844 Z M 66.886719 59.714844 " fill-opacity="1" fill-rule="nonzero"/><g clip-path="url(#3745944f0d)"><path fill="#fb9401" d="M 70.332031 29.078125 L 37.332031 53.832031 L 4.332031 29.078125 L 37.332031 4.332031 Z M 70.332031 29.078125 " fill-opacity="1" fill-rule="nonzero"/></g><path fill="#fb9401" d="M 59.152344 59.09375 C 58.855469 59.09375 58.609375 58.984375 58.410156 58.769531 L 47.230469 46.527344 C 47.136719 46.429688 47.066406 46.316406 47.019531 46.191406 C 46.972656 46.066406 46.949219 45.9375 46.957031 45.800781 C 46.960938 45.667969 46.992188 45.539062 47.046875 45.417969 C 47.105469 45.292969 47.183594 45.1875 47.28125 45.097656 C 47.382812 45.007812 47.492188 44.9375 47.621094 44.894531 C 47.746094 44.847656 47.878906 44.828125 48.011719 44.835938 C 48.148438 44.84375 48.273438 44.875 48.394531 44.933594 C 48.515625 44.992188 48.621094 45.074219 48.710938 45.171875 L 59.890625 57.414062 C 60.027344 57.558594 60.109375 57.730469 60.140625 57.929688 C 60.171875 58.125 60.148438 58.3125 60.070312 58.496094 C 59.988281 58.675781 59.867188 58.824219 59.699219 58.929688 C 59.53125 59.039062 59.347656 59.09375 59.152344 59.09375 Z M 59.152344 59.09375 " fill-opacity="1" fill-rule="nonzero"/><path fill="#fb9401" d="M 15.511719 59.09375 C 15.3125 59.09375 15.128906 59.039062 14.960938 58.929688 C 14.796875 58.824219 14.671875 58.675781 14.59375 58.496094 C 14.511719 58.3125 14.488281 58.125 14.519531 57.929688 C 14.550781 57.730469 14.636719 57.558594 14.769531 57.414062 L 25.949219 45.171875 C 26.039062 45.074219 26.144531 44.992188 26.265625 44.933594 C 26.386719 44.875 26.511719 44.84375 26.648438 44.835938 C 26.78125 44.828125 26.914062 44.847656 27.039062 44.894531 C 27.167969 44.9375 27.28125 45.007812 27.378906 45.097656 C 27.476562 45.1875 27.554688 45.292969 27.613281 45.417969 C 27.667969 45.539062 27.699219 45.667969 27.707031 45.800781 C 27.710938 45.9375 27.6875 46.066406 27.640625 46.191406 C 27.59375 46.316406 27.523438 46.429688 27.433594 46.527344 L 16.253906 58.769531 C 16.054688 58.984375 15.804688 59.09375 15.511719 59.09375 Z M 15.511719 59.09375 " fill-opacity="1" fill-rule="nonzero"/><path fill="#ededf9" d="M 65.25 11.121094 L 65.25 32.886719 L 37.332031 53.832031 L 9.410156 32.886719 L 9.410156 11.121094 Z M 65.25 11.121094 " fill-opacity="1" fill-rule="nonzero"/><path fill="#537980" d="M 60.085938 20.59375 L 14.574219 20.59375 C 14.441406 20.59375 14.3125 20.570312 14.191406 20.515625 C 14.066406 20.464844 13.957031 20.394531 13.863281 20.300781 C 13.769531 20.207031 13.699219 20.097656 13.648438 19.972656 C 13.597656 19.851562 13.570312 19.722656 13.570312 19.589844 C 13.570312 19.457031 13.597656 19.328125 13.648438 19.207031 C 13.699219 19.082031 13.769531 18.972656 13.863281 18.878906 C 13.957031 18.785156 14.066406 18.710938 14.191406 18.660156 C 14.3125 18.609375 14.441406 18.585938 14.574219 18.585938 L 60.085938 18.585938 C 60.21875 18.585938 60.347656 18.609375 60.46875 18.660156 C 60.59375 18.710938 60.703125 18.785156 60.796875 18.878906 C 60.890625 18.972656 60.964844 19.082031 61.015625 19.207031 C 61.066406 19.328125 61.089844 19.457031 61.089844 19.589844 C 61.089844 19.722656 61.066406 19.851562 61.015625 19.972656 C 60.964844 20.097656 60.890625 20.207031 60.796875 20.300781 C 60.703125 20.394531 60.59375 20.464844 60.46875 20.515625 C 60.347656 20.570312 60.21875 20.59375 60.085938 20.59375 Z M 60.085938 20.59375 " fill-opacity="1" fill-rule="nonzero"/><path fill="#537980" d="M 60.085938 25.183594 L 14.574219 25.183594 C 14.441406 25.183594 14.3125 25.160156 14.191406 25.109375 C 14.066406 25.058594 13.957031 24.984375 13.863281 24.890625 C 13.769531 24.796875 13.699219 24.6875 13.648438 24.566406 C 13.597656 24.441406 13.570312 24.3125 13.570312 24.179688 C 13.570312 24.046875 13.597656 23.917969 13.648438 23.796875 C 13.699219 23.671875 13.769531 23.566406 13.863281 23.46875 C 13.957031 23.375 14.066406 23.304688 14.191406 23.253906 C 14.3125 23.203125 14.441406 23.175781 14.574219 23.175781 L 60.085938 23.175781 C 60.21875 23.175781 60.347656 23.203125 60.46875 23.253906 C 60.59375 23.304688 60.703125 23.375 60.796875 23.46875 C 60.890625 23.566406 60.964844 23.671875 61.015625 23.796875 C 61.066406 23.917969 61.089844 24.046875 61.089844 24.179688 C 61.089844 24.3125 61.066406 24.441406 61.015625 24.566406 C 60.964844 24.6875 60.890625 24.796875 60.796875 24.890625 C 60.703125 24.984375 60.59375 25.058594 60.46875 25.109375 C 60.347656 25.160156 60.21875 25.183594 60.085938 25.183594 Z M 60.085938 25.183594 " fill-opacity="1" fill-rule="nonzero"/><path fill="#537980" d="M 60.085938 29.777344 L 14.574219 29.777344 C 14.441406 29.777344 14.3125 29.75 14.191406 29.699219 C 14.066406 29.648438 13.957031 29.578125 13.863281 29.480469 C 13.769531 29.386719 13.699219 29.28125 13.648438 29.15625 C 13.597656 29.035156 13.570312 28.90625 13.570312 28.773438 C 13.570312 28.640625 13.597656 28.511719 13.648438 28.386719 C 13.699219 28.265625 13.769531 28.15625 13.863281 28.0625 C 13.957031 27.96875 14.066406 27.894531 14.191406 27.84375 C 14.3125 27.792969 14.441406 27.769531 14.574219 27.769531 L 60.085938 27.769531 C 60.21875 27.769531 60.347656 27.792969 60.46875 27.84375 C 60.59375 27.894531 60.703125 27.96875 60.796875 28.0625 C 60.890625 28.15625 60.964844 28.265625 61.015625 28.386719 C 61.066406 28.511719 61.089844 28.640625 61.089844 28.773438 C 61.089844 28.90625 61.066406 29.035156 61.015625 29.15625 C 60.964844 29.28125 60.890625 29.386719 60.796875 29.480469 C 60.703125 29.578125 60.59375 29.648438 60.46875 29.699219 C 60.347656 29.75 60.21875 29.777344 60.085938 29.777344 Z M 60.085938 29.777344 " fill-opacity="1" fill-rule="nonzero"/><path fill="#537980" d="M 60.085938 34.367188 L 14.574219 34.367188 C 14.441406 34.367188 14.3125 34.34375 14.191406 34.292969 C 14.066406 34.242188 13.957031 34.167969 13.863281 34.074219 C 13.769531 33.980469 13.699219 33.871094 13.648438 33.746094 C 13.597656 33.625 13.570312 33.496094 13.570312 33.363281 C 13.570312 33.230469 13.597656 33.101562 13.648438 32.980469 C 13.699219 32.855469 13.769531 32.746094 13.863281 32.652344 C 13.957031 32.558594 14.066406 32.488281 14.191406 32.4375 C 14.3125 32.382812 14.441406 32.359375 14.574219 32.359375 L 60.085938 32.359375 C 60.21875 32.359375 60.347656 32.382812 60.46875 32.4375 C 60.59375 32.488281 60.703125 32.558594 60.796875 32.652344 C 60.890625 32.746094 60.964844 32.855469 61.015625 32.980469 C 61.066406 33.101562 61.089844 33.230469 61.089844 33.363281 C 61.089844 33.496094 61.066406 33.625 61.015625 33.746094 C 60.964844 33.871094 60.890625 33.980469 60.796875 34.074219 C 60.703125 34.167969 60.59375 34.242188 60.46875 34.292969 C 60.347656 34.34375 60.21875 34.367188 60.085938 34.367188 Z M 60.085938 34.367188 " fill-opacity="1" fill-rule="nonzero"/><path fill="#537980" d="M 58.496094 38.960938 L 16.164062 38.960938 C 16.03125 38.960938 15.902344 38.933594 15.78125 38.882812 C 15.65625 38.832031 15.550781 38.757812 15.457031 38.664062 C 15.359375 38.570312 15.289062 38.460938 15.238281 38.339844 C 15.1875 38.214844 15.160156 38.089844 15.160156 37.953125 C 15.160156 37.820312 15.1875 37.695312 15.238281 37.570312 C 15.289062 37.449219 15.359375 37.339844 15.457031 37.246094 C 15.550781 37.152344 15.65625 37.078125 15.78125 37.027344 C 15.902344 36.976562 16.03125 36.949219 16.164062 36.949219 L 58.496094 36.949219 C 58.628906 36.949219 58.757812 36.976562 58.878906 37.027344 C 59.003906 37.078125 59.109375 37.152344 59.207031 37.246094 C 59.300781 37.339844 59.371094 37.449219 59.421875 37.570312 C 59.472656 37.695312 59.5 37.820312 59.5 37.953125 C 59.5 38.089844 59.472656 38.214844 59.421875 38.339844 C 59.371094 38.460938 59.300781 38.570312 59.207031 38.664062 C 59.109375 38.757812 59.003906 38.832031 58.878906 38.882812 C 58.757812 38.933594 58.628906 38.960938 58.496094 38.960938 Z M 58.496094 38.960938 " fill-opacity="1" fill-rule="nonzero"/><path fill="#537980" d="M 52.375 43.550781 L 22.285156 43.550781 C 22.152344 43.550781 22.023438 43.523438 21.902344 43.472656 C 21.777344 43.421875 21.667969 43.351562 21.574219 43.257812 C 21.480469 43.160156 21.410156 43.054688 21.359375 42.929688 C 21.308594 42.808594 21.28125 42.679688 21.28125 42.546875 C 21.28125 42.414062 21.308594 42.285156 21.359375 42.160156 C 21.410156 42.039062 21.480469 41.929688 21.574219 41.835938 C 21.667969 41.742188 21.777344 41.667969 21.902344 41.617188 C 22.023438 41.566406 22.152344 41.542969 22.285156 41.542969 L 52.375 41.542969 C 52.507812 41.542969 52.636719 41.566406 52.757812 41.617188 C 52.882812 41.667969 52.992188 41.742188 53.085938 41.835938 C 53.179688 41.929688 53.25 42.039062 53.304688 42.160156 C 53.355469 42.285156 53.378906 42.414062 53.378906 42.546875 C 53.378906 42.679688 53.355469 42.808594 53.304688 42.929688 C 53.25 43.054688 53.179688 43.160156 53.085938 43.257812 C 52.992188 43.351562 52.882812 43.421875 52.757812 43.472656 C 52.636719 43.523438 52.507812 43.550781 52.375 43.550781 Z M 52.375 43.550781 " fill-opacity="1" fill-rule="nonzero"/></svg>