<svg xmlns="http://www.w3.org/2000/svg" xmlns:xlink="http://www.w3.org/1999/xlink" width="200" zoomAndPan="magnify" viewBox="0 0 150 149.999998" height="200" preserveAspectRatio="xMidYMid meet" version="1.0"><defs><clipPath id="7226c9b6c6"><path d="M 41 107 L 109 107 L 109 140.933594 L 41 140.933594 Z M 41 107 " clip-rule="nonzero"/></clipPath><clipPath id="e747ade9b8"><path d="M 36 11.183594 L 114 11.183594 L 114 93 L 36 93 Z M 36 11.183594 " clip-rule="nonzero"/></clipPath><clipPath id="e1bf7f6ece"><path d="M 99 16 L 127.132812 16 L 127.132812 67 L 99 67 Z M 99 16 " clip-rule="nonzero"/></clipPath><clipPath id="d2de42e3a8"><path d="M 22.882812 16 L 51 16 L 51 67 L 22.882812 67 Z M 22.882812 16 " clip-rule="nonzero"/></clipPath><clipPath id="a1787f08d8"><path d="M 52 11.183594 L 77 11.183594 L 77 62 L 52 62 Z M 52 11.183594 " clip-rule="nonzero"/></clipPath></defs><g clip-path="url(#7226c9b6c6)"><path fill="#040364" d="M 106.730469 140.863281 L 43.105469 140.863281 C 42.042969 140.863281 41.207031 140.027344 41.207031 138.964844 L 41.207031 109.242188 C 41.207031 108.175781 42.042969 107.339844 43.105469 107.339844 L 106.730469 107.339844 C 107.792969 107.339844 108.628906 108.175781 108.628906 109.242188 L 108.628906 138.964844 C 108.628906 140.027344 107.792969 140.863281 106.730469 140.863281 Z M 45.007812 137.214844 L 104.980469 137.214844 L 104.980469 111.140625 L 45.007812 111.140625 Z M 45.007812 137.214844 " fill-opacity="1" fill-rule="nonzero"/></g><g clip-path="url(#e747ade9b8)"><path fill="#040364" d="M 74.957031 92.519531 C 57.398438 92.519531 38.847656 68.042969 36.796875 13.085938 C 36.796875 12.550781 36.949219 12.171875 37.328125 11.714844 C 37.632812 11.410156 38.164062 11.183594 38.699219 11.183594 L 111.367188 11.183594 C 111.898438 11.183594 112.355469 11.410156 112.8125 11.714844 C 113.113281 12.097656 113.265625 12.550781 113.265625 13.085938 C 111.0625 67.964844 92.515625 92.519531 74.957031 92.519531 Z M 40.445312 14.910156 C 42.878906 65.6875 59.980469 88.792969 74.957031 88.792969 C 90.007812 88.792969 106.957031 65.609375 109.316406 14.910156 Z M 40.445312 14.910156 " fill-opacity="1" fill-rule="nonzero"/></g><g clip-path="url(#e1bf7f6ece)"><path fill="#040364" d="M 101.789062 66.902344 C 100.726562 66.902344 99.890625 66.066406 99.890625 65 C 99.890625 63.9375 100.726562 63.101562 101.789062 63.101562 C 113.722656 63.101562 123.300781 53.371094 123.300781 41.4375 L 123.300781 20 L 111.0625 20 C 110 20 109.164062 19.089844 109.164062 18.101562 C 109.164062 17.035156 110 16.199219 111.0625 16.199219 L 125.203125 16.199219 C 126.265625 16.199219 127.101562 17.035156 127.101562 18.101562 L 127.101562 41.4375 C 127.027344 55.574219 115.699219 66.902344 101.789062 66.902344 Z M 101.789062 66.902344 " fill-opacity="1" fill-rule="nonzero"/></g><g clip-path="url(#d2de42e3a8)"><path fill="#040364" d="M 48.125 66.902344 C 34.210938 66.902344 22.886719 55.5 22.886719 41.589844 L 22.886719 18.175781 C 22.886719 17.113281 23.722656 16.277344 24.710938 16.277344 L 38.847656 16.277344 C 39.914062 16.277344 40.75 17.113281 40.75 18.175781 C 40.75 19.242188 39.914062 20.078125 38.847656 20.078125 L 26.535156 20.078125 L 26.535156 41.664062 C 26.535156 53.601562 36.265625 63.328125 48.125 63.328125 C 49.1875 63.328125 50.023438 64.164062 50.023438 65.152344 C 50.023438 66.21875 49.1875 66.902344 48.125 66.902344 Z M 48.125 66.902344 " fill-opacity="1" fill-rule="nonzero"/></g><path fill="#040364" d="M 83.699219 111.140625 C 82.9375 111.140625 82.328125 110.761719 82.027344 110.003906 C 77.464844 99.207031 79.0625 91.835938 80.429688 88.488281 C 80.808594 87.578125 81.875 87.121094 82.863281 87.425781 C 83.773438 87.882812 84.230469 88.945312 83.925781 89.859375 C 82.710938 92.671875 81.492188 99.054688 85.445312 108.632812 C 85.902344 109.546875 85.445312 110.609375 84.535156 111.066406 C 84.078125 111.066406 83.925781 111.140625 83.699219 111.140625 Z M 83.699219 111.140625 " fill-opacity="1" fill-rule="nonzero"/><path fill="#040364" d="M 66.289062 111.140625 C 66.0625 111.140625 65.757812 111.140625 65.53125 111.066406 C 64.617188 110.609375 64.164062 109.546875 64.617188 108.632812 C 68.265625 99.738281 67.582031 93.582031 66.214844 89.859375 C 65.835938 88.945312 66.289062 87.882812 67.203125 87.5 C 68.191406 87.199219 69.253906 87.652344 69.558594 88.566406 C 71.15625 92.898438 72.066406 100.121094 67.964844 110.078125 C 67.660156 110.761719 67.050781 111.140625 66.289062 111.140625 Z M 66.289062 111.140625 " fill-opacity="1" fill-rule="nonzero"/><g clip-path="url(#a1787f08d8)"><path fill="#040364" d="M 54.8125 61.050781 C 54.660156 61.050781 54.507812 61.050781 54.355469 61.050781 C 53.519531 60.898438 52.914062 60.136719 52.914062 59.300781 L 52.914062 13.085938 C 52.914062 12.097656 53.75 11.183594 54.8125 11.183594 C 55.875 11.183594 56.5625 12.097656 56.5625 13.085938 L 56.5625 50.9375 L 63.023438 37.179688 C 63.324219 36.496094 63.933594 36.117188 64.695312 36.117188 C 65.453125 36.117188 66.0625 36.496094 66.367188 37.179688 L 72.523438 50.710938 L 72.523438 13.085938 C 72.523438 12.097656 73.359375 11.183594 74.425781 11.183594 C 75.488281 11.183594 76.324219 12.097656 76.324219 13.085938 L 76.324219 59.300781 C 76.324219 60.136719 75.640625 60.898438 74.804688 61.050781 C 73.96875 61.277344 73.132812 60.898438 72.75 60.0625 L 64.695312 42.351562 L 56.484375 60.0625 C 56.179688 60.746094 55.421875 61.050781 54.8125 61.050781 Z M 54.8125 61.050781 " fill-opacity="1" fill-rule="nonzero"/></g></svg>