<svg xmlns="http://www.w3.org/2000/svg" xmlns:xlink="http://www.w3.org/1999/xlink" width="200" zoomAndPan="magnify" viewBox="0 0 150 149.999998" height="200" preserveAspectRatio="xMidYMid meet" version="1.0"><defs><clipPath id="86a5475052"><path d="M 1.460938 16.539062 L 145 16.539062 L 145 133.539062 L 1.460938 133.539062 Z M 1.460938 16.539062 " clip-rule="nonzero"/></clipPath></defs><g clip-path="url(#86a5475052)"><path fill="#040364" d="M 116.699219 69.371094 C 114.394531 71.273438 111.957031 73.183594 109.414062 75.089844 L 109.414062 46.082031 C 109.414062 44.882812 108.441406 43.910156 107.234375 43.910156 C 95.335938 43.910156 83.746094 39.75 74.574219 32.199219 C 73.769531 31.539062 72.617188 31.539062 71.8125 32.199219 C 62.640625 39.75 51.035156 43.910156 39.132812 43.910156 C 37.945312 43.910156 36.972656 44.882812 36.972656 46.082031 L 36.972656 81.972656 C 36.972656 90.0625 40.636719 97.054688 47.28125 101.660156 L 54.621094 106.734375 C 51.875 107.914062 49.167969 109.007812 46.53125 110.015625 L 42.867188 107.480469 C 34.355469 101.597656 29.667969 92.652344 29.667969 82.304688 L 29.667969 36.851562 L 37.414062 36.851562 C 48.652344 36.851562 59.601562 32.925781 68.261719 25.792969 L 73.183594 21.738281 L 78.109375 25.792969 C 86.769531 32.925781 97.734375 36.851562 108.957031 36.851562 L 116.699219 36.851562 Z M 105 83.582031 C 92.011719 92.613281 77.597656 100.921875 63.425781 107.542969 L 73.183594 114.296875 L 96.617188 98.089844 C 101.613281 94.628906 104.542969 89.523438 105 83.582031 Z M 82.832031 92.5 C 90.742188 87.933594 98.226562 83.128906 105.054688 78.261719 L 105.054688 48.210938 C 93.523438 47.757812 82.335938 43.707031 73.183594 36.65625 C 64.050781 43.707031 52.863281 47.757812 41.3125 48.210938 L 41.3125 81.972656 C 41.3125 88.59375 44.316406 94.320312 49.75 98.089844 L 59.269531 104.671875 C 66.960938 101.171875 74.921875 97.070312 82.832031 92.5 Z M 116.699219 82.304688 L 116.699219 74.921875 C 114.355469 76.773438 111.921875 78.617188 109.414062 80.449219 L 109.414062 81.972656 C 109.414062 90.0625 105.75 97.054688 99.089844 101.660156 L 74.429688 118.722656 C 73.683594 119.234375 72.703125 119.246094 71.957031 118.722656 L 58.8125 109.640625 C 56.121094 110.835938 53.449219 111.957031 50.832031 112.996094 L 73.183594 128.460938 L 103.519531 107.480469 C 112.011719 101.59375 116.699219 92.652344 116.699219 82.304688 Z M 143.738281 35.046875 C 142.019531 32.050781 138.574219 30.328125 133.488281 29.90625 L 135.902344 28.324219 C 136.910156 27.667969 137.203125 26.324219 136.542969 25.316406 C 135.882812 24.3125 134.53125 24.03125 133.523438 24.683594 L 125.082031 30.199219 C 123.878906 30.992188 123.773438 32.726562 124.863281 33.667969 L 132.515625 40.230469 C 133.433594 41.007812 134.804688 40.90625 135.574219 39.992188 C 136.359375 39.082031 136.25 37.710938 135.355469 36.929688 L 132.132812 34.171875 C 136.195312 34.347656 138.921875 35.390625 139.984375 37.21875 C 142.253906 41.140625 137.695312 49.417969 127.792969 59.363281 C 125.722656 61.445312 123.472656 63.554688 121.054688 65.6875 L 121.054688 34.675781 C 121.054688 33.476562 120.085938 32.503906 118.878906 32.503906 L 108.957031 32.503906 C 98.742188 32.503906 88.761719 28.929688 80.871094 22.4375 L 74.574219 17.246094 C 73.769531 16.585938 72.617188 16.585938 71.8125 17.246094 L 65.511719 22.4375 C 57.625 28.929688 47.644531 32.503906 37.414062 32.503906 L 27.492188 32.503906 C 26.300781 32.503906 25.332031 33.476562 25.332031 34.675781 L 25.332031 80.15625 C 16.105469 87.90625 1.570312 101.734375 1.496094 111.984375 C 1.457031 115.542969 3.085938 118.28125 6.179688 119.910156 C 8.46875 121.117188 11.015625 121.394531 12.242188 121.53125 L 13.082031 121.671875 C 14.566406 121.785156 16.160156 121.800781 17.84375 121.707031 L 15.078125 124.148438 C 13.535156 125.496094 14.550781 127.953125 16.507812 127.953125 C 17.019531 127.953125 17.53125 127.773438 17.933594 127.410156 L 26.335938 120.035156 C 27.445312 119.066406 27.28125 117.273438 26.007812 116.527344 L 17.347656 111.472656 C 16.304688 110.867188 14.988281 111.214844 14.382812 112.253906 C 13.777344 113.285156 14.125 114.621094 15.152344 115.226562 L 18.703125 117.296875 C 16.871094 117.445312 15.207031 117.460938 13.652344 117.355469 C 13.339844 117.28125 13.027344 117.246094 12.71875 117.210938 C 7.867188 116.679688 5.816406 115.121094 5.832031 112.011719 C 5.871094 106.207031 13.15625 96.535156 25.476562 85.742188 C 26.464844 95.996094 31.773438 105.089844 40.398438 111.058594 L 41.511719 111.835938 C 38.878906 112.75 36.3125 113.566406 33.84375 114.273438 C 32.6875 114.601562 32.011719 115.804688 32.339844 116.957031 C 32.675781 118.125 33.878906 118.769531 35.03125 118.453125 C 38.511719 117.457031 42.152344 116.257812 45.90625 114.878906 L 71.957031 132.890625 C 72.703125 133.410156 73.683594 133.398438 74.429688 132.890625 L 105.988281 111.058594 C 115.5625 104.429688 121.054688 93.949219 121.054688 82.304688 L 121.054688 71.386719 C 137.933594 57.257812 148.515625 43.292969 143.738281 35.046875 Z M 143.738281 35.046875 " fill-opacity="1" fill-rule="evenodd"/></g></svg>