<svg xmlns="http://www.w3.org/2000/svg" xmlns:xlink="http://www.w3.org/1999/xlink" width="200" zoomAndPan="magnify" viewBox="0 0 150 149.999998" height="200" preserveAspectRatio="xMidYMid meet" version="1.0"><defs><clipPath id="e12d3886b3"><path d="M 15 5.164062 L 136.5 5.164062 L 136.5 144.664062 L 15 144.664062 Z M 15 5.164062 " clip-rule="nonzero"/></clipPath></defs><g clip-path="url(#e12d3886b3)"><path fill="#040364" d="M 72.039062 31.992188 C 72.242188 31.992188 72.449219 31.964844 72.648438 31.90625 C 73.421875 31.691406 74.023438 31.078125 74.21875 30.296875 L 79.863281 8.195312 C 80.066406 7.414062 79.832031 6.589844 79.257812 6.027344 C 78.683594 5.46875 77.859375 5.253906 77.074219 5.472656 L 55.109375 11.636719 C 54.335938 11.851562 53.738281 12.464844 53.539062 13.246094 C 53.339844 14.023438 53.574219 14.847656 54.148438 15.410156 L 70.46875 31.351562 C 70.894531 31.765625 71.460938 31.992188 72.039062 31.992188 Z M 74.542969 10.855469 L 70.824219 25.410156 L 60.078125 14.914062 Z M 39.851562 103.148438 C 42.566406 105.261719 47.199219 105.261719 49.914062 103.148438 C 50.894531 102.382812 52.304688 102.5625 53.066406 103.542969 C 53.832031 104.523438 53.65625 105.9375 52.675781 106.699219 C 50.53125 108.367188 47.761719 109.285156 44.882812 109.285156 C 42 109.285156 39.230469 108.367188 37.089844 106.699219 C 36.109375 105.9375 35.933594 104.523438 36.695312 103.542969 C 37.457031 102.566406 38.875 102.382812 39.851562 103.148438 Z M 95.820312 82.671875 C 95.820312 85.972656 94.535156 89.082031 92.199219 91.414062 L 85.335938 98.28125 C 83.949219 99.667969 82.105469 100.429688 80.152344 100.429688 C 76.105469 100.429688 72.820312 97.140625 72.820312 93.097656 L 72.820312 92.785156 C 72.820312 91.542969 73.824219 90.539062 75.066406 90.539062 C 76.3125 90.539062 77.316406 91.542969 77.316406 92.785156 L 77.316406 93.097656 C 77.316406 94.65625 78.585938 95.929688 80.152344 95.929688 C 80.90625 95.929688 81.617188 95.636719 82.15625 95.101562 L 89.019531 88.234375 C 90.503906 86.746094 91.324219 84.773438 91.324219 82.671875 C 91.324219 78.335938 87.796875 74.804688 83.457031 74.804688 C 80.839844 74.804688 78.402344 76.101562 76.933594 78.277344 C 76.238281 79.304688 74.835938 79.578125 73.8125 78.878906 C 72.78125 78.1875 72.511719 76.785156 73.207031 75.757812 C 75.511719 72.34375 79.34375 70.308594 83.457031 70.308594 C 90.273438 70.308594 95.820312 75.855469 95.820312 82.671875 Z M 42.65625 81.246094 C 41.414062 81.246094 40.40625 80.242188 40.40625 78.996094 L 40.40625 74.421875 C 40.40625 73.175781 41.414062 72.171875 42.65625 72.171875 C 43.902344 72.171875 44.90625 73.175781 44.90625 74.421875 L 44.90625 78.996094 C 44.90625 80.242188 43.902344 81.246094 42.65625 81.246094 Z M 127.355469 9.402344 C 122.527344 9.402344 118.605469 13.328125 118.605469 18.152344 C 118.605469 20.5 119.546875 22.625 121.058594 24.199219 L 118.269531 28.804688 L 113.777344 24.308594 C 113.78125 24.214844 113.804688 24.121094 113.804688 24.027344 C 113.804688 21.363281 112.769531 18.863281 110.886719 16.984375 C 105.046875 11.140625 94.746094 12.527344 94.308594 12.585938 C 93.320312 12.722656 92.539062 13.503906 92.398438 14.496094 C 92.339844 14.929688 90.953125 25.226562 96.796875 31.070312 C 98.738281 33.011719 101.292969 33.984375 103.839844 33.984375 C 103.945312 33.984375 104.046875 33.957031 104.152344 33.953125 L 111.015625 40.820312 L 105.425781 50.085938 C 104.652344 49.859375 103.851562 49.703125 103.007812 49.703125 C 101.449219 49.703125 100.003906 50.148438 98.730469 50.867188 L 91.820312 43.808594 C 92.59375 42.5 93.070312 40.996094 93.070312 39.371094 C 93.070312 34.542969 89.144531 30.617188 84.316406 30.617188 C 79.492188 30.617188 75.570312 34.542969 75.570312 39.371094 C 75.570312 41.765625 76.539062 43.9375 78.105469 45.519531 L 70.257812 58.875 L 65.917969 58.875 C 69.117188 54.296875 70.273438 48.484375 68.878906 42.933594 C 68.875 42.90625 68.882812 42.878906 68.875 42.855469 C 67.597656 37.789062 64.421875 33.523438 59.9375 30.847656 C 55.453125 28.171875 50.199219 27.402344 45.128906 28.683594 C 45.109375 28.6875 45.097656 28.699219 45.082031 28.707031 C 34.652344 31.367188 28.3125 41.996094 30.949219 52.433594 C 31.550781 54.792969 32.59375 56.941406 33.957031 58.875 L 29.042969 58.875 C 27.914062 58.875 26.957031 59.710938 26.8125 60.835938 C 26.480469 63.425781 26.324219 65.5625 26.324219 67.550781 L 26.324219 74.261719 L 16.902344 88.742188 C 15.796875 90.433594 15.476562 92.515625 16.03125 94.449219 C 16.585938 96.390625 17.953125 97.996094 19.792969 98.851562 L 26.558594 101.996094 L 29.230469 117.261719 C 30.59375 125.023438 37.308594 130.65625 45.191406 130.65625 L 57.582031 130.65625 C 59.214844 130.65625 60.632812 131.800781 60.957031 133.386719 L 62.960938 143.035156 C 63.183594 144.097656 64.117188 144.828125 65.160156 144.828125 C 65.3125 144.828125 65.464844 144.8125 65.621094 144.78125 C 66.835938 144.527344 67.617188 143.335938 67.363281 142.117188 L 65.363281 132.476562 C 64.613281 128.816406 61.339844 126.15625 57.582031 126.15625 L 45.191406 126.15625 C 39.496094 126.15625 34.648438 122.085938 33.664062 116.480469 L 30.785156 100.058594 C 30.660156 99.335938 30.183594 98.71875 29.519531 98.410156 L 21.695312 94.769531 C 21.03125 94.460938 20.554688 93.910156 20.359375 93.214844 C 20.164062 92.523438 20.273438 91.808594 20.671875 91.199219 L 30.457031 76.152344 C 30.695312 75.789062 30.824219 75.359375 30.824219 74.925781 L 30.824219 67.550781 C 30.824219 66.25 30.894531 64.914062 31.050781 63.371094 L 95.785156 63.371094 C 97.363281 65.679688 100.015625 67.199219 103.015625 67.199219 C 106.015625 67.199219 108.664062 65.679688 110.238281 63.371094 L 123.949219 63.371094 C 123.527344 72.875 120.546875 84.65625 116.117188 94.074219 C 114.355469 97.808594 112.136719 102.671875 110.050781 107.40625 C 107.070312 114.0625 106.277344 121.398438 107.761719 128.621094 L 110.753906 143.035156 C 110.976562 144.101562 111.910156 144.828125 112.953125 144.828125 C 113.105469 144.828125 113.261719 144.8125 113.414062 144.78125 C 114.628906 144.53125 115.414062 143.335938 115.160156 142.121094 L 112.167969 127.710938 C 110.875 121.417969 111.558594 115.035156 114.160156 109.234375 C 116.242188 104.519531 118.4375 99.695312 120.1875 95.992188 C 125.238281 85.257812 128.496094 71.570312 128.496094 61.117188 C 128.496094 59.875 127.492188 58.867188 126.25 58.867188 L 111.71875 58.867188 C 111.726562 58.726562 111.761719 58.59375 111.761719 58.445312 C 111.761719 56.089844 110.816406 53.960938 109.296875 52.386719 L 114.300781 44.09375 L 119.195312 48.988281 C 120.488281 50.285156 122.195312 51 124 51 C 125.824219 51 127.539062 50.285156 128.828125 48.988281 C 131.464844 46.351562 131.472656 42.03125 128.828125 39.355469 L 121.554688 32.078125 L 124.925781 26.511719 C 125.703125 26.738281 126.511719 26.898438 127.363281 26.898438 C 132.1875 26.898438 136.109375 22.976562 136.109375 18.148438 C 136.105469 13.328125 132.179688 9.402344 127.355469 9.402344 Z M 84.320312 35.113281 C 86.664062 35.113281 88.574219 37.023438 88.574219 39.367188 C 88.574219 41.710938 86.664062 43.617188 84.320312 43.617188 C 81.976562 43.617188 80.070312 41.710938 80.070312 39.367188 C 80.070312 37.023438 81.976562 35.113281 84.320312 35.113281 Z M 57.636719 34.710938 C 60.4375 36.382812 62.574219 38.855469 63.808594 41.8125 L 51.550781 44.910156 L 48.457031 32.652344 C 51.636719 32.332031 54.835938 33.035156 57.636719 34.710938 Z M 35.316406 51.324219 C 33.472656 44.019531 37.351562 36.609375 44.101562 33.78125 L 47.742188 48.191406 C 47.886719 48.769531 48.257812 49.269531 48.769531 49.570312 C 49.121094 49.78125 49.519531 49.890625 49.921875 49.890625 C 50.109375 49.890625 50.292969 49.867188 50.476562 49.824219 L 64.898438 46.179688 C 65.371094 50.917969 63.523438 55.648438 59.917969 58.875 L 39.957031 58.875 C 37.691406 56.871094 36.070312 54.292969 35.316406 51.324219 Z M 75.480469 58.871094 L 82.007812 47.765625 C 82.75 47.96875 83.515625 48.117188 84.320312 48.117188 C 85.882812 48.117188 87.332031 47.671875 88.601562 46.949219 L 95.511719 54.007812 C 94.734375 55.316406 94.261719 56.824219 94.261719 58.449219 C 94.261719 58.59375 94.296875 58.730469 94.304688 58.875 L 75.480469 58.875 Z M 103.007812 62.703125 C 101.308594 62.703125 99.851562 61.691406 99.171875 60.246094 C 99.167969 60.242188 99.164062 60.242188 99.164062 60.238281 C 98.910156 59.691406 98.757812 59.089844 98.757812 58.449219 C 98.757812 56.105469 100.664062 54.199219 103.007812 54.199219 C 105.351562 54.199219 107.261719 56.105469 107.261719 58.449219 C 107.261719 60.792969 105.351562 62.703125 103.007812 62.703125 Z M 96.726562 16.910156 C 99.453125 16.832031 104.65625 17.117188 107.707031 20.164062 C 108.738281 21.195312 109.308594 22.566406 109.308594 24.027344 C 109.308594 25.484375 108.738281 26.859375 107.707031 27.890625 C 105.574219 30.019531 102.109375 30.019531 99.976562 27.890625 C 96.933594 24.84375 96.644531 19.636719 96.726562 16.910156 Z M 125.640625 45.8125 C 124.761719 46.695312 123.28125 46.71875 122.371094 45.808594 L 109.050781 32.488281 C 109.699219 32.085938 110.324219 31.632812 110.886719 31.070312 C 111.449219 30.503906 111.910156 29.871094 112.316406 29.210938 L 125.632812 42.523438 C 126.535156 43.4375 126.539062 44.914062 125.640625 45.8125 Z M 127.355469 22.402344 C 125.007812 22.402344 123.101562 20.492188 123.101562 18.148438 C 123.101562 15.804688 125.007812 13.898438 127.355469 13.898438 C 129.699219 13.898438 131.605469 15.804688 131.605469 18.148438 C 131.605469 20.492188 129.699219 22.402344 127.355469 22.402344 Z M 23.566406 20.992188 L 28.671875 23.457031 L 32.402344 27.722656 C 32.820312 28.195312 33.414062 28.472656 34.042969 28.488281 C 34.0625 28.488281 34.078125 28.488281 34.09375 28.488281 C 34.703125 28.488281 35.292969 28.238281 35.714844 27.792969 L 39.636719 23.707031 L 44.84375 21.46875 C 45.425781 21.222656 45.875 20.742188 46.082031 20.144531 C 46.289062 19.550781 46.238281 18.894531 45.941406 18.339844 L 43.261719 13.34375 L 42.746094 7.703125 C 42.691406 7.074219 42.371094 6.5 41.867188 6.117188 C 41.367188 5.734375 40.722656 5.578125 40.105469 5.691406 L 34.53125 6.699219 L 29.003906 5.445312 C 28.394531 5.304688 27.742188 5.429688 27.226562 5.789062 C 26.710938 6.148438 26.363281 6.707031 26.277344 7.335938 L 25.511719 12.949219 L 22.609375 17.816406 C 22.285156 18.359375 22.207031 19.011719 22.386719 19.617188 C 22.570312 20.21875 22.996094 20.71875 23.566406 20.992188 Z M 29.609375 14.859375 C 29.765625 14.597656 29.867188 14.308594 29.90625 14.011719 L 30.402344 10.375 L 33.984375 11.1875 C 34.28125 11.253906 34.585938 11.261719 34.878906 11.207031 L 38.488281 10.554688 L 38.820312 14.210938 C 38.847656 14.511719 38.9375 14.804688 39.078125 15.070312 L 40.8125 18.304688 L 37.4375 19.75 C 37.164062 19.871094 36.914062 20.042969 36.703125 20.265625 L 34.167969 22.910156 L 31.75 20.148438 C 31.554688 19.921875 31.308594 19.734375 31.035156 19.605469 L 27.730469 18.011719 Z M 29.609375 14.859375 " fill-opacity="1" fill-rule="nonzero"/></g></svg>