<svg xmlns="http://www.w3.org/2000/svg" xmlns:xlink="http://www.w3.org/1999/xlink" width="200" zoomAndPan="magnify" viewBox="0 0 150 149.999998" height="200" preserveAspectRatio="xMidYMid meet" version="1.0"><defs><clipPath id="e3a699c72e"><path d="M 17.25 7 L 129.75 7 L 129.75 143 L 17.25 143 Z M 17.25 7 " clip-rule="nonzero"/></clipPath></defs><g clip-path="url(#e3a699c72e)"><path fill="#040364" d="M 73.367188 7.464844 C 72.570312 7.480469 71.9375 8.132812 71.953125 8.921875 L 71.953125 19.734375 C 71.921875 20.546875 72.578125 21.222656 73.386719 21.222656 C 74.199219 21.222656 74.84375 20.546875 74.824219 19.734375 L 74.824219 8.921875 C 74.839844 8.109375 74.179688 7.449219 73.367188 7.464844 Z M 59.265625 9.324219 C 58.296875 9.304688 57.585938 10.230469 57.851562 11.15625 L 60.652344 21.601562 C 60.839844 22.390625 61.636719 22.871094 62.425781 22.664062 C 63.207031 22.457031 63.660156 21.636719 63.421875 20.863281 L 60.625 10.414062 C 60.464844 9.785156 59.914062 9.347656 59.265625 9.324219 Z M 45.984375 14.796875 C 44.902344 14.832031 44.246094 16.03125 44.808594 16.964844 L 50.21875 26.332031 C 50.601562 27.042969 51.5 27.292969 52.203125 26.890625 C 52.898438 26.484375 53.128906 25.585938 52.703125 24.890625 L 47.296875 15.527344 C 47.03125 15.054688 46.53125 14.773438 45.984375 14.796875 Z M 94.066406 19.007812 C 91.128906 19.023438 88.078125 19.375 84.933594 20.109375 L 88.3125 32.707031 C 88.953125 32.253906 89.683594 31.902344 90.480469 31.695312 C 91.386719 31.453125 92.296875 31.410156 93.175781 31.53125 C 95.796875 31.894531 98.085938 33.792969 98.808594 36.503906 C 99.78125 40.117188 97.617188 43.863281 94 44.832031 C 93.203125 45.042969 92.398438 45.105469 91.617188 45.035156 L 95.035156 57.777344 L 107.367188 54.476562 C 108.632812 53.878906 109.917969 55.257812 109.234375 56.476562 C 109.226562 56.492188 109.21875 56.507812 109.207031 56.523438 C 108.703125 57.398438 108.53125 58.445312 108.816406 59.5 C 109.386719 61.613281 111.519531 62.847656 113.628906 62.28125 C 115.738281 61.710938 116.96875 59.578125 116.40625 57.46875 C 116.121094 56.414062 115.445312 55.589844 114.574219 55.085938 C 114.5625 55.078125 114.546875 55.070312 114.539062 55.0625 C 114.527344 55.058594 114.511719 55.050781 114.503906 55.042969 C 113.371094 54.316406 113.765625 52.574219 115.101562 52.40625 L 126.875 49.257812 C 126.558594 46.097656 126.003906 43.195312 125.042969 40.425781 C 124.707031 40.554688 124.363281 40.664062 124.003906 40.761719 C 118.351562 42.277344 112.5 38.894531 110.988281 33.246094 C 110.140625 30.078125 110.820312 26.847656 112.582031 24.359375 C 107.398438 20.917969 101.078125 18.988281 94.058594 19.015625 Z M 121.1875 22.726562 C 120.550781 22.742188 119.894531 22.820312 119.25 23 C 115.09375 24.113281 112.644531 28.34375 113.757812 32.5 C 114.878906 36.648438 119.105469 39.097656 123.261719 37.984375 C 127.421875 36.871094 129.859375 32.636719 128.75 28.484375 C 127.914062 25.371094 125.324219 23.210938 122.328125 22.800781 C 121.957031 22.75 121.574219 22.726562 121.1875 22.726562 Z M 34.714844 23.476562 C 33.421875 23.476562 32.789062 25.046875 33.714844 25.945312 L 41.359375 33.589844 C 41.929688 34.15625 42.832031 34.15625 43.398438 33.589844 C 43.960938 33.03125 43.960938 32.125 43.398438 31.558594 L 35.746094 23.914062 C 35.472656 23.632812 35.101562 23.476562 34.714844 23.476562 Z M 124.21875 25.699219 C 125.324219 25.722656 125.992188 26.941406 125.417969 27.890625 L 121.828125 33.964844 C 121.433594 34.640625 120.570312 34.867188 119.890625 34.488281 L 117.039062 32.878906 C 116.335938 32.492188 116.078125 31.609375 116.472656 30.90625 C 116.867188 30.210938 117.757812 29.964844 118.453125 30.375 L 120.066406 31.285156 L 122.941406 26.425781 C 123.199219 25.972656 123.6875 25.695312 124.21875 25.699219 Z M 71.9375 28.84375 C 48.964844 29.621094 35.546875 48.214844 38.96875 67.878906 L 48.769531 67.878906 C 48.496094 67.140625 48.355469 66.351562 48.355469 65.523438 C 48.355469 61.785156 51.414062 58.726562 55.152344 58.726562 C 58.894531 58.726562 61.953125 61.785156 61.953125 65.523438 C 61.953125 66.351562 61.800781 67.140625 61.535156 67.878906 L 71.960938 67.878906 C 71.894531 62.242188 72.007812 54.339844 72.03125 52.085938 C 72.03125 52.0625 72.03125 52.042969 72.03125 52.027344 C 72.03125 52.019531 72.03125 52.011719 72.03125 52.003906 C 72.066406 51.246094 72.691406 50.640625 73.453125 50.632812 C 73.890625 50.628906 74.308594 50.820312 74.578125 51.164062 C 75.285156 51.820312 76.21875 52.222656 77.257812 52.222656 C 79.449219 52.222656 81.183594 50.484375 81.183594 48.300781 C 81.183594 46.113281 79.449219 44.375 77.257812 44.375 C 76.167969 44.375 75.199219 44.8125 74.480469 45.523438 C 74.464844 45.542969 74.449219 45.558594 74.429688 45.574219 C 74.421875 45.582031 74.414062 45.585938 74.402344 45.59375 C 74.371094 45.625 74.34375 45.644531 74.3125 45.667969 C 74.277344 45.695312 74.234375 45.722656 74.199219 45.746094 C 74.191406 45.746094 74.191406 45.746094 74.191406 45.746094 C 73.230469 46.304688 72.023438 45.609375 72.03125 44.496094 C 72.03125 41.308594 71.996094 32.988281 71.9375 28.839844 Z M 26.078125 34.804688 C 24.570312 34.746094 24.007812 36.757812 25.324219 37.496094 L 34.691406 42.902344 C 36.351562 43.84375 37.777344 41.375 36.128906 40.410156 L 26.757812 35.003906 C 26.558594 34.882812 26.320312 34.8125 26.078125 34.804688 Z M 20.527344 47.984375 C 18.855469 48.027344 18.589844 50.410156 20.210938 50.820312 L 30.664062 53.621094 C 32.496094 54.085938 33.226562 51.351562 31.402344 50.84375 L 20.949219 48.042969 C 20.8125 48 20.671875 47.984375 20.527344 47.984375 Z M 55.152344 61.597656 C 52.964844 61.597656 51.226562 63.34375 51.226562 65.523438 C 51.226562 66.617188 51.664062 67.585938 52.375 68.304688 C 52.386719 68.316406 52.402344 68.332031 52.417969 68.347656 C 52.445312 68.375 52.476562 68.410156 52.496094 68.445312 C 52.503906 68.445312 52.503906 68.453125 52.511719 68.460938 C 52.53125 68.488281 52.554688 68.519531 52.566406 68.554688 C 52.574219 68.5625 52.582031 68.574219 52.589844 68.582031 C 52.609375 68.613281 52.625 68.640625 52.640625 68.667969 C 52.648438 68.683594 52.652344 68.699219 52.660156 68.710938 C 52.675781 68.742188 52.691406 68.777344 52.699219 68.804688 C 52.703125 68.820312 52.710938 68.835938 52.71875 68.847656 C 52.734375 68.882812 52.742188 68.921875 52.753906 68.957031 C 52.753906 68.964844 52.753906 68.96875 52.753906 68.976562 C 52.769531 69.011719 52.777344 69.050781 52.777344 69.085938 C 52.785156 69.101562 52.785156 69.105469 52.785156 69.121094 C 52.789062 69.15625 52.789062 69.1875 52.796875 69.222656 C 52.796875 69.234375 52.796875 69.25 52.796875 69.265625 C 52.796875 69.285156 52.796875 69.316406 52.796875 69.335938 C 52.796875 69.367188 52.796875 69.394531 52.796875 69.414062 C 52.789062 69.421875 52.789062 69.4375 52.789062 69.445312 C 52.789062 69.480469 52.785156 69.523438 52.777344 69.566406 C 52.769531 69.609375 52.753906 69.652344 52.746094 69.703125 C 52.734375 69.746094 52.71875 69.796875 52.703125 69.839844 C 52.699219 69.847656 52.699219 69.855469 52.691406 69.855469 C 52.660156 69.941406 52.617188 70.019531 52.566406 70.089844 C 52.546875 70.132812 52.519531 70.167969 52.488281 70.210938 C 52.210938 70.558594 51.792969 70.757812 51.347656 70.75 L 39.429688 70.75 C 39.457031 70.859375 39.480469 70.960938 39.507812 71.058594 C 42.375 81.757812 48.179688 88.398438 53.449219 94.046875 C 56.085938 96.875 58.589844 99.441406 60.492188 102.183594 C 62.109375 104.515625 63.105469 107.09375 63.421875 109.90625 L 71.953125 109.90625 C 71.953125 104.234375 71.9375 98.527344 71.9375 92.847656 C 71.199219 93.121094 70.402344 93.273438 69.574219 93.273438 C 65.835938 93.273438 62.777344 90.214844 62.777344 86.472656 C 62.777344 82.734375 65.835938 79.675781 69.574219 79.675781 C 70.402344 79.675781 71.199219 79.824219 71.9375 80.097656 L 71.953125 70.75 L 58.949219 70.75 C 58.9375 70.75 58.921875 70.75 58.90625 70.75 C 58.855469 70.75 58.808594 70.742188 58.757812 70.738281 C 58.75 70.738281 58.75 70.738281 58.75 70.738281 C 58.707031 70.730469 58.664062 70.722656 58.621094 70.714844 C 58.621094 70.714844 58.613281 70.714844 58.605469 70.714844 C 58.570312 70.707031 58.535156 70.695312 58.503906 70.679688 C 58.492188 70.679688 58.476562 70.671875 58.460938 70.671875 C 58.433594 70.65625 58.398438 70.644531 58.367188 70.628906 C 58.355469 70.621094 58.347656 70.621094 58.332031 70.613281 C 58.296875 70.59375 58.261719 70.578125 58.226562 70.558594 C 58.21875 70.550781 58.21875 70.550781 58.210938 70.550781 C 58.183594 70.527344 58.144531 70.507812 58.109375 70.484375 C 58.109375 70.476562 58.101562 70.472656 58.097656 70.464844 C 58.066406 70.441406 58.039062 70.421875 58.011719 70.390625 C 58.003906 70.386719 57.996094 70.378906 57.980469 70.371094 C 57.960938 70.347656 57.929688 70.320312 57.910156 70.296875 C 57.894531 70.292969 57.886719 70.285156 57.878906 70.277344 C 57.859375 70.25 57.835938 70.226562 57.824219 70.207031 C 57.808594 70.191406 57.792969 70.175781 57.789062 70.164062 C 57.773438 70.140625 57.757812 70.121094 57.746094 70.097656 C 57.730469 70.078125 57.722656 70.0625 57.707031 70.039062 C 57.695312 70.019531 57.679688 69.996094 57.671875 69.976562 C 57.660156 69.953125 57.652344 69.933594 57.636719 69.910156 C 57.628906 69.890625 57.621094 69.859375 57.613281 69.839844 C 57.609375 69.816406 57.601562 69.804688 57.59375 69.78125 C 57.585938 69.753906 57.570312 69.722656 57.566406 69.695312 C 57.566406 69.679688 57.558594 69.660156 57.550781 69.636719 C 57.550781 69.617188 57.542969 69.59375 57.542969 69.574219 C 57.535156 69.542969 57.535156 69.523438 57.527344 69.496094 C 57.527344 69.480469 57.527344 69.457031 57.527344 69.445312 C 57.523438 69.414062 57.523438 69.378906 57.523438 69.351562 C 57.523438 69.335938 57.523438 69.324219 57.523438 69.300781 C 57.523438 69.273438 57.523438 69.242188 57.523438 69.207031 C 57.527344 69.191406 57.527344 69.171875 57.527344 69.15625 C 57.527344 69.128906 57.535156 69.09375 57.542969 69.0625 C 57.542969 69.050781 57.542969 69.042969 57.542969 69.027344 C 57.550781 68.992188 57.558594 68.957031 57.570312 68.921875 C 57.570312 68.921875 57.570312 68.914062 57.578125 68.90625 C 57.585938 68.871094 57.601562 68.828125 57.613281 68.792969 C 57.621094 68.777344 57.628906 68.769531 57.636719 68.753906 C 57.652344 68.726562 57.664062 68.691406 57.679688 68.65625 C 57.6875 68.648438 57.6875 68.648438 57.695312 68.640625 C 57.757812 68.519531 57.835938 68.402344 57.9375 68.308594 C 58.648438 67.597656 59.085938 66.621094 59.085938 65.53125 C 59.085938 63.347656 57.34375 61.613281 55.160156 61.613281 Z M 29.550781 62.136719 C 29.550781 62.136719 29.542969 62.136719 29.535156 62.136719 L 18.71875 62.136719 C 17.90625 62.105469 17.230469 62.761719 17.230469 63.570312 C 17.230469 64.390625 17.90625 65.042969 18.71875 65.015625 L 29.535156 65.015625 C 30.347656 65.042969 31.023438 64.398438 31.03125 63.585938 C 31.03125 62.773438 30.363281 62.113281 29.550781 62.136719 Z M 74.824219 70.75 L 74.800781 82.683594 C 74.800781 82.710938 74.800781 82.734375 74.800781 82.761719 C 74.765625 84.148438 72.984375 84.679688 72.1875 83.550781 C 71.5 82.925781 70.589844 82.546875 69.574219 82.546875 C 67.386719 82.546875 65.648438 84.285156 65.648438 86.472656 C 65.648438 88.65625 67.386719 90.394531 69.574219 90.394531 C 70.589844 90.394531 71.492188 90.019531 72.1875 89.394531 C 72.992188 88.246094 74.800781 88.808594 74.800781 90.214844 C 74.800781 90.234375 74.800781 90.257812 74.800781 90.273438 C 74.800781 96.796875 74.824219 103.375 74.832031 109.90625 L 83.316406 109.90625 C 83.632812 107.101562 84.625 104.542969 86.230469 102.238281 C 88.128906 99.53125 90.617188 97.007812 93.246094 94.207031 C 98.5 88.613281 104.300781 81.980469 107.230469 71.058594 C 107.261719 70.964844 107.273438 70.84375 107.296875 70.75 L 98.007812 70.75 C 98.277344 71.492188 98.429688 72.28125 98.429688 73.105469 C 98.429688 76.847656 95.363281 79.90625 91.632812 79.90625 C 87.890625 79.90625 84.824219 76.847656 84.824219 73.105469 C 84.824219 72.28125 84.976562 71.492188 85.25 70.75 Z M 31.042969 73.480469 C 30.914062 73.480469 30.785156 73.5 30.65625 73.53125 L 20.210938 76.328125 C 19.433594 76.53125 18.96875 77.320312 19.175781 78.09375 C 19.386719 78.871094 20.183594 79.324219 20.949219 79.109375 L 31.402344 76.308594 C 33.046875 75.890625 32.738281 73.472656 31.042969 73.480469 Z M 35.472656 84.046875 C 35.203125 84.039062 34.929688 84.113281 34.691406 84.25 L 25.324219 89.652344 C 24.613281 90.042969 24.351562 90.9375 24.761719 91.644531 C 25.164062 92.347656 26.070312 92.570312 26.757812 92.144531 L 36.128906 86.738281 C 37.398438 86.027344 36.929688 84.097656 35.472656 84.046875 Z M 42.351562 93.121094 C 41.980469 93.136719 41.625 93.285156 41.359375 93.558594 L 33.714844 101.207031 C 33.125 101.757812 33.113281 102.691406 33.679688 103.265625 C 34.253906 103.839844 35.1875 103.828125 35.746094 103.238281 L 43.398438 95.589844 C 44.339844 94.679688 43.664062 93.085938 42.351562 93.121094 Z M 61.871094 112.777344 C 60.523438 112.777344 59.476562 113.828125 59.476562 115.175781 C 59.476562 116.527344 60.523438 117.566406 61.871094 117.566406 L 84.859375 117.566406 C 86.210938 117.566406 87.25 116.527344 87.25 115.175781 C 87.25 113.828125 86.210938 112.777344 84.859375 112.777344 Z M 62.324219 120.4375 L 62.460938 131.726562 C 62.527344 137.757812 67.292969 142.550781 73.359375 142.550781 C 79.425781 142.550781 84.1875 137.757812 84.257812 131.726562 L 84.402344 120.4375 Z M 67.960938 130.109375 L 78.773438 130.109375 C 79.570312 130.101562 80.222656 130.75 80.222656 131.546875 C 80.222656 132.34375 79.570312 132.988281 78.773438 132.980469 L 67.960938 132.980469 C 67.15625 132.988281 66.511719 132.34375 66.511719 131.546875 C 66.511719 130.75 67.15625 130.101562 67.960938 130.109375 Z M 67.960938 130.109375 " fill-opacity="1" fill-rule="nonzero"/></g></svg>