<svg xmlns="http://www.w3.org/2000/svg" xmlns:xlink="http://www.w3.org/1999/xlink" width="200" zoomAndPan="magnify" viewBox="0 0 150 149.999998" height="200" preserveAspectRatio="xMidYMid meet" version="1.0"><defs><clipPath id="b451d5afd1"><path d="M 25 34 L 133 34 L 133 141.210938 L 25 141.210938 Z M 25 34 " clip-rule="nonzero"/></clipPath><clipPath id="58667859f7"><path d="M 12.359375 81 L 102 81 L 102 123 L 12.359375 123 Z M 12.359375 81 " clip-rule="nonzero"/></clipPath><clipPath id="292b967577"><path d="M 53 8.460938 L 141.359375 8.460938 L 141.359375 123 L 53 123 Z M 53 8.460938 " clip-rule="nonzero"/></clipPath></defs><g clip-path="url(#b451d5afd1)"><path fill="#040364" d="M 130.402344 130.195312 L 95.464844 95.253906 C 99.988281 88.929688 102.65625 81.195312 102.65625 72.839844 C 102.65625 51.527344 85.316406 34.1875 64.003906 34.1875 C 42.691406 34.1875 25.351562 51.527344 25.351562 72.839844 C 25.351562 94.152344 42.691406 111.496094 64.003906 111.496094 C 72.355469 111.496094 80.09375 108.824219 86.421875 104.300781 L 121.359375 139.238281 C 122.605469 140.488281 124.242188 141.113281 125.878906 141.113281 C 127.515625 141.113281 129.15625 140.488281 130.402344 139.238281 C 132.898438 136.738281 132.898438 132.691406 130.402344 130.195312 Z M 28.761719 72.839844 C 28.761719 53.375 44.539062 37.597656 64.003906 37.597656 C 83.46875 37.597656 99.246094 53.375 99.246094 72.839844 C 99.246094 92.304688 83.46875 108.082031 64.003906 108.082031 C 44.539062 108.082031 28.761719 92.304688 28.761719 72.839844 Z M 28.761719 72.839844 " fill-opacity="1" fill-rule="nonzero"/></g><path fill="#040364" d="M 72.878906 108.835938 C 73.234375 110.941406 75.125 112.472656 77.296875 112.304688 C 79.589844 112.125 81.304688 110.117188 81.125 107.824219 L 80.964844 105.800781 C 78.425781 107.109375 75.71875 108.136719 72.878906 108.835938 Z M 72.878906 108.835938 " fill-opacity="1" fill-rule="nonzero"/><path fill="#040364" d="M 76.796875 31.246094 C 73.894531 31.339844 71.59375 33.667969 71.488281 36.527344 C 75.363281 37.320312 79.007812 38.726562 82.335938 40.625 L 82.453125 36.90625 C 82.457031 36.796875 82.457031 36.671875 82.453125 36.558594 C 82.359375 33.527344 79.828125 31.152344 76.796875 31.246094 Z M 76.796875 31.246094 " fill-opacity="1" fill-rule="nonzero"/><path fill="#040364" d="M 75.097656 87.527344 C 77.996094 87.617188 80.417969 85.34375 80.511719 82.449219 L 81.667969 45.6875 C 77.832031 43.183594 73.4375 41.472656 68.703125 40.78125 L 70.019531 82.449219 C 70.113281 85.1875 72.320312 87.441406 75.097656 87.527344 Z M 75.097656 87.527344 " fill-opacity="1" fill-rule="nonzero"/><path fill="#040364" d="M 75.675781 95.796875 C 72.78125 95.570312 70.246094 97.730469 70.019531 100.628906 L 69.699219 104.734375 C 73.589844 104.042969 77.242188 102.664062 80.515625 100.71875 L 80.511719 100.632812 C 80.3125 98.089844 78.292969 96 75.675781 95.796875 Z M 75.675781 95.796875 " fill-opacity="1" fill-rule="nonzero"/><path fill="#040364" d="M 48.890625 44.121094 C 46.03125 45.628906 43.425781 47.546875 41.152344 49.800781 L 32.613281 64.59375 C 31.921875 67.226562 31.554688 69.992188 31.554688 72.839844 C 31.554688 73.265625 31.570312 73.679688 31.582031 74.097656 Z M 48.890625 44.121094 " fill-opacity="1" fill-rule="nonzero"/><g clip-path="url(#58667859f7)"><path fill="#040364" d="M 24.417969 119.195312 C 21.535156 119.195312 18.84375 117.644531 17.402344 115.144531 C 15.960938 112.648438 15.960938 109.546875 17.402344 107.046875 L 29.429688 86.214844 C 28.878906 84.789062 28.40625 83.320312 28.03125 81.816406 L 14.449219 105.339844 C 12.402344 108.890625 12.402344 113.300781 14.449219 116.851562 C 16.5 120.402344 20.320312 122.609375 24.417969 122.609375 L 101.109375 122.609375 L 97.699219 119.195312 Z M 24.417969 119.195312 " fill-opacity="1" fill-rule="nonzero"/></g><g clip-path="url(#292b967577)"><path fill="#040364" d="M 139.171875 104.824219 L 86.929688 14.335938 C 84.878906 10.785156 81.058594 8.582031 76.960938 8.582031 C 72.859375 8.582031 69.042969 10.785156 66.992188 14.335938 L 53.785156 37.207031 C 55.257812 36.785156 56.761719 36.445312 58.300781 36.207031 L 69.945312 16.039062 C 71.386719 13.542969 74.074219 11.992188 76.960938 11.992188 C 79.84375 11.992188 82.53125 13.542969 83.976562 16.039062 L 136.242188 106.570312 L 136.292969 106.65625 C 137.160156 107.972656 137.621094 109.507812 137.621094 111.097656 C 137.621094 115.5625 133.988281 119.195312 129.519531 119.195312 L 123.023438 119.195312 L 126.433594 122.605469 L 129.519531 122.605469 C 135.867188 122.605469 141.03125 117.445312 141.03125 111.097656 C 141.03125 108.859375 140.386719 106.691406 139.171875 104.824219 Z M 139.171875 104.824219 " fill-opacity="1" fill-rule="nonzero"/></g></svg>