<svg xmlns="http://www.w3.org/2000/svg" xmlns:xlink="http://www.w3.org/1999/xlink" width="200" zoomAndPan="magnify" viewBox="0 0 150 149.999998" height="200" preserveAspectRatio="xMidYMid meet" version="1.0"><defs><clipPath id="0e9538ab5b"><path d="M 26 123 L 126 123 L 126 128.675781 L 26 128.675781 Z M 26 123 " clip-rule="nonzero"/></clipPath><clipPath id="f0dea0ca54"><path d="M 69 13.925781 L 82 13.925781 L 82 30 L 69 30 Z M 69 13.925781 " clip-rule="nonzero"/></clipPath><clipPath id="8570a4911b"><path d="M 18.652344 31 L 71 31 L 71 97 L 18.652344 97 Z M 18.652344 31 " clip-rule="nonzero"/></clipPath><clipPath id="3f8629f842"><path d="M 80 31 L 133.402344 31 L 133.402344 97 L 80 97 Z M 80 31 " clip-rule="nonzero"/></clipPath></defs><g clip-path="url(#0e9538ab5b)"><path fill="#040364" d="M 120.792969 123.304688 L 30.964844 123.304688 C 29.195312 123.304688 27.617188 124.488281 27.121094 126.1875 L 26.484375 128.382812 L 125.273438 128.382812 L 124.636719 126.1875 C 124.140625 124.488281 122.5625 123.304688 120.792969 123.304688 Z M 120.792969 123.304688 " fill-opacity="1" fill-rule="nonzero"/></g><path fill="#040364" d="M 72.867188 31.386719 L 78.890625 31.386719 L 78.890625 34.542969 L 72.867188 34.542969 Z M 72.867188 31.386719 " fill-opacity="1" fill-rule="nonzero"/><g clip-path="url(#f0dea0ca54)"><path fill="#040364" d="M 79.410156 29.511719 C 80.90625 27.867188 81.800781 25.320312 81.800781 22.59375 C 81.800781 17.816406 79.144531 13.925781 75.878906 13.925781 C 72.613281 13.925781 69.953125 17.816406 69.953125 22.59375 C 69.953125 25.320312 70.847656 27.867188 72.34375 29.511719 Z M 79.410156 29.511719 " fill-opacity="1" fill-rule="nonzero"/></g><path fill="#040364" d="M 72.867188 36.417969 L 78.890625 36.417969 L 78.890625 108.992188 L 72.867188 108.992188 Z M 72.867188 36.417969 " fill-opacity="1" fill-rule="nonzero"/><path fill="#040364" d="M 50.984375 116.375 C 49.246094 116.375 47.6875 117.542969 47.203125 119.210938 L 46.554688 121.425781 L 105.199219 121.425781 L 104.554688 119.210938 C 104.066406 117.539062 102.511719 116.375 100.769531 116.375 Z M 50.984375 116.375 " fill-opacity="1" fill-rule="nonzero"/><path fill="#040364" d="M 71.929688 110.867188 L 61.378906 110.867188 L 61.378906 114.5 L 90.378906 114.5 L 90.378906 110.867188 Z M 71.929688 110.867188 " fill-opacity="1" fill-rule="nonzero"/><g clip-path="url(#8570a4911b)"><path fill="#040364" d="M 58.714844 84.074219 L 54.144531 84.074219 L 44.175781 45.058594 C 45 45.203125 45.820312 45.289062 46.628906 45.289062 C 50.441406 45.289062 53.375 44.152344 56.214844 43.054688 C 58.46875 42.179688 60.601562 41.355469 62.871094 41.28125 C 66.210938 41.167969 69.246094 42.648438 70.988281 43.71875 L 70.988281 36.125 C 69.597656 35.652344 65.410156 34.40625 61.667969 35.046875 C 59.714844 35.382812 57.824219 36.394531 55.820312 37.472656 C 53.023438 38.972656 50.136719 40.523438 46.628906 40.523438 C 42.578125 40.523438 40.335938 39.109375 39.234375 38.078125 C 38.851562 38.507812 38.410156 38.886719 37.898438 39.179688 C 37.449219 39.4375 36.875 39.28125 36.617188 38.832031 C 36.359375 38.382812 36.515625 37.808594 36.964844 37.550781 C 38.046875 36.929688 38.71875 35.773438 38.71875 34.527344 C 38.71875 32.609375 37.15625 31.046875 35.238281 31.046875 C 33.320312 31.046875 31.757812 32.609375 31.757812 34.527344 C 31.757812 36.371094 32.832031 38.308594 34.523438 40.023438 L 23.273438 84.074219 L 18.699219 84.074219 C 19.433594 90.902344 28.128906 96.3125 38.707031 96.3125 C 49.285156 96.3125 57.980469 90.902344 58.714844 84.074219 Z M 52.195312 84.074219 L 39.644531 84.074219 L 39.644531 43.585938 C 40.441406 43.960938 41.261719 44.28125 42.097656 44.542969 Z M 37.769531 42.578125 L 37.769531 84.074219 L 25.21875 84.074219 L 36.113281 41.425781 C 36.636719 41.832031 37.183594 42.21875 37.769531 42.578125 Z M 37.769531 42.578125 " fill-opacity="1" fill-rule="nonzero"/></g><g clip-path="url(#3f8629f842)"><path fill="#040364" d="M 128.484375 84.074219 L 117.230469 40.027344 C 118.925781 38.308594 119.996094 36.375 119.996094 34.53125 C 119.996094 32.609375 118.4375 31.050781 116.515625 31.050781 C 114.597656 31.050781 113.035156 32.609375 113.035156 34.53125 C 113.035156 35.773438 113.707031 36.933594 114.792969 37.550781 C 115.242188 37.808594 115.394531 38.382812 115.140625 38.832031 C 114.882812 39.28125 114.308594 39.4375 113.859375 39.179688 C 113.347656 38.886719 112.902344 38.507812 112.523438 38.078125 C 111.417969 39.109375 109.175781 40.523438 105.125 40.523438 C 101.621094 40.523438 98.730469 38.972656 95.9375 37.472656 C 93.933594 36.398438 92.042969 35.382812 90.089844 35.046875 C 86.34375 34.40625 82.160156 35.65625 80.765625 36.125 L 80.765625 43.722656 C 82.507812 42.65625 85.542969 41.179688 88.886719 41.28125 C 91.15625 41.355469 93.285156 42.179688 95.539062 43.054688 C 98.378906 44.152344 101.3125 45.289062 105.125 45.289062 C 105.933594 45.289062 106.757812 45.203125 107.578125 45.058594 L 97.613281 84.074219 L 93.039062 84.074219 C 93.773438 90.902344 102.46875 96.3125 113.046875 96.3125 C 123.628906 96.3125 132.320312 90.902344 133.054688 84.074219 Z M 115.640625 41.425781 L 126.535156 84.074219 L 113.988281 84.074219 L 113.988281 42.578125 C 114.570312 42.21875 115.117188 41.832031 115.640625 41.425781 Z M 112.109375 43.585938 L 112.109375 84.074219 L 99.558594 84.074219 L 109.65625 44.542969 C 110.496094 44.28125 111.316406 43.960938 112.109375 43.585938 Z M 112.109375 43.585938 " fill-opacity="1" fill-rule="nonzero"/></g></svg>