<svg xmlns="http://www.w3.org/2000/svg" xmlns:xlink="http://www.w3.org/1999/xlink" width="200" zoomAndPan="magnify" viewBox="0 0 150 149.999998" height="200" preserveAspectRatio="xMidYMid meet" version="1.0"><defs><clipPath id="256de322d8"><path d="M 63 5.351562 L 69 5.351562 L 69 11 L 63 11 Z M 63 5.351562 " clip-rule="nonzero"/></clipPath><clipPath id="3f4cfe537c"><path d="M 64 139 L 69 139 L 69 144.851562 L 64 144.851562 Z M 64 139 " clip-rule="nonzero"/></clipPath><clipPath id="f500d3abb7"><path d="M 5.988281 72 L 11 72 L 11 78 L 5.988281 78 Z M 5.988281 72 " clip-rule="nonzero"/></clipPath><clipPath id="7f1e0a1791"><path d="M 75 23 L 145 23 L 145 144.851562 L 75 144.851562 Z M 75 23 " clip-rule="nonzero"/></clipPath></defs><path fill="#040364" d="M 25.160156 33.851562 L 21.664062 31.007812 C 20.703125 32.195312 19.785156 33.382812 18.910156 34.613281 L 22.558594 37.234375 C 23.390625 36.070312 24.261719 34.949219 25.160156 33.851562 Z M 25.160156 33.851562 " fill-opacity="1" fill-rule="nonzero"/><path fill="#040364" d="M 20.207031 40.75 L 16.402344 38.511719 C 15.59375 39.785156 14.855469 41.109375 14.160156 42.453125 L 18.101562 44.558594 C 18.753906 43.304688 19.425781 41.960938 20.207031 40.75 Z M 20.207031 40.75 " fill-opacity="1" fill-rule="nonzero"/><path fill="#040364" d="M 16.199219 48.253906 L 12.125 46.417969 C 11.496094 47.78125 10.914062 49.191406 10.464844 50.605469 L 14.65625 52.171875 C 15.078125 50.851562 15.617188 49.550781 16.199219 48.253906 Z M 16.199219 48.253906 " fill-opacity="1" fill-rule="nonzero"/><path fill="#040364" d="M 30.960938 27.625 L 27.890625 24.378906 C 26.792969 25.40625 25.652344 26.503906 24.664062 27.601562 L 27.957031 30.648438 C 28.921875 29.617188 29.90625 28.609375 30.960938 27.625 Z M 30.960938 27.625 " fill-opacity="1" fill-rule="nonzero"/><path fill="#040364" d="M 13.222656 56.203125 L 8.941406 54.925781 C 8.496094 56.359375 8.113281 57.816406 7.757812 59.292969 L 12.234375 60.300781 C 12.460938 58.980469 12.816406 57.570312 13.222656 56.203125 Z M 13.222656 56.203125 " fill-opacity="1" fill-rule="nonzero"/><g clip-path="url(#256de322d8)"><path fill="#040364" d="M 68.898438 10.355469 L 68.453125 5.878906 C 66.957031 6.042969 65.464844 6.242188 63.972656 6.484375 L 64.710938 10.960938 C 66.078125 10.691406 67.464844 10.515625 68.898438 10.355469 Z M 68.898438 10.355469 " fill-opacity="1" fill-rule="nonzero"/></g><path fill="#040364" d="M 37.5 22.25 L 34.878906 18.667969 C 33.648438 19.539062 32.460938 20.480469 31.296875 21.445312 L 34.140625 24.894531 C 35.238281 23.953125 36.355469 23.144531 37.5 22.25 Z M 37.5 22.25 " fill-opacity="1" fill-rule="nonzero"/><path fill="#040364" d="M 11.316406 64.46875 L 6.835938 63.75 C 6.613281 65.25 6.414062 66.753906 6.253906 68.230469 L 10.734375 68.65625 C 10.914062 67.265625 11.09375 65.855469 11.316406 64.46875 Z M 11.316406 64.46875 " fill-opacity="1" fill-rule="nonzero"/><path fill="#040364" d="M 60.523438 11.769531 L 59.492188 7.46875 C 58.015625 7.804688 56.558594 8.207031 55.125 8.65625 L 56.425781 12.933594 C 57.769531 12.460938 59.132812 12.082031 60.523438 11.769531 Z M 60.523438 11.769531 " fill-opacity="1" fill-rule="nonzero"/><path fill="#040364" d="M 44.6875 17.75 L 42.449219 13.804688 C 41.128906 14.523438 39.828125 15.285156 38.53125 16.046875 L 40.902344 19.832031 C 42.226562 19.136719 43.433594 18.421875 44.6875 17.75 Z M 44.6875 17.75 " fill-opacity="1" fill-rule="nonzero"/><path fill="#040364" d="M 52.414062 14.1875 L 50.78125 10.042969 C 49.347656 10.582031 47.957031 11.164062 46.59375 11.789062 L 48.539062 15.867188 C 49.773438 15.285156 51.070312 14.746094 52.414062 14.1875 Z M 52.414062 14.1875 " fill-opacity="1" fill-rule="nonzero"/><g clip-path="url(#3f4cfe537c)"><path fill="#040364" d="M 64.0625 143.507812 C 65.539062 143.753906 67.0625 143.933594 68.542969 144.089844 L 68.988281 139.609375 C 67.578125 139.476562 66.167969 139.296875 64.777344 139.050781 Z M 64.0625 143.507812 " fill-opacity="1" fill-rule="nonzero"/></g><path fill="#040364" d="M 46.726562 138.242188 C 48.09375 138.871094 49.503906 139.453125 50.9375 139.988281 L 52.503906 135.78125 C 51.183594 135.285156 49.863281 134.75 48.585938 134.167969 Z M 46.726562 138.242188 " fill-opacity="1" fill-rule="nonzero"/><path fill="#040364" d="M 38.730469 133.941406 C 40.007812 134.75 41.328125 135.511719 42.652344 136.183594 L 44.777344 132.242188 C 43.523438 131.570312 42.292969 130.851562 41.105469 130 Z M 38.730469 133.941406 " fill-opacity="1" fill-rule="nonzero"/><path fill="#040364" d="M 24.734375 122.453125 C 25.761719 123.550781 26.839844 124.691406 27.9375 125.65625 L 31.003906 122.386719 C 29.972656 121.421875 28.964844 120.414062 28.003906 119.386719 Z M 24.734375 122.453125 " fill-opacity="1" fill-rule="nonzero"/><path fill="#040364" d="M 31.363281 128.65625 C 32.527344 129.621094 33.714844 130.539062 34.945312 131.414062 L 37.566406 127.785156 C 36.425781 126.957031 35.328125 126.082031 34.207031 125.1875 Z M 31.363281 128.65625 " fill-opacity="1" fill-rule="nonzero"/><g clip-path="url(#f500d3abb7)"><path fill="#040364" d="M 10.464844 74.996094 C 10.464844 74.300781 10.464844 73.605469 10.464844 72.933594 L 5.988281 72.777344 C 5.988281 73.515625 5.988281 74.253906 5.988281 75.015625 C 5.988281 75.777344 5.988281 76.585938 5.988281 77.257812 L 10.464844 77.101562 C 10.464844 76.449219 10.464844 75.734375 10.464844 74.996094 Z M 10.464844 74.996094 " fill-opacity="1" fill-rule="nonzero"/></g><path fill="#040364" d="M 55.261719 141.445312 C 56.691406 141.871094 58.171875 142.273438 59.738281 142.609375 L 60.746094 138.132812 C 59.359375 137.816406 57.992188 137.460938 56.648438 137.035156 Z M 55.261719 141.445312 " fill-opacity="1" fill-rule="nonzero"/><path fill="#040364" d="M 14.632812 97.90625 L 10.464844 99.496094 C 11.003906 100.90625 11.585938 102.296875 12.214844 103.683594 L 16.289062 101.824219 C 15.664062 100.550781 15.125 99.296875 14.632812 97.90625 Z M 14.632812 97.90625 " fill-opacity="1" fill-rule="nonzero"/><path fill="#040364" d="M 10.78125 81.378906 L 6.300781 81.804688 C 6.457031 83.324219 6.636719 84.828125 6.882812 86.28125 L 11.363281 85.566406 C 11.09375 84.222656 10.914062 82.832031 10.78125 81.378906 Z M 10.78125 81.378906 " fill-opacity="1" fill-rule="nonzero"/><path fill="#040364" d="M 12.144531 89.777344 L 7.800781 90.808594 C 8.136719 92.285156 8.539062 93.742188 8.964844 95.285156 L 13.265625 93.988281 C 12.839844 92.574219 12.480469 91.164062 12.144531 89.777344 Z M 12.144531 89.777344 " fill-opacity="1" fill-rule="nonzero"/><path fill="#040364" d="M 22.605469 112.734375 L 18.976562 115.441406 C 19.851562 116.675781 20.792969 117.863281 21.730469 119.027344 L 25.203125 116.183594 C 24.308594 115.105469 23.433594 113.988281 22.605469 112.734375 Z M 22.605469 112.734375 " fill-opacity="1" fill-rule="nonzero"/><path fill="#040364" d="M 18.125 105.632812 L 14.183594 107.738281 C 14.902344 109.058594 15.664062 110.382812 16.421875 111.65625 L 20.230469 109.304688 C 19.425781 108.097656 18.796875 106.863281 18.125 105.632812 Z M 18.125 105.632812 " fill-opacity="1" fill-rule="nonzero"/><g clip-path="url(#7f1e0a1791)"><path fill="#040364" d="M 126.796875 27.960938 L 133.648438 27.960938 L 133.648438 23.480469 L 122.449219 23.480469 C 122.152344 23.480469 121.867188 23.539062 121.59375 23.652344 C 121.320312 23.765625 121.078125 23.925781 120.867188 24.136719 C 120.65625 24.347656 120.496094 24.589844 120.382812 24.863281 C 120.265625 25.140625 120.210938 25.425781 120.210938 25.722656 L 120.210938 36.917969 L 124.691406 36.917969 L 124.691406 32.441406 C 126.695312 34.785156 128.527344 37.261719 130.179688 39.867188 C 131.832031 42.472656 133.292969 45.183594 134.558594 48 C 135.824219 50.8125 136.886719 53.703125 137.742188 56.667969 C 138.597656 59.636719 139.238281 62.644531 139.664062 65.703125 C 140.085938 68.761719 140.292969 71.832031 140.28125 74.917969 C 140.269531 78.003906 140.039062 81.074219 139.589844 84.128906 C 139.136719 87.179688 138.472656 90.1875 137.597656 93.144531 C 136.71875 96.105469 135.632812 98.988281 134.34375 101.789062 C 133.054688 104.59375 131.574219 107.292969 129.898438 109.886719 C 128.226562 112.480469 126.375 114.941406 124.351562 117.269531 C 122.324219 119.597656 120.144531 121.773438 117.8125 123.792969 C 115.476562 125.8125 113.011719 127.652344 110.414062 129.320312 C 107.816406 130.988281 105.113281 132.460938 102.304688 133.742188 C 99.496094 135.023438 96.613281 136.101562 93.652344 136.972656 C 90.691406 137.84375 87.683594 138.5 84.628906 138.941406 C 81.574219 139.382812 78.503906 139.605469 75.417969 139.609375 L 75.417969 144.089844 C 77.085938 144.089844 78.753906 144.027344 80.421875 143.90625 C 82.085938 143.789062 83.746094 143.605469 85.398438 143.367188 C 87.050781 143.125 88.695312 142.828125 90.324219 142.46875 C 91.957031 142.109375 93.574219 141.691406 95.175781 141.21875 C 96.777344 140.742188 98.359375 140.210938 99.921875 139.621094 C 101.484375 139.03125 103.023438 138.386719 104.539062 137.683594 C 106.054688 136.984375 107.542969 136.230469 109.007812 135.421875 C 110.46875 134.613281 111.898438 133.753906 113.296875 132.84375 C 114.699219 131.929688 116.0625 130.972656 117.394531 129.960938 C 118.722656 128.953125 120.015625 127.894531 121.269531 126.792969 C 122.523438 125.6875 123.738281 124.542969 124.910156 123.351562 C 126.082031 122.160156 127.207031 120.929688 128.289062 119.65625 C 129.371094 118.386719 130.40625 117.074219 131.394531 115.730469 C 132.382812 114.382812 133.320312 113 134.210938 111.585938 C 135.097656 110.171875 135.933594 108.726562 136.71875 107.253906 C 137.503906 105.777344 138.234375 104.277344 138.910156 102.75 C 139.585938 101.222656 140.203125 99.671875 140.769531 98.101562 C 141.332031 96.527344 141.839844 94.9375 142.289062 93.328125 C 142.738281 91.71875 143.128906 90.097656 143.460938 88.460938 C 143.792969 86.824219 144.066406 85.175781 144.277344 83.519531 C 144.492188 81.863281 144.644531 80.203125 144.738281 78.535156 C 144.832031 76.867188 144.863281 75.195312 144.835938 73.527344 C 144.808594 71.855469 144.722656 70.191406 144.574219 68.527344 C 144.425781 66.863281 144.21875 65.207031 143.953125 63.558594 C 143.683594 61.910156 143.359375 60.273438 142.972656 58.648438 C 142.589844 57.019531 142.144531 55.410156 141.644531 53.820312 C 141.144531 52.226562 140.585938 50.652344 139.96875 49.097656 C 139.355469 47.546875 138.683594 46.019531 137.960938 44.511719 C 137.234375 43.007812 136.457031 41.53125 135.625 40.082031 C 134.792969 38.636719 133.910156 37.21875 132.976562 35.832031 C 132.042969 34.449219 131.058594 33.101562 130.027344 31.785156 C 128.996094 30.472656 127.917969 29.195312 126.796875 27.960938 Z M 126.796875 27.960938 " fill-opacity="1" fill-rule="nonzero"/></g><path fill="#040364" d="M 77.65625 117.210938 C 80.070312 117.078125 82.457031 116.742188 84.8125 116.199219 C 87.171875 115.65625 89.464844 114.917969 91.695312 113.984375 C 93.925781 113.046875 96.058594 111.929688 98.097656 110.628906 C 100.136719 109.332031 102.050781 107.867188 103.839844 106.238281 L 98.464844 100.886719 L 101.644531 97.703125 L 106.996094 103.082031 C 108.625 101.292969 110.089844 99.378906 111.390625 97.339844 C 112.6875 95.300781 113.808594 93.164062 114.742188 90.9375 C 115.675781 88.707031 116.414062 86.410156 116.957031 84.054688 C 117.5 81.699219 117.835938 79.3125 117.972656 76.898438 L 109.011719 76.898438 L 109.011719 72.417969 L 117.972656 72.417969 C 117.835938 70.003906 117.5 67.617188 116.957031 65.261719 C 116.414062 62.90625 115.675781 60.613281 114.742188 58.382812 C 113.808594 56.152344 112.6875 54.015625 111.390625 51.976562 C 110.089844 49.9375 108.625 48.023438 106.996094 46.238281 L 101.644531 51.613281 L 98.464844 48.433594 L 103.839844 43.078125 C 102.046875 41.460938 100.128906 40.007812 98.089844 38.71875 C 96.046875 37.425781 93.914062 36.320312 91.683594 35.394531 C 89.453125 34.46875 87.160156 33.738281 84.804688 33.207031 C 82.449219 32.671875 80.066406 32.34375 77.65625 32.214844 L 77.65625 38.824219 L 73.175781 38.824219 L 73.175781 32.214844 C 70.765625 32.34375 68.382812 32.671875 66.027344 33.207031 C 63.671875 33.738281 61.382812 34.46875 59.152344 35.394531 C 56.921875 36.320312 54.785156 37.425781 52.746094 38.71875 C 50.703125 40.007812 48.789062 41.460938 46.996094 43.078125 L 52.371094 48.433594 L 49.191406 51.613281 L 43.835938 46.238281 C 42.21875 48.027344 40.765625 49.945312 39.476562 51.988281 C 38.183594 54.027344 37.078125 56.164062 36.152344 58.394531 C 35.226562 60.621094 34.496094 62.914062 33.964844 65.269531 C 33.429688 67.625 33.101562 70.007812 32.976562 72.417969 L 41.820312 72.417969 L 41.820312 76.898438 L 32.976562 76.898438 C 33.042969 78.195312 33.167969 79.488281 33.351562 80.777344 C 33.539062 82.0625 33.78125 83.339844 34.082031 84.605469 C 34.386719 85.867188 34.742188 87.117188 35.160156 88.347656 C 35.578125 89.582031 36.046875 90.789062 36.574219 91.980469 C 37.101562 93.167969 37.683594 94.328125 38.316406 95.464844 C 38.953125 96.601562 39.636719 97.703125 40.371094 98.777344 C 41.105469 99.847656 41.890625 100.886719 42.71875 101.886719 C 43.550781 102.886719 44.421875 103.847656 45.339844 104.769531 C 46.257812 105.691406 47.21875 106.566406 48.214844 107.398438 C 49.214844 108.230469 50.25 109.015625 51.320312 109.753906 C 52.390625 110.492188 53.492188 111.179688 54.625 111.816406 C 55.757812 112.453125 56.917969 113.039062 58.105469 113.570312 C 59.292969 114.101562 60.503906 114.574219 61.734375 114.996094 C 62.964844 115.414062 64.210938 115.777344 65.472656 116.082031 C 66.738281 116.390625 68.011719 116.636719 69.300781 116.824219 C 70.585938 117.011719 71.878906 117.140625 73.175781 117.210938 L 73.175781 110.492188 L 77.65625 110.492188 Z M 75.417969 81.378906 L 57.5 99.296875 L 50.78125 99.296875 L 50.78125 92.574219 L 68.699219 74.660156 C 68.703125 73.707031 68.902344 72.800781 69.289062 71.933594 C 69.679688 71.070312 70.230469 70.320312 70.9375 69.6875 L 70.9375 47.78125 L 75.417969 43.304688 L 79.894531 47.78125 L 79.894531 69.6875 C 80.398438 70.140625 80.820312 70.660156 81.164062 71.242188 C 81.507812 71.824219 81.757812 72.445312 81.914062 73.101562 C 82.070312 73.761719 82.125 74.429688 82.082031 75.101562 C 82.035156 75.777344 81.894531 76.429688 81.652344 77.0625 C 81.410156 77.695312 81.078125 78.277344 80.660156 78.808594 C 80.246094 79.339844 79.757812 79.796875 79.199219 80.183594 C 78.644531 80.570312 78.042969 80.863281 77.398438 81.066406 C 76.753906 81.269531 76.09375 81.375 75.417969 81.378906 Z M 75.417969 81.378906 " fill-opacity="1" fill-rule="nonzero"/><path fill="#040364" d="M 75.417969 126.171875 C 77.105469 126.171875 78.789062 126.089844 80.464844 125.921875 C 82.144531 125.757812 83.8125 125.511719 85.464844 125.179688 C 87.121094 124.851562 88.757812 124.441406 90.371094 123.953125 C 91.984375 123.464844 93.570312 122.894531 95.128906 122.25 C 96.6875 121.605469 98.210938 120.882812 99.699219 120.089844 C 101.1875 119.292969 102.632812 118.425781 104.035156 117.488281 C 105.4375 116.550781 106.792969 115.546875 108.097656 114.476562 C 109.402344 113.40625 110.648438 112.277344 111.84375 111.082031 C 113.035156 109.890625 114.167969 108.640625 115.238281 107.335938 C 116.308594 106.035156 117.3125 104.679688 118.25 103.277344 C 119.1875 101.875 120.050781 100.429688 120.847656 98.941406 C 121.640625 97.453125 122.363281 95.929688 123.007812 94.371094 C 123.652344 92.8125 124.222656 91.226562 124.710938 89.613281 C 125.203125 87.996094 125.609375 86.363281 125.941406 84.707031 C 126.269531 83.054688 126.515625 81.386719 126.683594 79.707031 C 126.847656 78.027344 126.929688 76.34375 126.929688 74.660156 C 126.929688 72.972656 126.847656 71.289062 126.683594 69.609375 C 126.515625 67.929688 126.269531 66.261719 125.941406 64.609375 C 125.609375 62.953125 125.203125 61.320312 124.710938 59.707031 C 124.222656 58.089844 123.652344 56.503906 123.007812 54.945312 C 122.363281 53.386719 121.640625 51.863281 120.847656 50.375 C 120.050781 48.886719 119.1875 47.441406 118.25 46.039062 C 117.3125 44.636719 116.308594 43.285156 115.238281 41.980469 C 114.167969 40.675781 113.035156 39.425781 111.84375 38.234375 C 110.648438 37.039062 109.402344 35.910156 108.097656 34.839844 C 106.792969 33.769531 105.4375 32.765625 104.035156 31.828125 C 102.632812 30.890625 101.1875 30.023438 99.699219 29.226562 C 98.210938 28.433594 96.6875 27.710938 95.128906 27.066406 C 93.570312 26.421875 91.984375 25.855469 90.371094 25.363281 C 88.757812 24.875 87.121094 24.464844 85.464844 24.136719 C 83.8125 23.804688 82.144531 23.558594 80.464844 23.394531 C 78.789062 23.226562 77.105469 23.144531 75.417969 23.144531 C 73.730469 23.144531 72.046875 23.226562 70.367188 23.394531 C 68.6875 23.558594 67.023438 23.804688 65.367188 24.136719 C 63.710938 24.464844 62.078125 24.875 60.464844 25.363281 C 58.847656 25.855469 57.261719 26.421875 55.703125 27.066406 C 54.144531 27.710938 52.621094 28.433594 51.132812 29.226562 C 49.644531 30.023438 48.199219 30.890625 46.796875 31.828125 C 45.394531 32.765625 44.042969 33.769531 42.738281 34.839844 C 41.433594 35.910156 40.183594 37.039062 38.992188 38.234375 C 37.800781 39.425781 36.667969 40.675781 35.597656 41.980469 C 34.527344 43.285156 33.523438 44.636719 32.585938 46.039062 C 31.648438 47.441406 30.78125 48.886719 29.988281 50.375 C 29.191406 51.863281 28.472656 53.386719 27.824219 54.945312 C 27.179688 56.503906 26.613281 58.089844 26.121094 59.707031 C 25.632812 61.320312 25.222656 62.953125 24.894531 64.609375 C 24.566406 66.261719 24.316406 67.929688 24.152344 69.609375 C 23.988281 71.289062 23.902344 72.972656 23.902344 74.660156 C 23.898438 76.347656 23.976562 78.03125 24.136719 79.710938 C 24.300781 81.394531 24.542969 83.0625 24.867188 84.71875 C 25.195312 86.375 25.601562 88.011719 26.085938 89.628906 C 26.574219 91.246094 27.140625 92.835938 27.785156 94.394531 C 28.425781 95.957031 29.144531 97.484375 29.941406 98.972656 C 30.734375 100.460938 31.601562 101.910156 32.539062 103.316406 C 33.472656 104.71875 34.476562 106.074219 35.550781 107.378906 C 36.621094 108.6875 37.75 109.9375 38.945312 111.128906 C 40.140625 112.324219 41.390625 113.457031 42.695312 114.527344 C 44 115.597656 45.355469 116.601562 46.761719 117.539062 C 48.164062 118.476562 49.613281 119.339844 51.101562 120.136719 C 52.59375 120.929688 54.117188 121.648438 55.679688 122.292969 C 57.242188 122.9375 58.828125 123.5 60.445312 123.988281 C 62.0625 124.476562 63.699219 124.882812 65.355469 125.207031 C 67.011719 125.53125 68.683594 125.777344 70.363281 125.9375 C 72.042969 126.097656 73.726562 126.175781 75.417969 126.171875 Z M 28.382812 74.660156 C 28.382812 73.117188 28.460938 71.582031 28.609375 70.046875 C 28.761719 68.515625 28.988281 66.992188 29.289062 65.484375 C 29.585938 63.972656 29.960938 62.480469 30.410156 61.003906 C 30.855469 59.53125 31.375 58.082031 31.964844 56.660156 C 32.554688 55.238281 33.210938 53.84375 33.9375 52.488281 C 34.664062 51.128906 35.453125 49.808594 36.308594 48.527344 C 37.164062 47.246094 38.082031 46.011719 39.058594 44.820312 C 40.035156 43.628906 41.070312 42.488281 42.160156 41.402344 C 43.25 40.3125 44.386719 39.277344 45.578125 38.300781 C 46.769531 37.324219 48.007812 36.40625 49.285156 35.550781 C 50.566406 34.695312 51.886719 33.90625 53.246094 33.179688 C 54.605469 32.453125 55.996094 31.792969 57.417969 31.207031 C 58.839844 30.617188 60.289062 30.097656 61.765625 29.652344 C 63.238281 29.203125 64.730469 28.828125 66.242188 28.527344 C 67.753906 28.226562 69.273438 28.003906 70.808594 27.851562 C 72.339844 27.699219 73.875 27.625 75.417969 27.625 C 76.957031 27.625 78.492188 27.699219 80.027344 27.851562 C 81.558594 28.003906 83.082031 28.226562 84.59375 28.527344 C 86.105469 28.828125 87.597656 29.203125 89.070312 29.652344 C 90.542969 30.097656 91.992188 30.617188 93.414062 31.207031 C 94.839844 31.792969 96.230469 32.453125 97.589844 33.179688 C 98.945312 33.90625 100.265625 34.695312 101.546875 35.550781 C 102.828125 36.40625 104.0625 37.324219 105.253906 38.300781 C 106.445312 39.277344 107.585938 40.3125 108.675781 41.402344 C 109.765625 42.488281 110.796875 43.628906 111.773438 44.820312 C 112.75 46.011719 113.667969 47.246094 114.523438 48.527344 C 115.378906 49.808594 116.171875 51.128906 116.898438 52.488281 C 117.621094 53.84375 118.28125 55.238281 118.871094 56.660156 C 119.460938 58.082031 119.976562 59.53125 120.425781 61.003906 C 120.871094 62.480469 121.246094 63.972656 121.546875 65.484375 C 121.847656 66.992188 122.074219 68.515625 122.222656 70.046875 C 122.375 71.582031 122.449219 73.117188 122.449219 74.660156 C 122.449219 76.199219 122.375 77.734375 122.222656 79.269531 C 122.074219 80.800781 121.847656 82.324219 121.546875 83.835938 C 121.246094 85.34375 120.871094 86.835938 120.425781 88.3125 C 119.976562 89.785156 119.460938 91.234375 118.871094 92.65625 C 118.28125 94.082031 117.621094 95.472656 116.898438 96.828125 C 116.171875 98.1875 115.378906 99.507812 114.523438 100.789062 C 113.667969 102.070312 112.75 103.304688 111.773438 104.496094 C 110.796875 105.6875 109.765625 106.828125 108.675781 107.917969 C 107.585938 109.003906 106.445312 110.039062 105.253906 111.015625 C 104.0625 111.992188 102.828125 112.910156 101.546875 113.765625 C 100.265625 114.621094 98.945312 115.414062 97.589844 116.136719 C 96.230469 116.863281 94.839844 117.523438 93.414062 118.113281 C 91.992188 118.699219 90.542969 119.21875 89.070312 119.667969 C 87.597656 120.113281 86.105469 120.488281 84.59375 120.789062 C 83.082031 121.089844 81.558594 121.3125 80.027344 121.464844 C 78.492188 121.617188 76.957031 121.691406 75.417969 121.691406 C 73.875 121.691406 72.339844 121.617188 70.808594 121.464844 C 69.273438 121.3125 67.753906 121.089844 66.242188 120.789062 C 64.730469 120.488281 63.238281 120.113281 61.765625 119.667969 C 60.289062 119.21875 58.839844 118.703125 57.417969 118.113281 C 55.996094 117.523438 54.605469 116.863281 53.246094 116.136719 C 51.886719 115.414062 50.566406 114.621094 49.285156 113.765625 C 48.007812 112.910156 46.769531 111.992188 45.578125 111.015625 C 44.386719 110.039062 43.25 109.003906 42.160156 107.917969 C 41.070312 106.828125 40.035156 105.6875 39.058594 104.496094 C 38.082031 103.304688 37.164062 102.070312 36.308594 100.789062 C 35.453125 99.507812 34.664062 98.1875 33.9375 96.828125 C 33.210938 95.472656 32.554688 94.082031 31.964844 92.65625 C 31.375 91.234375 30.855469 89.785156 30.410156 88.3125 C 29.960938 86.835938 29.585938 85.34375 29.289062 83.835938 C 28.988281 82.324219 28.761719 80.800781 28.609375 79.269531 C 28.460938 77.734375 28.382812 76.199219 28.382812 74.660156 Z M 28.382812 74.660156 " fill-opacity="1" fill-rule="nonzero"/></svg>