<svg xmlns="http://www.w3.org/2000/svg" xmlns:xlink="http://www.w3.org/1999/xlink" width="200" zoomAndPan="magnify" viewBox="0 0 150 149.999998" height="200" preserveAspectRatio="xMidYMid meet" version="1.0"><defs><clipPath id="561e23b2df"><path d="M 5.363281 15 L 141.113281 15 L 141.113281 128.25 L 5.363281 128.25 Z M 5.363281 15 " clip-rule="nonzero"/></clipPath></defs><path fill="#040364" d="M 71.800781 84.128906 C 71.796875 84.128906 71.796875 84.128906 71.792969 84.128906 C 64.175781 84.128906 60.3125 73.828125 59.988281 69.535156 C 59.3125 60.667969 63.382812 54.5625 72.234375 54.5625 C 81.070312 54.5625 85.160156 60.652344 84.480469 69.535156 C 84.09375 74.625 79.976562 84.128906 71.800781 84.128906 Z M 72.234375 59.488281 C 66.269531 59.488281 64.449219 63.257812 64.902344 69.15625 C 65.132812 72.226562 67.980469 79.203125 71.796875 79.203125 C 71.796875 79.203125 71.800781 79.203125 71.800781 79.203125 C 76.71875 79.203125 79.351562 72.019531 79.566406 69.160156 C 80.023438 63.1875 78.148438 59.488281 72.234375 59.488281 Z M 72.234375 59.488281 " fill-opacity="1" fill-rule="nonzero"/><g clip-path="url(#561e23b2df)"><path fill="#040364" d="M 141.242188 50.019531 L 141.242188 24.367188 C 141.242188 19.359375 136.988281 15.261719 131.660156 15.027344 L 92.542969 15.019531 C 86.789062 15.019531 82.105469 19.214844 82.105469 24.371094 L 82.105469 39.660156 L 18.863281 39.660156 C 15.695312 39.660156 13.113281 42.425781 13.113281 45.828125 L 13.113281 108.652344 L 10.925781 108.652344 C 7.875 108.652344 5.394531 111 5.394531 113.886719 C 5.394531 121.867188 12.460938 128.363281 21.144531 128.363281 L 123.355469 128.363281 C 132.039062 128.363281 139.105469 121.867188 139.105469 113.886719 C 139.105469 111 136.625 108.652344 133.574219 108.652344 L 131.386719 108.65625 L 131.386719 59.351562 C 136.835938 59.246094 141.242188 55.109375 141.242188 50.019531 Z M 87.035156 24.367188 C 87.035156 21.929688 89.507812 19.945312 92.542969 19.945312 L 131.183594 19.945312 C 134.015625 19.945312 136.316406 21.929688 136.316406 24.367188 L 136.316406 50.019531 C 136.316406 52.457031 134.015625 54.441406 131.183594 54.441406 L 108.519531 54.441406 C 107.878906 54.441406 107.242188 54.648438 106.71875 55.03125 L 96.890625 62.261719 L 96.890625 57.402344 C 96.890625 55.769531 95.53125 54.441406 93.859375 54.441406 L 92.542969 54.441406 C 89.507812 54.441406 87.035156 52.457031 87.035156 50.019531 Z M 133.578125 113.578125 C 136.042969 113.578125 132.589844 123.433594 123.355469 123.433594 L 21.144531 123.433594 C 11.914062 123.433594 8.460938 113.578125 10.925781 113.578125 L 51.707031 113.582031 C 53.484375 114.703125 56.128906 116.042969 58.636719 116.042969 L 85.878906 116.042969 C 88.792969 116.042969 91.457031 115.144531 93.082031 113.65625 C 93.082031 113.65625 92.179688 113.648438 133.578125 113.578125 Z M 48.117188 108.648438 C 50.078125 100.175781 57.746094 93.867188 66.664062 93.867188 L 77.839844 93.867188 C 86.78125 93.867188 94.464844 100.210938 96.402344 108.714844 L 93.136719 108.71875 C 89.796875 108.726562 90.257812 111.113281 85.878906 111.113281 L 58.636719 111.113281 C 56.035156 111.113281 54.382812 108.648438 51.71875 108.648438 Z M 101.445312 108.707031 C 99.433594 97.457031 89.46875 88.9375 77.839844 88.9375 L 66.664062 88.9375 C 55.054688 88.9375 45.097656 97.429688 43.066406 108.648438 L 18.042969 108.648438 L 18.042969 45.828125 C 18.042969 45.117188 18.476562 44.585938 18.863281 44.585938 L 82.105469 44.585938 L 82.105469 50.019531 C 82.105469 55 86.476562 59.082031 91.960938 59.355469 L 91.960938 66.515625 C 91.960938 68.796875 94.558594 70.09375 96.378906 68.753906 L 109.136719 59.367188 L 126.457031 59.367188 L 126.457031 108.660156 Z M 101.445312 108.707031 " fill-opacity="1" fill-rule="nonzero"/></g><path fill="#040364" d="M 99.355469 29.800781 L 94.425781 29.800781 C 91.171875 29.800781 91.167969 24.875 94.425781 24.875 L 99.355469 24.875 C 102.609375 24.875 102.613281 29.800781 99.355469 29.800781 Z M 99.355469 29.800781 " fill-opacity="1" fill-rule="nonzero"/><path fill="#040364" d="M 128.921875 29.800781 L 106.746094 29.800781 C 103.492188 29.800781 103.488281 24.875 106.746094 24.875 L 128.921875 24.875 C 132.179688 24.875 132.183594 29.800781 128.921875 29.800781 Z M 128.921875 29.800781 " fill-opacity="1" fill-rule="nonzero"/><path fill="#040364" d="M 128.921875 39.65625 L 94.425781 39.65625 C 91.171875 39.65625 91.167969 34.730469 94.425781 34.730469 L 128.921875 34.730469 C 132.179688 34.730469 132.183594 39.65625 128.921875 39.65625 Z M 128.921875 39.65625 " fill-opacity="1" fill-rule="nonzero"/><path fill="#040364" d="M 114.136719 49.511719 L 94.425781 49.511719 C 91.171875 49.511719 91.167969 44.585938 94.425781 44.585938 L 114.136719 44.585938 C 117.394531 44.585938 117.398438 49.511719 114.136719 49.511719 Z M 114.136719 49.511719 " fill-opacity="1" fill-rule="nonzero"/></svg>