<svg xmlns="http://www.w3.org/2000/svg" xmlns:xlink="http://www.w3.org/1999/xlink" width="3468" zoomAndPan="magnify" viewBox="0 0 2601 2760.749996" height="3681" preserveAspectRatio="xMidYMid meet" version="1.0"><defs><clipPath id="eefaaf909c"><path d="M 280 1476 L 2340.757812 1476 L 2340.757812 2270 L 280 2270 Z M 280 1476 " clip-rule="nonzero"/></clipPath><clipPath id="a810ebb465"><path d="M 920 260.078125 L 1674 260.078125 L 1674 1131 L 920 1131 Z M 920 260.078125 " clip-rule="nonzero"/></clipPath></defs><g clip-path="url(#eefaaf909c)"><path fill="#000000" d="M 441.023438 1678.707031 L 286.390625 1839.152344 C 278.789062 1847.074219 278.472656 1859.496094 285.675781 1867.761719 L 432.972656 2037.109375 C 436.945312 2041.773438 442.796875 2044.394531 448.96875 2044.394531 L 655.117188 2044.394531 C 666.851562 2044.394531 676.335938 2034.9375 676.335938 2023.175781 L 676.335938 1938.488281 L 861.902344 1938.488281 L 861.902344 2023.175781 C 861.902344 2034.914062 871.359375 2044.394531 883.117188 2044.394531 L 1111.570312 2044.394531 C 1123.25 2044.394531 1132.734375 2034.9375 1132.734375 2023.175781 L 1132.734375 1938.488281 L 1299.839844 1938.488281 L 1299.839844 2052.6875 C 1299.839844 2064.367188 1309.296875 2073.90625 1321.003906 2073.90625 L 1601.394531 2073.90625 C 1672.539062 2194.964844 1802.433594 2269.691406 1943.449219 2269.691406 C 2162.179688 2269.691406 2340.09375 2091.757812 2340.09375 1873.007812 C 2340.09375 1654.253906 2162.179688 1476.324219 1943.449219 1476.324219 C 1802.484375 1476.324219 1672.566406 1551.078125 1601.34375 1672.214844 L 456.304688 1672.214844 C 450.558594 1672.1875 445.023438 1674.574219 441.023438 1678.707031 Z M 1943.398438 1750.226562 C 2011.070312 1750.226562 2066.113281 1805.273438 2066.113281 1873.007812 C 2066.113281 1940.742188 2011.070312 1995.789062 1943.398438 1995.789062 C 1875.667969 1995.789062 1820.628906 1940.742188 1820.628906 1873.007812 C 1820.628906 1805.273438 1875.667969 1750.226562 1943.398438 1750.226562 Z M 1943.398438 1750.226562 " fill-opacity="1" fill-rule="nonzero"/></g><g clip-path="url(#a810ebb465)"><path fill="#000000" d="M 920.917969 636.601562 C 920.917969 671.671875 949.417969 700.175781 984.484375 700.175781 C 1019.605469 700.175781 1048.054688 671.671875 1048.054688 636.601562 C 1048.054688 499.09375 1159.910156 387.28125 1297.351562 387.28125 C 1434.84375 387.28125 1546.648438 499.09375 1546.648438 636.601562 C 1546.648438 774.054688 1434.84375 885.921875 1297.351562 885.921875 C 1262.28125 885.921875 1233.78125 914.371094 1233.78125 949.496094 L 1233.78125 1066.582031 C 1233.78125 1101.652344 1262.28125 1130.15625 1297.351562 1130.15625 C 1332.472656 1130.15625 1360.917969 1101.652344 1360.917969 1066.582031 L 1360.917969 1007.695312 C 1538.304688 977.363281 1673.8125 822.480469 1673.8125 636.574219 C 1673.8125 428.949219 1504.957031 260.078125 1297.351562 260.078125 C 1089.824219 260.128906 920.917969 429 920.917969 636.601562 Z M 920.917969 636.601562 " fill-opacity="1" fill-rule="nonzero"/></g><path fill="#000000" d="M 1206.871094 1312.988281 C 1206.871094 1362.867188 1247.476562 1403.476562 1297.351562 1403.476562 C 1347.277344 1403.476562 1387.832031 1362.867188 1387.832031 1312.988281 C 1387.832031 1263.109375 1347.277344 1222.554688 1297.351562 1222.554688 C 1247.5 1222.554688 1206.871094 1263.109375 1206.871094 1312.988281 Z M 1206.871094 1312.988281 " fill-opacity="1" fill-rule="nonzero"/></svg>