<svg xmlns="http://www.w3.org/2000/svg" xmlns:xlink="http://www.w3.org/1999/xlink" width="50" zoomAndPan="magnify" viewBox="0 0 37.5 37.499999" height="50" preserveAspectRatio="xMidYMid meet" version="1.0"><defs><g/><clipPath id="dfa15d9bce"><path d="M 1.007812 1.074219 L 35.792969 1.074219 L 35.792969 35.859375 L 1.007812 35.859375 Z M 1.007812 1.074219 " clip-rule="nonzero"/></clipPath><clipPath id="4d3406cfcd"><path d="M 17.972656 12.578125 L 19.160156 12.578125 L 19.160156 14.488281 L 17.972656 14.488281 Z M 17.972656 12.578125 " clip-rule="nonzero"/></clipPath><clipPath id="2a1a771650"><path d="M 18.566406 12.578125 L 19.160156 14.484375 L 17.972656 14.484375 Z M 18.566406 12.578125 " clip-rule="nonzero"/></clipPath><clipPath id="8acf7a9291"><path d="M 12.101562 6.644531 L 24.6875 6.644531 L 24.6875 20.375 L 12.101562 20.375 Z M 12.101562 6.644531 " clip-rule="nonzero"/></clipPath><clipPath id="27084d7f37"><path d="M 18.070312 12.542969 L 19.058594 12.542969 L 19.058594 13.53125 L 18.070312 13.53125 Z M 18.070312 12.542969 " clip-rule="nonzero"/></clipPath><clipPath id="8eac3f09a3"><path d="M 18.566406 12.542969 C 18.292969 12.542969 18.070312 12.765625 18.070312 13.039062 C 18.070312 13.308594 18.292969 13.53125 18.566406 13.53125 C 18.839844 13.53125 19.058594 13.308594 19.058594 13.039062 C 19.058594 12.765625 18.839844 12.542969 18.566406 12.542969 Z M 18.566406 12.542969 " clip-rule="nonzero"/></clipPath></defs><g clip-path="url(#dfa15d9bce)"><path fill="#000000" d="M 35.921875 18.53125 C 35.921875 19.101562 35.894531 19.671875 35.835938 20.242188 C 35.78125 20.808594 35.699219 21.375 35.585938 21.933594 C 35.472656 22.496094 35.335938 23.050781 35.167969 23.597656 C 35.003906 24.144531 34.8125 24.683594 34.59375 25.210938 C 34.375 25.738281 34.128906 26.253906 33.859375 26.757812 C 33.589844 27.261719 33.296875 27.753906 32.980469 28.226562 C 32.660156 28.703125 32.320312 29.160156 31.957031 29.605469 C 31.597656 30.046875 31.210938 30.46875 30.808594 30.875 C 30.402344 31.277344 29.980469 31.660156 29.539062 32.023438 C 29.097656 32.386719 28.636719 32.726562 28.164062 33.042969 C 27.6875 33.363281 27.199219 33.65625 26.695312 33.925781 C 26.191406 34.195312 25.671875 34.4375 25.144531 34.65625 C 24.617188 34.875 24.078125 35.070312 23.53125 35.234375 C 22.984375 35.398438 22.429688 35.539062 21.871094 35.652344 C 21.308594 35.761719 20.746094 35.847656 20.175781 35.902344 C 19.605469 35.957031 19.035156 35.984375 18.464844 35.984375 C 17.894531 35.984375 17.324219 35.957031 16.753906 35.902344 C 16.183594 35.847656 15.621094 35.761719 15.058594 35.652344 C 14.5 35.539062 13.945312 35.398438 13.398438 35.234375 C 12.851562 35.070312 12.3125 34.875 11.785156 34.65625 C 11.257812 34.4375 10.738281 34.195312 10.234375 33.925781 C 9.730469 33.65625 9.242188 33.363281 8.765625 33.042969 C 8.292969 32.726562 7.832031 32.386719 7.390625 32.023438 C 6.949219 31.660156 6.527344 31.277344 6.121094 30.875 C 5.71875 30.46875 5.332031 30.046875 4.972656 29.605469 C 4.609375 29.160156 4.269531 28.703125 3.949219 28.226562 C 3.632812 27.753906 3.339844 27.261719 3.070312 26.757812 C 2.800781 26.253906 2.554688 25.738281 2.335938 25.210938 C 2.117188 24.683594 1.925781 24.144531 1.761719 23.597656 C 1.59375 23.050781 1.457031 22.496094 1.34375 21.933594 C 1.230469 21.375 1.148438 20.808594 1.09375 20.242188 C 1.035156 19.671875 1.007812 19.101562 1.007812 18.53125 C 1.007812 17.957031 1.035156 17.386719 1.09375 16.820312 C 1.148438 16.25 1.230469 15.683594 1.34375 15.125 C 1.457031 14.5625 1.59375 14.007812 1.761719 13.460938 C 1.925781 12.914062 2.117188 12.378906 2.335938 11.847656 C 2.554688 11.320312 2.800781 10.804688 3.070312 10.300781 C 3.339844 9.796875 3.632812 9.308594 3.949219 8.832031 C 4.269531 8.355469 4.609375 7.898438 4.972656 7.457031 C 5.332031 7.011719 5.71875 6.589844 6.121094 6.1875 C 6.527344 5.78125 6.949219 5.398438 7.390625 5.035156 C 7.832031 4.671875 8.292969 4.332031 8.765625 4.015625 C 9.242188 3.699219 9.730469 3.402344 10.234375 3.132812 C 10.738281 2.863281 11.257812 2.621094 11.785156 2.402344 C 12.3125 2.183594 12.851562 1.992188 13.398438 1.824219 C 13.945312 1.660156 14.5 1.519531 15.058594 1.410156 C 15.621094 1.296875 16.183594 1.214844 16.753906 1.15625 C 17.324219 1.101562 17.894531 1.074219 18.464844 1.074219 C 19.035156 1.074219 19.605469 1.101562 20.175781 1.15625 C 20.746094 1.214844 21.308594 1.296875 21.871094 1.410156 C 22.429688 1.519531 22.984375 1.660156 23.53125 1.824219 C 24.078125 1.992188 24.617188 2.183594 25.144531 2.402344 C 25.671875 2.621094 26.191406 2.863281 26.695312 3.132812 C 27.199219 3.402344 27.6875 3.699219 28.164062 4.015625 C 28.636719 4.332031 29.097656 4.671875 29.539062 5.035156 C 29.980469 5.398438 30.402344 5.78125 30.808594 6.1875 C 31.210938 6.589844 31.597656 7.011719 31.957031 7.457031 C 32.320312 7.898438 32.660156 8.355469 32.980469 8.832031 C 33.296875 9.308594 33.589844 9.796875 33.859375 10.300781 C 34.128906 10.804688 34.375 11.320312 34.59375 11.847656 C 34.8125 12.378906 35.003906 12.914062 35.167969 13.460938 C 35.335938 14.007812 35.472656 14.5625 35.585938 15.125 C 35.699219 15.683594 35.78125 16.25 35.835938 16.820312 C 35.894531 17.386719 35.921875 17.957031 35.921875 18.53125 Z M 35.921875 18.53125 " fill-opacity="1" fill-rule="nonzero"/></g><g clip-path="url(#4d3406cfcd)"><g clip-path="url(#2a1a771650)"><path fill="#ffffff" d="M 17.972656 12.578125 L 19.160156 12.578125 L 19.160156 14.484375 L 17.972656 14.484375 Z M 17.972656 12.578125 " fill-opacity="1" fill-rule="nonzero"/></g></g><g clip-path="url(#8acf7a9291)"><path fill="#0d7aff" d="M 24.410156 17.578125 L 19.15625 20.550781 C 18.972656 20.65625 18.769531 20.707031 18.5625 20.707031 C 18.355469 20.707031 18.152344 20.65625 17.964844 20.550781 L 12.714844 17.578125 C 12.339844 17.363281 12.101562 16.960938 12.101562 16.527344 L 12.101562 10.636719 C 12.101562 10.207031 12.332031 9.808594 12.703125 9.59375 L 17.953125 6.53125 C 18.328125 6.3125 18.796875 6.3125 19.171875 6.53125 L 24.421875 9.59375 C 24.792969 9.808594 25.019531 10.207031 25.019531 10.636719 L 25.019531 15.304688 L 24.160156 14.636719 L 24.160156 10.636719 C 24.160156 10.515625 24.09375 10.398438 23.988281 10.335938 L 18.738281 7.273438 C 18.628906 7.210938 18.496094 7.210938 18.386719 7.273438 L 18.019531 7.488281 L 18.761719 8.78125 C 20.703125 8.859375 22.34375 10.105469 23.007812 11.835938 C 23.113281 12.109375 23.195312 12.398438 23.25 12.695312 L 20.554688 12.695312 C 20.238281 11.902344 19.464844 11.34375 18.5625 11.34375 C 17.378906 11.34375 16.414062 12.304688 16.414062 13.488281 C 16.414062 14.675781 17.378906 15.636719 18.5625 15.636719 C 18.984375 15.636719 19.378906 15.511719 19.714844 15.300781 L 20.960938 15.300781 C 20.410156 16.027344 19.542969 16.496094 18.5625 16.496094 C 18.160156 16.496094 17.777344 16.417969 17.425781 16.273438 L 16.9375 17.085938 C 17.433594 17.3125 17.984375 17.4375 18.5625 17.4375 C 20.078125 17.4375 21.390625 16.570312 22.039062 15.304688 L 25.019531 15.304688 L 25.019531 16.527344 C 25.019531 16.960938 24.785156 17.363281 24.410156 17.578125 Z M 21.070312 11.835938 L 22.070312 11.835938 C 21.4375 10.535156 20.101562 9.636719 18.5625 9.636719 C 18.464844 9.636719 18.367188 9.640625 18.273438 9.648438 L 18.152344 9.441406 L 17.277344 7.921875 L 16.84375 7.175781 L 16.671875 8.273438 L 13.136719 10.335938 C 13.03125 10.398438 12.964844 10.515625 12.964844 10.636719 L 12.964844 16.527344 C 12.964844 16.652344 13.03125 16.765625 13.140625 16.828125 L 13.496094 17.03125 L 14.308594 15.675781 C 13.984375 15.03125 13.800781 14.304688 13.800781 13.539062 C 13.800781 11.644531 14.914062 10.003906 16.515625 9.238281 L 16.945312 9.988281 L 17.371094 10.726562 C 17.738281 10.570312 18.140625 10.480469 18.5625 10.480469 C 19.609375 10.484375 20.53125 11.019531 21.070312 11.835938 Z M 22.53125 16.167969 C 21.675781 17.449219 20.214844 18.300781 18.5625 18.300781 C 17.515625 18.300781 16.542969 17.957031 15.757812 17.382812 L 15.953125 17.058594 L 16.683594 15.835938 C 15.996094 15.285156 15.554688 14.4375 15.554688 13.488281 C 15.554688 12.5625 15.976562 11.730469 16.640625 11.179688 L 16.207031 10.429688 C 15.269531 11.144531 14.660156 12.269531 14.660156 13.539062 C 14.660156 14.328125 14.898438 15.066406 15.304688 15.679688 L 15.214844 15.835938 L 14.019531 17.832031 L 13.800781 18.191406 L 14.808594 17.773438 L 18.390625 19.804688 C 18.496094 19.863281 18.628906 19.863281 18.734375 19.804688 L 23.984375 16.828125 C 24.09375 16.765625 24.160156 16.652344 24.160156 16.527344 L 24.160156 16.167969 Z M 22.53125 16.167969 " fill-opacity="1" fill-rule="nonzero"/></g><g clip-path="url(#27084d7f37)"><g clip-path="url(#8eac3f09a3)"><path fill="#ffffff" d="M 18.070312 12.542969 L 19.058594 12.542969 L 19.058594 13.53125 L 18.070312 13.53125 Z M 18.070312 12.542969 " fill-opacity="1" fill-rule="nonzero"/></g></g><g fill="#ffffff" fill-opacity="1"><g transform="translate(7.051306, 27.68374)"><g><path d="M 3.1875 -2.875 L 3.1875 -4.46875 L 0.3125 -4.46875 L 0.3125 -5.109375 L 3.1875 -5.109375 C 3.613281 -5.109375 3.828125 -4.894531 3.828125 -4.46875 L 3.828125 -2.875 C 3.828125 -2.445312 3.613281 -2.234375 3.1875 -2.234375 L 0.953125 -2.234375 L 0.953125 0 L 0.3125 0 L 0.3125 -2.875 Z M 3.1875 -2.875 "/></g></g></g><g fill="#ffffff" fill-opacity="1"><g transform="translate(11.208256, 27.68374)"><g><path d="M 0.953125 0 C 0.523438 0 0.3125 -0.210938 0.3125 -0.640625 L 0.3125 -5.109375 L 0.953125 -5.109375 L 0.953125 -0.640625 L 5.4375 -0.640625 L 5.4375 -5.109375 L 6.078125 -5.109375 L 6.078125 -0.640625 C 6.078125 -0.210938 5.863281 0 5.4375 0 Z M 2.875 -1.28125 L 2.875 -5.109375 L 3.515625 -5.109375 L 3.515625 -1.28125 Z M 2.875 -1.28125 "/></g></g></g><g fill="#ffffff" fill-opacity="1"><g transform="translate(17.603572, 27.68374)"><g><path d="M 0.3125 -4.46875 C 0.3125 -4.894531 0.523438 -5.109375 0.953125 -5.109375 L 3.1875 -5.109375 C 3.613281 -5.109375 3.828125 -4.894531 3.828125 -4.46875 L 3.828125 0 L 3.1875 0 L 3.1875 -4.46875 L 0.953125 -4.46875 L 0.953125 0 L 0.3125 0 Z M 0.3125 -4.46875 "/></g></g></g><g fill="#ffffff" fill-opacity="1"><g transform="translate(21.760521, 27.68374)"><g><path d="M 3.828125 -5.109375 L 3.828125 -4.46875 L 0.3125 -4.46875 L 0.3125 -5.109375 Z M 0.3125 0 L 0.3125 -0.640625 L 3.828125 -0.640625 L 3.828125 0 Z M 0.3125 -1.28125 L 0.3125 -1.921875 L 3.1875 -1.921875 L 3.1875 -1.28125 Z M 0.3125 -1.28125 "/></g></g></g><g fill="#ffffff" fill-opacity="1"><g transform="translate(25.917471, 27.68374)"><g><path d="M 0.953125 0 C 0.523438 0 0.3125 -0.210938 0.3125 -0.640625 L 0.3125 -5.109375 L 0.953125 -5.109375 L 0.953125 -0.640625 L 3.1875 -0.640625 L 3.1875 -5.109375 L 3.828125 -5.109375 L 3.828125 -0.640625 C 3.828125 -0.210938 3.613281 0 3.1875 0 Z M 0.953125 0 "/></g></g></g></svg>